<svg width="18" height="22" viewBox="0 0 18 22" fill="none" xmlns="http://www.w3.org/2000/svg">
<path d="M15 3.48003C13.4087 1.88873 11.2504 0.994751 8.99999 0.994751C6.74955 0.994751 4.59129 1.88873 2.99999 3.48003C1.40869 5.07133 0.514709 7.2296 0.514709 9.48003C0.514709 11.7305 1.40869 13.8887 2.99999 15.48L8.26999 20.76C8.36295 20.8538 8.47355 20.9282 8.59541 20.9789C8.71727 21.0297 8.84798 21.0558 8.97999 21.0558C9.112 21.0558 9.24271 21.0297 9.36457 20.9789C9.48643 20.9282 9.59703 20.8538 9.68999 20.76L15 15.43C16.5846 13.8454 17.4749 11.6961 17.4749 9.45503C17.4749 7.21398 16.5846 5.06471 15 3.48003V3.48003ZM13.57 14L8.99999 18.59L4.42999 14C3.52713 13.0963 2.91247 11.9453 2.66369 10.6923C2.4149 9.43937 2.54318 8.14078 3.03229 6.96071C3.52141 5.78065 4.34941 4.77208 5.41162 4.06251C6.47383 3.35294 7.72257 2.97421 8.99999 2.97421C10.2774 2.97421 11.5261 3.35294 12.5884 4.06251C13.6506 4.77208 14.4786 5.78065 14.9677 6.96071C15.4568 8.14078 15.5851 9.43937 15.3363 10.6923C15.0875 11.9453 14.4728 13.0963 13.57 14V14ZM5.99999 6.41003C5.19271 7.2198 4.73939 8.3166 4.73939 9.46003C4.73939 10.6035 5.19271 11.7003 5.99999 12.51C6.59975 13.1108 7.36358 13.5211 8.19564 13.6894C9.0277 13.8578 9.89094 13.7766 10.6771 13.4562C11.4632 13.1358 12.1372 12.5903 12.6145 11.8883C13.0918 11.1863 13.3511 10.3589 13.36 9.51003C13.3645 8.94324 13.2553 8.38129 13.0389 7.85742C12.8225 7.33355 12.5032 6.85839 12.1 6.46003C11.7037 6.05461 11.2311 5.73157 10.7094 5.5095C10.1878 5.28743 9.62733 5.17071 9.06039 5.16606C8.49345 5.16141 7.93119 5.26893 7.40596 5.48242C6.88073 5.69591 6.40291 6.01116 5.99999 6.41003V6.41003ZM10.69 11.09C10.311 11.4748 9.8102 11.7159 9.27312 11.7723C8.73603 11.8286 8.19605 11.6967 7.7455 11.399C7.29494 11.1012 6.96179 10.6563 6.803 10.1401C6.64421 9.62396 6.66964 9.06867 6.87495 8.56919C7.08026 8.06971 7.45269 7.65705 7.92858 7.40177C8.40446 7.14649 8.95424 7.06444 9.48393 7.16965C10.0136 7.27486 10.4903 7.56079 10.8325 7.97856C11.1747 8.39634 11.3612 8.92 11.36 9.46003C11.3454 10.0773 11.0865 10.6636 10.64 11.09H10.69Z" fill="#545863"/>
</svg>
