<svg width="11" height="8" viewBox="0 0 11 8" fill="none" xmlns="http://www.w3.org/2000/svg">
<path d="M10.3333 1.16994C10.146 0.983692 9.89251 0.87915 9.62832 0.87915C9.36414 0.87915 9.11069 0.983692 8.92332 1.16994L5.33332 4.70994L1.79332 1.16994C1.60596 0.983692 1.35251 0.87915 1.08832 0.87915C0.824137 0.87915 0.570685 0.983692 0.383323 1.16994C0.289594 1.26291 0.2152 1.37351 0.164431 1.49537C0.113662 1.61723 0.0875244 1.74793 0.0875244 1.87994C0.0875244 2.01195 0.113662 2.14266 0.164431 2.26452C0.2152 2.38638 0.289594 2.49698 0.383323 2.58994L4.62332 6.82994C4.71629 6.92367 4.82689 6.99806 4.94875 7.04883C5.0706 7.0996 5.20131 7.12574 5.33332 7.12574C5.46533 7.12574 5.59604 7.0996 5.7179 7.04883C5.83976 6.99806 5.95036 6.92367 6.04332 6.82994L10.3333 2.58994C10.4271 2.49698 10.5014 2.38638 10.5522 2.26452C10.603 2.14266 10.6291 2.01195 10.6291 1.87994C10.6291 1.74793 10.603 1.61723 10.5522 1.49537C10.5014 1.37351 10.4271 1.26291 10.3333 1.16994Z" fill="#8A92A4"/>
</svg>
