<svg width="30" height="30" viewBox="0 0 30 30" fill="none" xmlns="http://www.w3.org/2000/svg">
<path d="M14.9999 0.333496C12.0991 0.333496 9.26348 1.19368 6.85156 2.80527C4.43964 4.41687 2.55978 6.70749 1.44969 9.38747C0.339607 12.0675 0.0491578 15.0164 0.615074 17.8615C1.18099 20.7065 2.57786 23.3199 4.62903 25.3711C6.6802 27.4222 9.29355 28.8191 12.1386 29.385C14.9837 29.9509 17.9326 29.6605 20.6126 28.5504C23.2926 27.4403 25.5832 25.5604 27.1948 23.1485C28.8064 20.7366 29.6666 17.901 29.6666 15.0002C29.6666 11.1103 28.1214 7.3798 25.3708 4.62926C22.6203 1.87873 18.8898 0.333496 14.9999 0.333496V0.333496ZM14.9999 27.0002C12.6265 27.0002 10.3065 26.2964 8.33308 24.9778C6.35969 23.6592 4.82162 21.7851 3.91337 19.5924C3.00512 17.3996 2.76748 14.9869 3.2305 12.6591C3.69352 10.3313 4.83641 8.19311 6.51464 6.51488C8.19287 4.83665 10.3311 3.69376 12.6588 3.23074C14.9866 2.76772 17.3994 3.00536 19.5921 3.91361C21.7848 4.82186 23.659 6.35993 24.9776 8.33332C26.2961 10.3067 26.9999 12.6268 26.9999 15.0002C26.9999 18.1828 25.7356 21.235 23.4852 23.4854C21.2348 25.7359 18.1825 27.0002 14.9999 27.0002V27.0002ZM17.6666 8.3335V7.00016C17.6666 6.64654 17.5261 6.3074 17.2761 6.05735C17.026 5.80731 16.6869 5.66683 16.3333 5.66683C15.9796 5.66683 15.6405 5.80731 15.3904 6.05735C15.1404 6.3074 14.9999 6.64654 14.9999 7.00016V8.3335H13.6666V7.00016C13.6666 6.64654 13.5261 6.3074 13.2761 6.05735C13.026 5.80731 12.6869 5.66683 12.3333 5.66683C11.9796 5.66683 11.6405 5.80731 11.3904 6.05735C11.1404 6.3074 10.9999 6.64654 10.9999 7.00016V8.3335H9.66659C9.31297 8.3335 8.97383 8.47397 8.72378 8.72402C8.47373 8.97407 8.33326 9.31321 8.33326 9.66683C8.33326 10.0205 8.47373 10.3596 8.72378 10.6096C8.97383 10.8597 9.31297 11.0002 9.66659 11.0002H10.9999V19.0002H9.66659C9.31297 19.0002 8.97383 19.1406 8.72378 19.3907C8.47373 19.6407 8.33326 19.9799 8.33326 20.3335C8.33326 20.6871 8.47373 21.0263 8.72378 21.2763C8.97383 21.5264 9.31297 21.6668 9.66659 21.6668H10.9999V23.0002C10.9999 23.3538 11.1404 23.6929 11.3904 23.943C11.6405 24.193 11.9796 24.3335 12.3333 24.3335C12.6869 24.3335 13.026 24.193 13.2761 23.943C13.5261 23.6929 13.6666 23.3538 13.6666 23.0002V21.6668H14.9999V23.0002C14.9999 23.3538 15.1404 23.6929 15.3904 23.943C15.6405 24.193 15.9796 24.3335 16.3333 24.3335C16.6869 24.3335 17.026 24.193 17.2761 23.943C17.5261 23.6929 17.6666 23.3538 17.6666 23.0002V21.6668C18.7275 21.6668 19.7449 21.2454 20.495 20.4953C21.2452 19.7451 21.6666 18.7277 21.6666 17.6668C21.6644 16.6819 21.2988 15.7323 20.6399 15.0002C21.2988 14.268 21.6644 13.3185 21.6666 12.3335C21.6666 11.2726 21.2452 10.2552 20.495 9.50507C19.7449 8.75492 18.7275 8.3335 17.6666 8.3335V8.3335ZM17.6666 19.0002H13.6666V16.3335H17.6666C18.0202 16.3335 18.3594 16.474 18.6094 16.724C18.8594 16.9741 18.9999 17.3132 18.9999 17.6668C18.9999 18.0205 18.8594 18.3596 18.6094 18.6096C18.3594 18.8597 18.0202 19.0002 17.6666 19.0002ZM17.6666 13.6668H13.6666V11.0002H17.6666C18.0202 11.0002 18.3594 11.1406 18.6094 11.3907C18.8594 11.6407 18.9999 11.9799 18.9999 12.3335C18.9999 12.6871 18.8594 13.0263 18.6094 13.2763C18.3594 13.5264 18.0202 13.6668 17.6666 13.6668Z" fill="#E93370"/>
</svg>
