<svg width="20" height="20" viewBox="0 0 20 20" fill="none" xmlns="http://www.w3.org/2000/svg">
<path d="M17.41 11C17.19 11 16.96 10.93 16.74 10.88C16.2948 10.7805 15.8571 10.6501 15.43 10.49C14.9661 10.3212 14.4561 10.33 13.9983 10.5146C13.5405 10.6992 13.1671 11.0466 12.95 11.49L12.73 11.95C11.7588 11.3992 10.8616 10.7271 10.06 9.95C9.28284 9.14837 8.61078 8.25118 8.05999 7.28L8.51999 7.07C8.96335 6.85292 9.31077 6.47953 9.49538 6.02169C9.67999 5.56385 9.68876 5.05391 9.51999 4.59C9.36118 4.15903 9.2309 3.71808 9.12999 3.27C9.07999 3.05 9.03999 2.82 9.00999 2.6C8.88855 1.89562 8.51961 1.25774 7.96961 0.801239C7.41961 0.344737 6.72469 0.0996088 6.00999 0.11H2.99999C2.57724 0.109446 2.15914 0.198248 1.77311 0.370584C1.38707 0.54292 1.04182 0.794898 0.759989 1.11C0.472309 1.43365 0.258104 1.81575 0.132092 2.23004C0.00608017 2.64432 -0.028752 3.08098 0.0299888 3.51C0.573576 7.67214 2.4752 11.5387 5.43999 14.51C8.41134 17.4748 12.2779 19.3764 16.44 19.92C16.5698 19.9299 16.7002 19.9299 16.83 19.92C17.5674 19.9211 18.2794 19.6505 18.83 19.16C19.1451 18.8782 19.3971 18.5329 19.5694 18.1469C19.7417 17.7609 19.8305 17.3428 19.83 16.92V13.92C19.8246 13.229 19.5808 12.5611 19.1399 12.0291C18.699 11.4971 18.0879 11.1336 17.41 11ZM17.9 17C17.8997 17.1395 17.8701 17.2775 17.8133 17.4049C17.7565 17.5324 17.6736 17.6465 17.57 17.74C17.4604 17.8399 17.33 17.9141 17.1881 17.9573C17.0463 18.0006 16.8967 18.0117 16.75 17.99C13.0183 17.5026 9.55024 15.802 6.87999 13.15C4.20746 10.4775 2.49202 6.99737 1.99999 3.25C1.97826 3.10333 1.98943 2.95367 2.03266 2.81185C2.0759 2.67003 2.15014 2.5396 2.24999 2.43C2.34461 2.32515 2.46037 2.24154 2.58964 2.18466C2.71891 2.12778 2.85876 2.09892 2.99999 2.1H5.99999C6.23115 2.09435 6.45713 2.16898 6.63945 2.3112C6.82178 2.45341 6.94919 2.65442 6.99999 2.88C6.99999 3.15 7.08999 3.43 7.14999 3.7C7.26556 4.22386 7.41931 4.73857 7.60999 5.24L6.20999 5.9C5.96935 6.01046 5.78235 6.21185 5.68999 6.46C5.58997 6.70346 5.58997 6.97654 5.68999 7.22C7.12919 10.3028 9.60723 12.7808 12.69 14.22C12.9334 14.32 13.2065 14.32 13.45 14.22C13.6981 14.1276 13.8995 13.9406 14.01 13.7L14.64 12.3C15.1559 12.4881 15.6837 12.6418 16.22 12.76C16.48 12.82 16.76 12.87 17.03 12.91C17.2556 12.9608 17.4566 13.0882 17.5988 13.2705C17.741 13.4529 17.8156 13.6788 17.81 13.91L17.9 17ZM12 0C11.77 0 11.53 0 11.3 0C11.0348 0.0225434 10.7894 0.14952 10.6178 0.352997C10.4462 0.556474 10.3624 0.819784 10.385 1.085C10.4075 1.35022 10.5345 1.59562 10.738 1.76721C10.9415 1.93881 11.2048 2.02254 11.47 2H12C13.5913 2 15.1174 2.63214 16.2426 3.75736C17.3678 4.88258 18 6.4087 18 8C18 8.18 18 8.35 18 8.53C17.9778 8.79381 18.0612 9.05565 18.2317 9.2581C18.4023 9.46055 18.6462 9.5871 18.91 9.61H18.99C19.2403 9.61102 19.4819 9.5181 19.6671 9.34961C19.8522 9.18113 19.9675 8.94932 19.99 8.7C19.99 8.47 19.99 8.23 19.99 8C19.99 5.88 19.1485 3.84668 17.6504 2.34668C16.1523 0.846674 14.12 0.00265 12 0ZM14 8C14 8.26522 14.1053 8.51957 14.2929 8.70711C14.4804 8.89464 14.7348 9 15 9C15.2652 9 15.5196 8.89464 15.7071 8.70711C15.8946 8.51957 16 8.26522 16 8C16 6.93913 15.5786 5.92172 14.8284 5.17157C14.0783 4.42143 13.0609 4 12 4C11.7348 4 11.4804 4.10536 11.2929 4.29289C11.1053 4.48043 11 4.73478 11 5C11 5.26522 11.1053 5.51957 11.2929 5.70711C11.4804 5.89464 11.7348 6 12 6C12.5304 6 13.0391 6.21071 13.4142 6.58579C13.7893 6.96086 14 7.46957 14 8Z" fill="#0068B1"/>
</svg>
