<svg width="82" height="78" viewBox="0 0 82 78" fill="none" xmlns="http://www.w3.org/2000/svg">
<path d="M80.3532 75.7506H73.2356V43.3047C73.2356 42.7808 72.8081 42.3532 72.2841 42.3532L56.7023 42.3539V23.6033C56.7023 23.0793 56.2748 22.6518 55.7509 22.6518H51.2448V17.4283C51.2448 16.9044 50.8173 16.4769 50.2934 16.4769H45.0699L45.0706 6.04674C45.0706 5.5228 44.643 5.09528 44.1191 5.09528H40.7821L40.7176 1.28286C40.7096 0.758924 40.2741 0.34003 39.7502 0.348013C39.2262 0.355996 38.8074 0.791501 38.8153 1.31543L38.8798 5.09603H35.5746C35.0507 5.09603 34.6232 5.52355 34.6232 6.04748V16.4863H29.3997C28.8758 16.4863 28.4482 16.9138 28.4482 17.4377V22.6612H23.9422C23.4183 22.6612 22.9907 23.0888 22.9907 23.6127V31.7058L10.4721 36.4857C10.1011 36.6227 9.85973 36.9777 9.85973 37.3727V75.7505L1.64628 75.7492C1.12235 75.7492 0.694824 76.1767 0.694824 76.7007C0.694824 77.2246 1.12235 77.6521 1.64628 77.6521H80.3544C80.8783 77.6521 81.3058 77.2246 81.3058 76.7007C81.3052 76.1767 80.8776 75.7492 80.3537 75.7492L80.3532 75.7506ZM71.3413 75.5731H49.263V44.2489H71.3345V75.5731H71.3413ZM36.5345 6.9978H43.1767V16.4938H36.5345V6.9978ZM30.3677 18.3881H49.3583V22.6608H30.3677V18.3881ZM24.9108 24.5549H54.8087V42.354H48.3193C47.7954 42.354 47.3679 42.7816 47.3679 43.3055V75.5813H24.9117L24.9108 24.5549ZM11.7793 38.0243L22.9355 33.7684V75.5794L11.7793 75.5801V38.0243Z" fill="#545863"/>
<path d="M16.7601 39.0322C16.2361 39.0322 15.8086 39.4597 15.8086 39.9837V44.2564C15.8086 44.7803 16.2361 45.2078 16.7601 45.2078C17.284 45.2078 17.7115 44.7803 17.7115 44.2564V39.9837C17.7115 39.4591 17.2847 39.0322 16.7601 39.0322Z" fill="#545863"/>
<path d="M16.7601 47.5771C16.2361 47.5771 15.8086 48.0047 15.8086 48.5286V52.8013C15.8086 53.3252 16.2361 53.7528 16.7601 53.7528C17.284 53.7528 17.7115 53.3252 17.7115 52.8013V48.5286C17.7115 47.996 17.2847 47.5771 16.7601 47.5771Z" fill="#545863"/>
<path d="M16.7601 56.1133C16.2361 56.1133 15.8086 56.5408 15.8086 57.0647V61.3374C15.8086 61.8613 16.2361 62.2888 16.7601 62.2888C17.284 62.2888 17.7115 61.8613 17.7115 61.3374V57.0647C17.7115 56.5401 17.2847 56.1133 16.7601 56.1133Z" fill="#545863"/>
<path d="M16.7601 64.6577C16.2361 64.6577 15.8086 65.0852 15.8086 65.6092V69.8819C15.8086 70.4058 16.2361 70.8333 16.7601 70.8333C17.284 70.8333 17.7115 70.4058 17.7115 69.8819V65.6092C17.7115 65.0852 17.2847 64.6577 16.7601 64.6577Z" fill="#545863"/>
<path d="M29.2553 32.3907H49.6655C50.1895 32.3907 50.617 31.9632 50.617 31.4393C50.617 30.9153 50.1895 30.4878 49.6655 30.4878L29.2553 30.4885C28.7314 30.4885 28.3038 30.916 28.3038 31.4399C28.3045 31.9632 28.7314 32.3907 29.2553 32.3907Z" fill="#545863"/>
<path d="M29.2553 39.315H49.6655C50.1895 39.315 50.617 38.8875 50.617 38.3636C50.617 37.8396 50.1895 37.4121 49.6655 37.4121L29.2553 37.4128C28.7314 37.4128 28.3038 37.8403 28.3038 38.3642C28.3045 38.8882 28.7314 39.315 29.2553 39.315Z" fill="#545863"/>
<path d="M29.2553 46.2476H44.0471C44.5711 46.2476 44.9986 45.8201 44.9986 45.2962C44.9986 44.7723 44.5711 44.3447 44.0471 44.3447H29.2553C28.7314 44.3447 28.3038 44.7723 28.3038 45.2962C28.3045 45.8201 28.7314 46.2476 29.2553 46.2476Z" fill="#545863"/>
<path d="M44.0467 51.2773H29.2549C28.731 51.2773 28.3035 51.7049 28.3035 52.2288C28.3035 52.7528 28.731 53.1803 29.2549 53.1803H44.0467C44.5707 53.1803 44.9982 52.7528 44.9982 52.2288C44.9982 51.7042 44.5707 51.2773 44.0467 51.2773Z" fill="#545863"/>
<path d="M44.0467 58.2017H29.2549C28.731 58.2017 28.3035 58.6292 28.3035 59.1531C28.3035 59.677 28.731 60.1045 29.2549 60.1045H44.0467C44.5707 60.1045 44.9982 59.677 44.9982 59.1531C44.9982 58.6292 44.5707 58.2017 44.0467 58.2017Z" fill="#545863"/>
<path d="M44.0467 65.1345H29.2549C28.731 65.1345 28.3035 65.5621 28.3035 66.086C28.3035 66.6099 28.731 67.0374 29.2549 67.0374H44.0467C44.5707 67.0374 44.9982 66.6099 44.9982 66.086C44.9982 65.5621 44.5707 65.1345 44.0467 65.1345Z" fill="#545863"/>
<path d="M52.2766 49.5686C52.2766 50.0926 52.7042 50.5201 53.2281 50.5201H68.0199C68.5439 50.5201 68.9714 50.0926 68.9714 49.5686C68.9714 49.0447 68.5439 48.6172 68.0199 48.6172L53.2201 48.6179C52.6962 48.6179 52.2766 49.0447 52.2766 49.5686H52.2766Z" fill="#545863"/>
<path d="M68.0128 55.5498H53.221C52.6971 55.5498 52.2695 55.9773 52.2695 56.5013C52.2695 57.0252 52.6971 57.4527 53.221 57.4527H68.0128C68.5368 57.4527 68.9643 57.0252 68.9643 56.5013C68.9636 55.9693 68.5368 55.5498 68.0128 55.5498Z" fill="#545863"/>
<path d="M68.0128 62.4741H53.221C52.6971 62.4741 52.2695 62.9017 52.2695 63.4256C52.2695 63.9495 52.6971 64.377 53.221 64.377H68.0128C68.5368 64.377 68.9643 63.9495 68.9643 63.4256C68.9636 62.9017 68.5368 62.4741 68.0128 62.4741Z" fill="#545863"/>
<path d="M68.0128 69.4067H53.221C52.6971 69.4067 52.2695 69.8343 52.2695 70.3582C52.2695 70.8821 52.6971 71.3096 53.221 71.3096H68.0128C68.5368 71.3096 68.9643 70.8821 68.9643 70.3582C68.9636 69.8336 68.5368 69.4067 68.0128 69.4067Z" fill="#545863"/>
</svg>
