<svg width="80" height="82" viewBox="0 0 80 82" fill="none" xmlns="http://www.w3.org/2000/svg">
<path d="M78.257 79.4426H72.1147V76.5649C74.8793 76.1135 76.9916 73.7112 76.9916 70.8176C76.9916 67.9798 74.7343 61.265 71.1639 61.265C67.5928 61.265 65.3361 67.9798 65.3361 70.8176C65.3361 73.7198 67.4645 76.1301 70.2451 76.5728V79.4424H62.0469V1.62967C62.0469 1.11372 61.6281 0.694824 61.1121 0.694824H29.747C29.497 0.694824 29.2636 0.791233 29.0861 0.968763C28.9086 1.14629 28.8122 1.37968 28.8122 1.62967L28.8607 23.2977L8.07944 23.2984C7.56349 23.2984 7.1446 23.7173 7.1446 24.2332V79.4502H1.74307C1.22712 79.4502 0.808228 79.8691 0.808228 80.3851C0.808228 80.9011 1.2271 81.3199 1.74307 81.3199H78.2571C78.773 81.3199 79.1919 80.9011 79.1919 80.3851C79.1932 79.8618 78.7737 79.4423 78.2577 79.4423L78.257 79.4426ZM67.2057 70.8176C67.2057 68.2138 69.3421 63.1273 71.1639 63.1273C72.9857 63.1273 75.122 68.2058 75.122 70.8176C75.122 73.0024 73.3487 74.7757 71.1639 74.7757C68.987 74.7837 67.2057 73.0017 67.2057 70.8176ZM29.747 79.4426H9.01514V25.16H38.5181V79.4426H29.747ZM40.3794 79.4426V24.2256C40.3794 23.7096 39.9605 23.2907 39.4445 23.2907H30.7305L30.682 2.55882H60.1781V79.4439L40.3794 79.4426Z" fill="#545863"/>
<path d="M53.9455 37.3252C53.4296 37.3252 53.0107 37.7441 53.0107 38.26V41.8798C53.0107 42.3957 53.4296 42.8146 53.9455 42.8146C54.4615 42.8146 54.8804 42.3958 54.8804 41.8798L54.881 38.26C54.881 37.7441 54.4615 37.3252 53.9455 37.3252Z" fill="#545863"/>
<path d="M45.3208 37.3252C44.8049 37.3252 44.386 37.7441 44.386 38.26V41.8798C44.386 42.3957 44.8049 42.8146 45.3208 42.8146C45.8368 42.8146 46.2557 42.3958 46.2557 41.8798V38.26C46.2557 37.7441 45.8368 37.3252 45.3208 37.3252Z" fill="#545863"/>
<path d="M53.9455 46.554C53.4296 46.554 53.0107 46.9728 53.0107 47.4888V51.1086C53.0107 51.6245 53.4296 52.0434 53.9455 52.0434C54.4615 52.0434 54.8804 51.6245 54.8804 51.1086V47.4888C54.881 46.9649 54.4615 46.554 53.9455 46.554Z" fill="#545863"/>
<path d="M45.3208 46.554C44.8049 46.554 44.386 46.9728 44.386 47.4888V51.1086C44.386 51.6245 44.8049 52.0434 45.3208 52.0434C45.8368 52.0434 46.2557 51.6245 46.2557 51.1086V47.4888C46.2557 46.9649 45.8368 46.554 45.3208 46.554Z" fill="#545863"/>
<path d="M53.9455 55.7761C53.4296 55.7761 53.0107 56.195 53.0107 56.711V60.3307C53.0107 60.8466 53.4296 61.2655 53.9455 61.2655C54.4615 61.2655 54.8804 60.8467 54.8804 60.3307V56.711C54.881 56.195 54.4615 55.7761 53.9455 55.7761Z" fill="#545863"/>
<path d="M45.3208 55.7761C44.8049 55.7761 44.386 56.195 44.386 56.711V60.3307C44.386 60.8466 44.8049 61.2655 45.3208 61.2655C45.8368 61.2655 46.2557 60.8467 46.2557 60.3307V56.711C46.2557 56.195 45.8368 55.7761 45.3208 55.7761Z" fill="#545863"/>
<path d="M53.9455 64.9983C53.4296 64.9983 53.0107 65.4172 53.0107 65.9331V69.5529C53.0107 70.0688 53.4296 70.4877 53.9455 70.4877C54.4615 70.4877 54.8804 70.0689 54.8804 69.5529V65.9331C54.881 65.4172 54.4615 64.9983 53.9455 64.9983Z" fill="#545863"/>
<path d="M45.3208 64.9983C44.8049 64.9983 44.386 65.4172 44.386 65.9331V69.5529C44.386 70.0688 44.8049 70.4877 45.3208 70.4877C45.8368 70.4877 46.2557 70.0689 46.2557 69.5529V65.9331C46.2557 65.4172 45.8368 64.9983 45.3208 64.9983Z" fill="#545863"/>
<path d="M53.9455 9.74048C53.4296 9.74048 53.0107 10.1594 53.0107 10.6753V14.2951C53.0107 14.811 53.4296 15.2299 53.9455 15.2299C54.4615 15.2299 54.8804 14.811 54.8804 14.2951V10.6753C54.881 10.1594 54.4615 9.74048 53.9455 9.74048Z" fill="#545863"/>
<path d="M45.3208 9.74048C44.8049 9.74048 44.386 10.1594 44.386 10.6753V14.2951C44.386 14.811 44.8049 15.2299 45.3208 15.2299C45.8368 15.2299 46.2557 14.811 46.2557 14.2951V10.6753C46.2557 10.1594 45.8368 9.74048 45.3208 9.74048Z" fill="#545863"/>
<path d="M37.2511 9.74048C36.7351 9.74048 36.3162 10.1594 36.3162 10.6753V14.2951C36.3162 14.811 36.7351 15.2299 37.2511 15.2299C37.767 15.2299 38.1859 14.811 38.1859 14.2951V10.6753C38.1866 10.1594 37.767 9.74048 37.2511 9.74048Z" fill="#545863"/>
<path d="M53.9455 18.9609C53.4296 18.9609 53.0107 19.3798 53.0107 19.8958V23.5155C53.0107 24.0315 53.4296 24.4504 53.9455 24.4504C54.4615 24.4504 54.8804 24.0315 54.8804 23.5155V19.8958C54.881 19.3805 54.4615 18.9609 53.9455 18.9609Z" fill="#545863"/>
<path d="M45.3208 18.9609C44.8049 18.9609 44.386 19.3798 44.386 19.8958V23.5155C44.386 24.0315 44.8049 24.4504 45.3208 24.4504C45.8368 24.4504 46.2557 24.0315 46.2557 23.5155V19.8958C46.2557 19.3805 45.8368 18.9609 45.3208 18.9609Z" fill="#545863"/>
<path d="M53.9455 28.1914C53.4296 28.1914 53.0107 28.6103 53.0107 29.1262V32.746C53.0107 33.2619 53.4296 33.6808 53.9455 33.6808C54.4615 33.6808 54.8804 33.262 54.8804 32.746V29.1262C54.881 28.6103 54.4615 28.1914 53.9455 28.1914Z" fill="#545863"/>
<path d="M45.3208 28.1914C44.8049 28.1914 44.386 28.6103 44.386 29.1262V32.746C44.386 33.2619 44.8049 33.6808 45.3208 33.6808C45.8368 33.6808 46.2557 33.262 46.2557 32.746V29.1262C46.2557 28.6103 45.8368 28.1914 45.3208 28.1914Z" fill="#545863"/>
<path d="M32.1804 37.3252C31.6645 37.3252 31.2456 37.7441 31.2456 38.26V41.8798C31.2456 42.3957 31.6645 42.8146 32.1804 42.8146C32.6964 42.8146 33.1153 42.3958 33.1153 41.8798L33.1159 38.26C33.108 37.7441 32.6964 37.3252 32.1804 37.3252Z" fill="#545863"/>
<path d="M23.5081 37.3252C22.9921 37.3252 22.5732 37.7441 22.5732 38.26V41.8798C22.5732 42.3957 22.9921 42.8146 23.5081 42.8146C24.024 42.8146 24.4429 42.3958 24.4429 41.8798L24.4436 38.26C24.4436 37.7441 24.0241 37.3252 23.5081 37.3252H23.5081Z" fill="#545863"/>
<path d="M14.834 37.3252C14.3181 37.3252 13.8992 37.7441 13.8992 38.26V41.8798C13.8992 42.3957 14.318 42.8146 14.834 42.8146C15.35 42.8146 15.7689 42.3958 15.7689 41.8798L15.7695 38.26C15.7695 37.7441 15.35 37.3252 14.834 37.3252H14.834Z" fill="#545863"/>
<path d="M32.1804 46.554C31.6645 46.554 31.2456 46.9728 31.2456 47.4888V51.1086C31.2456 51.6245 31.6645 52.0434 32.1804 52.0434C32.6964 52.0434 33.1153 51.6245 33.1153 51.1086V47.4888C33.108 46.9649 32.6964 46.554 32.1804 46.554Z" fill="#545863"/>
<path d="M23.5081 46.554C22.9921 46.554 22.5732 46.9728 22.5732 47.4888V51.1086C22.5732 51.6245 22.9921 52.0434 23.5081 52.0434C24.0241 52.0434 24.4429 51.6245 24.4429 51.1086V47.4888C24.4436 46.9649 24.0241 46.554 23.5081 46.554Z" fill="#545863"/>
<path d="M14.834 46.554C14.3181 46.554 13.8992 46.9728 13.8992 47.4888V51.1086C13.8992 51.6245 14.318 52.0434 14.834 52.0434C15.35 52.0434 15.7688 51.6245 15.7688 51.1086V47.4888C15.7695 46.9649 15.35 46.554 14.834 46.554Z" fill="#545863"/>
<path d="M32.1804 55.7761C31.6645 55.7761 31.2456 56.195 31.2456 56.711V60.3307C31.2456 60.8466 31.6645 61.2655 32.1804 61.2655C32.6964 61.2655 33.1153 60.8467 33.1153 60.3307V56.711C33.108 56.195 32.6964 55.7761 32.1804 55.7761Z" fill="#545863"/>
<path d="M23.5081 55.7761C22.9921 55.7761 22.5732 56.195 22.5732 56.711V60.3307C22.5732 60.8466 22.9921 61.2655 23.5081 61.2655C24.0241 61.2655 24.4429 60.8467 24.4429 60.3307V56.711C24.4436 56.195 24.0241 55.7761 23.5081 55.7761Z" fill="#545863"/>
<path d="M14.834 55.7761C14.3181 55.7761 13.8992 56.195 13.8992 56.711V60.3307C13.8992 60.8466 14.318 61.2655 14.834 61.2655C15.35 61.2655 15.7688 60.8467 15.7688 60.3307V56.711C15.7695 56.195 15.35 55.7761 14.834 55.7761Z" fill="#545863"/>
<path d="M32.1804 64.9983C31.6645 64.9983 31.2456 65.4172 31.2456 65.9331V69.5529C31.2456 70.0688 31.6645 70.4877 32.1804 70.4877C32.6964 70.4877 33.1153 70.0689 33.1153 69.5529V65.9331C33.108 65.4172 32.6964 64.9983 32.1804 64.9983Z" fill="#545863"/>
<path d="M23.5081 64.9983C22.9921 64.9983 22.5732 65.4172 22.5732 65.9331V69.5529C22.5732 70.0688 22.9921 70.4877 23.5081 70.4877C24.0241 70.4877 24.4429 70.0689 24.4429 69.5529V65.9331C24.4436 65.4172 24.0241 64.9983 23.5081 64.9983Z" fill="#545863"/>
<path d="M14.834 64.9983C14.3181 64.9983 13.8992 65.4172 13.8992 65.9331V69.5529C13.8992 70.0688 14.318 70.4877 14.834 70.4877C15.35 70.4877 15.7688 70.0689 15.7688 69.5529V65.9331C15.7695 65.4172 15.35 64.9983 14.834 64.9983Z" fill="#545863"/>
<path d="M32.4153 28.1914C31.8994 28.1914 31.4805 28.6103 31.4805 29.1262V32.746C31.4805 33.2619 31.8993 33.6808 32.4153 33.6808C32.9313 33.6808 33.3501 33.262 33.3501 32.746V29.1262C33.3422 28.6103 32.9233 28.1914 32.4153 28.1914Z" fill="#545863"/>
<path d="M23.7413 28.1914C23.2254 28.1914 22.8065 28.6103 22.8065 29.1262V32.746C22.8065 33.2619 23.2253 33.6808 23.7413 33.6808C24.2573 33.6808 24.6761 33.262 24.6761 32.746V29.1262C24.6682 28.6103 24.2573 28.1914 23.7413 28.1914Z" fill="#545863"/>
<path d="M15.0672 28.1914C14.5513 28.1914 14.1324 28.6103 14.1324 29.1262V32.746C14.1324 33.2619 14.5513 33.6808 15.0672 33.6808C15.5832 33.6808 16.0021 33.262 16.0021 32.746V29.1262C16.0021 28.6103 15.5832 28.1914 15.0672 28.1914Z" fill="#545863"/>
</svg>
