<svg width="82" height="68" viewBox="0 0 82 68" fill="none" xmlns="http://www.w3.org/2000/svg">
<path d="M80.4264 66.3011H77.7421V30.793H80.4264C80.8539 30.793 81.2003 30.4466 81.2003 30.0191V25.5377C81.2003 25.1102 80.8539 24.7638 80.4264 24.7638H57.114V22.0875H59.4439C59.8714 22.0875 60.2178 21.7411 60.2178 21.3136L60.2172 16.8316C60.2172 16.404 59.8708 16.0576 59.4432 16.0576H22.8951C22.4676 16.0576 22.1212 16.404 22.1212 16.8316V21.3136C22.1212 21.7411 22.4676 22.0875 22.8951 22.0875H25.225V24.7638H1.92118C1.49365 24.7638 1.14724 25.1102 1.14724 25.5377V30.0198C1.14724 30.4473 1.49365 30.7937 1.92118 30.7937H4.60543V66.3103L1.57411 66.3097C1.14659 66.3097 0.800171 66.6561 0.800171 67.0836C0.800171 67.5111 1.14659 67.8575 1.57411 67.8575H80.4184C80.8459 67.8575 81.1923 67.5111 81.1923 67.0836C81.2003 66.6561 80.8539 66.3017 80.4264 66.3017V66.3011ZM45.5957 66.2852H36.7447V58.877H45.5957V66.2852ZM57.1389 66.2852V30.8247H76.1942V66.2852H57.1389ZM57.1389 26.3107H79.6529V29.2368H57.1389V26.3107ZM23.6699 17.6052H58.6623V20.5313H56.3491H56.3331H25.9995H25.9835H23.6697L23.6699 17.6052ZM55.5593 22.0872V66.2847H47.1438V58.1025C47.1438 57.675 46.7974 57.3286 46.3699 57.3286H35.9709C35.5434 57.3286 35.1969 57.675 35.1969 58.1025V66.2847H26.7815V22.0872H55.5593ZM2.69631 26.3105H25.2104V29.2367H2.69631V26.3105ZM25.2104 30.8251V66.2855H6.15503V30.8251H25.2104Z" fill="#545863"/>
<path d="M30.5285 55.1957H35.0591C35.4866 55.1957 35.833 54.8493 35.833 54.4217V41.5201C35.833 41.0926 35.4866 40.7462 35.0591 40.7462H30.5285C30.101 40.7462 29.7546 41.0926 29.7546 41.5201V54.4217C29.7466 54.8493 30.093 55.1957 30.5285 55.1957ZM31.3024 42.2948H34.2773V53.6404H31.3024V42.2948Z" fill="#545863"/>
<path d="M38.9047 55.1957H43.4352C43.8628 55.1957 44.2092 54.8493 44.2092 54.4217V41.5201C44.2092 41.0926 43.8628 40.7462 43.4352 40.7462L38.9047 40.7469C38.4772 40.7469 38.1307 41.0933 38.1307 41.5208V54.4224C38.1307 54.8493 38.4778 55.1957 38.9047 55.1957ZM39.6786 42.2948H42.6534V53.6404H39.6786V42.2948Z" fill="#545863"/>
<path d="M47.2792 55.1957H51.8097C52.2372 55.1957 52.5836 54.8493 52.5836 54.4217V41.5201C52.5836 41.0926 52.2372 40.7462 51.8097 40.7462H47.2792C46.8516 40.7462 46.5052 41.0926 46.5052 41.5201V54.4217C46.5052 54.8493 46.8516 55.1957 47.2792 55.1957ZM48.0611 42.2948H51.0359V53.6404H48.0611V42.2948Z" fill="#545863"/>
<path d="M30.5285 38.4944H35.0591C35.4866 38.4944 35.833 38.148 35.833 37.7205V24.8189C35.833 24.3913 35.4866 24.0449 35.0591 24.0449H30.5285C30.101 24.0449 29.7546 24.3913 29.7546 24.8189V37.7205C29.7466 38.148 30.093 38.4944 30.5285 38.4944ZM31.3024 25.5928H34.2773V36.9385H31.3024V25.5928Z" fill="#545863"/>
<path d="M38.9047 38.4944H43.4352C43.8628 38.4944 44.2092 38.148 44.2092 37.7205V24.8189C44.2092 24.3913 43.8628 24.0449 43.4352 24.0449L38.9047 24.0456C38.4772 24.0456 38.1307 24.392 38.1307 24.8195V37.7211C38.1307 38.148 38.4778 38.4944 38.9047 38.4944ZM39.6786 25.5928H42.6534V36.9385H39.6786V25.5928Z" fill="#545863"/>
<path d="M47.2792 38.4944H51.8097C52.2372 38.4944 52.5836 38.148 52.5836 37.7205V24.8189C52.5836 24.3913 52.2372 24.0449 51.8097 24.0449H47.2792C46.8516 24.0449 46.5052 24.3913 46.5052 24.8189V37.7205C46.5052 38.148 46.8516 38.4944 47.2792 38.4944ZM48.0611 25.5928H51.0359V36.9385H48.0611V25.5928Z" fill="#545863"/>
<path d="M64.7481 49.091H60.2175C59.79 49.091 59.4436 49.4374 59.4436 49.865V62.7666C59.4436 63.1941 59.79 63.5405 60.2175 63.5405H64.7481C65.1756 63.5405 65.522 63.1941 65.522 62.7666V49.865C65.53 49.4374 65.1829 49.091 64.7481 49.091ZM63.9741 61.9926H60.9993V50.6469H63.9741V61.9926Z" fill="#545863"/>
<path d="M73.1311 49.091H68.6005C68.173 49.091 67.8266 49.4374 67.8266 49.865V62.7666C67.8266 63.1941 68.173 63.5405 68.6005 63.5405H73.1311C73.5586 63.5405 73.905 63.1941 73.905 62.7666V49.865C73.905 49.4374 73.5586 49.091 73.1311 49.091ZM72.3571 61.9926H69.375V50.6469H72.3498L72.3491 61.9926H72.3571Z" fill="#545863"/>
<path d="M64.7481 32.3965H60.2175C59.79 32.3965 59.4436 32.743 59.4436 33.1705V46.0721C59.4436 46.4996 59.79 46.846 60.2175 46.846H64.7481C65.1756 46.846 65.522 46.4996 65.522 46.0721V33.1705C65.53 32.743 65.1829 32.3965 64.7481 32.3965ZM63.9741 45.2895H60.9993V33.9438H63.9741V45.2895Z" fill="#545863"/>
<path d="M73.1311 32.3965H68.6005C68.173 32.3965 67.8266 32.743 67.8266 33.1705V46.0721C67.8266 46.4996 68.173 46.846 68.6005 46.846H73.1311C73.5586 46.846 73.905 46.4996 73.905 46.0721V33.1705C73.905 32.743 73.5586 32.3965 73.1311 32.3965ZM72.3571 45.2895H69.375V33.9438H72.3498L72.3491 45.2895H72.3571Z" fill="#545863"/>
<path d="M17.5906 63.548H22.1212C22.5487 63.548 22.8951 63.2016 22.8951 62.7741V49.8725C22.8951 49.445 22.5487 49.0985 22.1212 49.0985H17.5906C17.1631 49.0985 16.8167 49.445 16.8167 49.8725V62.7741C16.8167 63.1929 17.1638 63.548 17.5906 63.548ZM18.3646 50.6464H21.3394V61.9921H18.3646V50.6464Z" fill="#545863"/>
<path d="M9.20766 63.548H13.7382C14.1657 63.548 14.5122 63.2016 14.5122 62.7741V49.8725C14.5122 49.445 14.1657 49.0985 13.7382 49.0985H9.20766C8.78013 49.0985 8.43372 49.445 8.43372 49.8725V62.7741C8.43372 63.1929 8.78013 63.548 9.20766 63.548ZM9.98958 50.6464H12.9644V61.9921H9.98958V50.6464Z" fill="#545863"/>
<path d="M17.5906 46.8451H22.1212C22.5487 46.8451 22.8951 46.4986 22.8951 46.0711V33.1695C22.8951 32.742 22.5487 32.3956 22.1212 32.3956H17.5906C17.1631 32.3956 16.8167 32.742 16.8167 33.1695V46.0711C16.8167 46.4986 17.1638 46.8451 17.5906 46.8451ZM18.3646 33.9434H21.3394V45.2891H18.3646V33.9434Z" fill="#545863"/>
<path d="M9.20766 46.8451H13.7382C14.1657 46.8451 14.5122 46.4986 14.5122 46.0711V33.1695C14.5122 32.742 14.1657 32.3956 13.7382 32.3956H9.20766C8.78013 32.3956 8.43372 32.742 8.43372 33.1695V46.0711C8.43372 46.4986 8.78013 46.8451 9.20766 46.8451ZM9.98958 33.9434H12.9644V45.2891H9.98958V33.9434Z" fill="#545863"/>
<path d="M36.777 9.80095L36.0111 14.283C35.9625 14.5729 36.0835 14.8714 36.3176 15.041C36.4546 15.1374 36.6161 15.1859 36.777 15.1859C36.898 15.1859 37.027 15.154 37.1401 15.0975L41.1627 12.9858L45.1853 15.0975C45.4433 15.2345 45.7658 15.2105 45.9992 15.041C46.2412 14.8634 46.3536 14.5735 46.3057 14.283L45.5397 9.80095L48.7964 6.62478C49.0059 6.41533 49.0863 6.10883 48.9899 5.8269C48.9015 5.545 48.6594 5.34353 48.3609 5.29499L43.8629 4.64207L41.8475 0.562918C41.7179 0.313591 41.4519 0.144043 41.1541 0.144043C40.8555 0.144043 40.5896 0.313589 40.4606 0.579549L38.4453 4.6587L33.9472 5.31162C33.6573 5.35218 33.4153 5.56163 33.3182 5.84353C33.2298 6.12544 33.3023 6.43196 33.5117 6.64141L36.777 9.80095ZM39.0742 6.13337C39.3242 6.09282 39.5416 5.93989 39.6547 5.70585L41.154 2.67453L42.6534 5.70585C42.7664 5.93125 42.9838 6.09281 43.2338 6.13337L46.5788 6.61674L44.1606 8.97845C43.9751 9.15598 43.8947 9.41395 43.9352 9.66395L44.5077 12.9931L41.5171 11.4213C41.404 11.3648 41.283 11.3329 41.154 11.3329C41.033 11.3329 40.904 11.3648 40.791 11.4213L37.8004 12.9931L38.3728 9.66395C38.4134 9.41394 38.3323 9.15596 38.1474 8.97845L35.7292 6.61674L39.0742 6.13337Z" fill="#545863"/>
</svg>
