<svg width="100" height="41" viewBox="0 0 100 41" fill="none" xmlns="http://www.w3.org/2000/svg">
<path d="M95.8604 38.552C94.1989 39.0155 93.3824 38.3633 92.164 37.379C91.6192 36.9442 91.0319 36.4664 90.3017 36.0758C99.5567 30.4998 99.4986 24.2725 99.4844 23.9979C99.4702 23.3755 98.9538 22.8822 98.3381 22.8977L87.3781 23.1295L78.6679 14.5851C78.4529 14.3677 78.1669 14.2662 77.8656 14.2662L66.175 14.5122C66.1183 14.425 66.0462 14.339 65.96 14.2662L56.5479 6.04077C56.347 5.86756 56.0894 5.76602 55.8176 5.76602L32.2795 5.8365L26.7209 0.318949C26.5058 0.11588 26.234 0 25.9327 0H19.8292C19.457 0 19.0989 0.188743 18.8981 0.506472C18.6972 0.825421 18.6546 1.23036 18.8118 1.57797L25.1585 16.4368L18.9404 28.7896H12.4221C11.9778 28.7896 11.5631 29.0643 11.3905 29.4848L7.98121 37.6386C7.89495 37.856 7.86659 38.0878 7.90913 38.3052C7.2214 38.0448 6.69083 37.6386 6.08934 37.1752C4.9431 36.2912 3.6397 35.2926 1.11787 35.2926C0.502198 35.2926 0 35.799 0 36.4226C0 37.045 0.501019 37.5526 1.11787 37.5526C2.89394 37.5526 3.71049 38.175 4.74196 38.9717C5.88821 39.8557 7.1916 40.8543 9.71343 40.8543C12.2351 40.8543 13.5387 39.8545 14.6849 38.9717C15.7165 38.175 16.5331 37.5526 18.309 37.5526C20.0851 37.5526 20.9016 38.175 21.9331 38.9717C23.0793 39.8557 24.3827 40.8543 26.9045 40.8543C29.4262 40.8543 30.7298 39.8545 31.876 38.9717C32.9076 38.175 33.7242 37.5526 35.5001 37.5526C37.276 37.5526 38.0927 38.175 39.1242 38.9717C40.2704 39.8557 41.5738 40.8543 44.0957 40.8543C46.6174 40.8543 47.9209 39.8545 49.0671 38.9717C50.0988 38.175 50.9153 37.5526 52.6912 37.5526C54.4673 37.5526 55.2838 38.175 56.3153 38.9717C57.4616 39.8557 58.765 40.8543 61.2868 40.8543C63.8085 40.8543 65.112 39.8545 66.2583 38.9717C67.2899 38.175 68.1064 37.5526 69.8823 37.5526C71.6583 37.5526 72.475 38.175 73.5064 38.9717C74.6527 39.8557 75.9561 40.8543 78.4779 40.8543C80.9996 40.8543 82.3032 39.8545 83.4494 38.9717C84.3664 38.2622 85.125 37.6828 86.5302 37.5669C86.8821 37.5379 87.5334 37.5813 87.5334 37.5813C87.5476 37.5813 87.5476 37.5669 87.5618 37.5669C88.8947 37.6971 89.7538 38.3924 90.7275 39.1748C91.8017 40.0432 92.9917 41 94.796 41C95.2829 41 95.8276 40.9272 96.4291 40.754C97.0164 40.5808 97.3744 39.9572 97.2031 39.3635C97.0778 38.74 96.463 38.3919 95.8604 38.552ZM25.4901 2.24441L31.0488 7.76196C31.2639 7.96503 31.5357 8.08091 31.837 8.08091L55.4187 8.00804L57.3094 9.65887H53.2551C52.6394 9.65887 52.1372 10.1653 52.1372 10.7889C52.1372 11.4113 52.6382 11.9189 53.2551 11.9189H59.7449C59.7874 11.9189 59.8453 11.9189 59.8879 11.9046L62.9248 14.5553L27.1225 15.3066L21.5355 2.24314L25.4901 2.24441ZM27.0949 17.5665L77.4661 16.538L84.2571 23.1999L31.6655 24.3299C31.35 24.3299 31.0499 24.4744 30.8348 24.7348L27.4397 28.776H21.4651L27.0949 17.5665ZM82.152 37.146C81.1203 37.9427 80.3038 38.5651 78.5279 38.5651C76.7519 38.5651 75.9353 37.9427 74.9038 37.146C73.7575 36.262 72.4541 35.2634 69.9323 35.2634C67.4106 35.2634 66.1071 36.2632 64.9608 37.146C63.9292 37.9427 63.1127 38.5651 61.3368 38.5651C59.5607 38.5651 58.7441 37.9427 57.7127 37.146C56.5664 36.262 55.263 35.2634 52.7412 35.2634C50.2195 35.2634 48.9159 36.2632 47.7697 37.146C46.7381 37.9427 45.9216 38.5651 44.1456 38.5651C42.3697 38.5651 41.553 37.9427 40.5215 37.146C39.3753 36.262 38.0719 35.2634 35.5501 35.2634C33.0284 35.2634 31.7248 36.2632 30.5786 37.146C29.547 37.9427 28.7304 38.5651 26.9545 38.5651C25.1784 38.5651 24.3619 37.9427 23.3304 37.146C22.1842 36.262 20.8808 35.2634 18.359 35.2634C15.8373 35.2634 14.5337 36.2632 13.3875 37.146C12.4138 37.8985 11.6256 38.5077 10.0351 38.5651C10.0492 38.5364 10.0634 38.5077 10.0776 38.4779L13.2007 31.0191H27.9717C28.3014 31.0191 28.6169 30.8746 28.8167 30.6142L32.2118 26.5586L86.9542 25.3856H86.9967L97.0967 25.1682C96.9254 25.8204 96.6098 26.7175 95.993 27.746C94.8326 29.7158 92.3547 32.5825 87.1539 35.2476C84.6027 35.2631 83.2993 36.2617 82.1531 37.1457L82.152 37.146Z" fill="#545863"/>
<path d="M30.1157 21.302H33.525C34.1407 21.302 34.6429 20.7955 34.6429 20.172C34.6429 19.5496 34.1418 19.042 33.525 19.042H30.1157C29.5 19.042 28.9978 19.5484 28.9978 20.172C28.9978 20.7955 29.4988 21.302 30.1157 21.302Z" fill="#545863"/>
<path d="M38.1806 21.3752H38.2231L41.6324 21.2306C42.2481 21.202 42.7208 20.6799 42.6924 20.0576C42.664 19.4353 42.1476 18.9574 41.532 18.9861L38.1227 19.1306C37.507 19.1593 37.0344 19.6813 37.0627 20.3037C37.0923 20.9117 37.5933 21.3752 38.1806 21.3752Z" fill="#545863"/>
<path d="M46.2485 20.9259H46.291L49.7003 20.7814C50.316 20.7527 50.7886 20.2307 50.7603 19.6084C50.7319 18.986 50.2155 18.5082 49.5999 18.5369L46.1906 18.6814C45.5749 18.7101 45.1022 19.2321 45.1306 19.8544C45.1601 20.4625 45.6612 20.9259 46.2485 20.9259H46.2485Z" fill="#545863"/>
<path d="M54.3134 20.635H57.7228C58.3384 20.635 58.8407 20.1286 58.8407 19.505C58.8407 18.8827 58.3396 18.375 57.7228 18.375H54.3134C53.6978 18.375 53.1956 18.8815 53.1956 19.505C53.1956 20.1274 53.6966 20.635 54.3134 20.635Z" fill="#545863"/>
<path d="M62.3784 20.635H65.7877C66.4034 20.635 66.9056 20.1286 66.9056 19.505C66.9056 18.8827 66.4046 18.375 65.7877 18.375H62.3784C61.7627 18.375 61.2605 18.8815 61.2605 19.505C61.2617 20.1274 61.7627 20.635 62.3784 20.635Z" fill="#545863"/>
<path d="M70.4465 20.635H73.8558C74.4715 20.635 74.9737 20.1286 74.9737 19.505C74.9737 18.8827 74.4726 18.375 73.8558 18.375H70.4465C69.8308 18.375 69.3286 18.8815 69.3286 19.505C69.3428 20.1274 69.8308 20.635 70.4465 20.635Z" fill="#545863"/>
<path d="M44.0705 11.9322H49.1425C49.7581 11.9322 50.2603 11.4257 50.2603 10.8021C50.2603 10.1798 49.7593 9.67212 49.1425 9.67212H44.0705C43.4548 9.67212 42.9526 10.1786 42.9526 10.8021C42.9538 11.4257 43.4549 11.9322 44.0705 11.9322Z" fill="#545863"/>
<path d="M86.277 26.5737H84.7302C84.1145 26.5737 83.6123 27.0802 83.6123 27.7038C83.6123 28.3261 84.1133 28.8338 84.7302 28.8338H86.277C86.8926 28.8338 87.3948 28.3273 87.3948 27.7038C87.3936 27.0814 86.8926 26.5737 86.277 26.5737Z" fill="#545863"/>
<path d="M79.1405 26.5737H77.5937C76.978 26.5737 76.4758 27.0802 76.4758 27.7038C76.4758 28.3261 76.9768 28.8338 77.5937 28.8338H79.1405C79.7562 28.8338 80.2584 28.3273 80.2584 27.7038C80.2584 27.0814 79.7562 26.5737 79.1405 26.5737Z" fill="#545863"/>
</svg>
