<svg width="82" height="66" viewBox="0 0 82 66" fill="none" xmlns="http://www.w3.org/2000/svg">
<path d="M80.3855 63.5022H69.809V57.5207C74.3715 57.0453 77.9426 53.1757 77.9426 48.4841C77.9426 44.0746 74.3228 33.1842 68.8582 33.1842C66.4965 33.1842 64.1508 35.3205 62.2565 39.1975C60.7731 42.2446 59.7737 45.9767 59.7737 48.4834C59.7737 53.1908 63.3688 57.0686 67.9639 57.52V63.5015L55.928 63.5021V31.3472L58.0803 33.2095C58.2498 33.3545 58.4593 33.4349 58.6847 33.4349H58.7492C58.9912 33.419 59.2166 33.306 59.3782 33.1204L63.7232 28.0905C64.0536 27.7035 64.0131 27.1231 63.6268 26.7926L55.8315 20.0539L55.9685 7.31789C55.9685 7.06788 55.8721 6.83452 55.7026 6.65698C55.533 6.47945 55.2916 6.38305 55.0496 6.38305H55.0417L48.3994 6.41496C47.8994 6.41496 47.4965 6.81789 47.4806 7.31789L47.3596 12.7267L33.6721 0.885035C33.3257 0.586499 32.8177 0.586499 32.4713 0.885035L2.50872 26.7931C2.32322 26.954 2.21018 27.1801 2.19422 27.4221C2.17825 27.6641 2.25871 27.9055 2.41961 28.091L6.76463 33.121C6.92554 33.3064 7.15159 33.4195 7.39362 33.4355C7.63564 33.4514 7.87699 33.371 8.0625 33.2101L10.2068 31.3563V63.5026L1.61382 63.502C1.10584 63.502 0.694946 63.9136 0.694946 64.4209C0.694946 64.9288 1.10586 65.3397 1.61382 65.3397H80.3849C80.8929 65.3397 81.3038 64.9288 81.3038 64.4209C81.3044 63.9135 80.8929 63.502 80.3856 63.502L80.3855 63.5022ZM61.6195 48.4848C61.6195 44.2766 65.1182 35.0227 68.8582 35.0227C70.4539 35.0227 72.2597 36.8365 73.7996 40.0041C75.154 42.7774 76.0968 46.2674 76.0968 48.4841C76.0968 52.4741 72.8481 55.7228 68.8582 55.7228C64.8682 55.7234 61.6195 52.4748 61.6195 48.4848ZM7.55485 31.2184L4.41119 27.5828L33.0682 2.79646L47.634 15.3956C47.9 15.6296 48.2869 15.6855 48.6094 15.5406C48.9319 15.3956 49.1493 15.0731 49.1573 14.7181L49.3022 8.2534L54.1147 8.22947L53.9857 20.4582C53.9857 20.7322 54.0987 20.9901 54.3002 21.1677L61.7243 27.5838L58.5807 31.2194L33.6717 9.66368C33.3253 9.36514 32.8174 9.36514 32.4709 9.66368L7.55485 31.2184ZM17.0268 63.5027V39.4329H26.2163V63.4942H17.0268V63.5027ZM28.0621 63.5027V38.5137C28.0621 38.0057 27.6512 37.5949 27.1432 37.5949H16.1073C15.5993 37.5949 15.1884 38.0058 15.1884 38.5137V63.4942H12.0528V29.7597L33.0757 11.5742L54.0902 29.7512V63.4942L28.0613 63.4935L28.0621 63.5027Z" fill="#545863"/>
<path d="M48.8757 37.6997H33.1004C32.5924 37.6997 32.1815 38.1106 32.1815 38.6186V51.9032C32.1815 52.4112 32.5924 52.8221 33.1004 52.8221H48.8757C49.3837 52.8221 49.7946 52.4111 49.7946 51.9032V38.6193C49.7946 38.1113 49.3837 37.6997 48.8757 37.6997V37.6997ZM34.0194 39.5382H40.0653V50.985H34.0194V39.5382ZM47.9569 50.9843H41.9109V39.5375H47.9569V50.9843Z" fill="#545863"/>
<path d="M37.349 21.2468C37.349 18.8851 35.4307 16.9663 33.0685 16.9663C30.7068 16.9663 28.788 18.8846 28.788 21.2468C28.788 23.6085 30.7063 25.5273 33.0685 25.5273C35.4309 25.5273 37.349 23.6085 37.349 21.2468ZM30.6343 21.2468C30.6343 19.9004 31.7307 18.8126 33.0685 18.8126C34.4149 18.8126 35.5027 19.909 35.5027 21.2468C35.5027 22.5932 34.4063 23.681 33.0685 23.681C31.7307 23.681 30.6343 22.5933 30.6343 21.2468Z" fill="#545863"/>
</svg>
