<svg width="82" height="70" viewBox="0 0 82 70" fill="none" xmlns="http://www.w3.org/2000/svg">
<path d="M80.4978 67.8817H74.3875L74.3882 21.3864C74.3882 21.0798 74.2273 20.79 73.9693 20.6284L41.3787 0.476899C41.0888 0.299367 40.7257 0.299367 40.4438 0.476899L7.85317 20.6284C7.58722 20.7893 7.4343 21.0798 7.4343 21.3864V67.8817L1.50017 67.8823C1.00815 67.8823 0.605225 68.2853 0.605225 68.7773C0.605889 69.2686 1.00882 69.6636 1.50017 69.6636H80.4976C80.9897 69.6636 81.3926 69.2607 81.3926 68.7686C81.3926 68.2773 80.9897 67.8823 80.4976 67.8823L80.4978 67.8817ZM64.2471 41.6996V44.2628H17.5747V41.6996H64.2471ZM17.5662 39.9103V37.347H64.2386V39.9103H17.5662ZM64.2471 46.0446V48.6078H17.5747V46.0446H64.2471ZM64.2471 50.3976V52.9608H17.5747V50.3976H64.2471ZM64.2471 54.7419V57.3052H17.5747V54.7419H64.2471ZM64.2471 35.5658H17.5747V33.0025H64.2471V35.5658ZM17.5662 59.096H64.2386V61.6592H17.5662V59.096ZM64.2471 31.2134H17.5747V27.6344H64.2471V31.2134ZM17.5662 63.45H64.2386V67.8835H17.5662V63.45ZM66.0275 67.8835V26.7482C66.0275 26.2562 65.6246 25.8533 65.1326 25.8533H16.6781C16.1861 25.8533 15.7831 26.2562 15.7831 26.7482V67.8835H9.20528L9.20594 21.887L40.9013 2.28185L72.5966 21.887V67.8835H66.0275Z" fill="#545863"/>
</svg>
