<svg width="44" height="40" viewBox="0 0 44 40" fill="none" xmlns="http://www.w3.org/2000/svg">
<path d="M22.0001 20C20.8134 20 19.6534 20.3519 18.6667 21.0112C17.68 21.6705 16.911 22.6075 16.4568 23.7039C16.0027 24.8003 15.8839 26.0067 16.1154 27.1705C16.3469 28.3344 16.9184 29.4035 17.7575 30.2426C18.5966 31.0818 19.6657 31.6532 20.8296 31.8847C21.9935 32.1162 23.1999 31.9974 24.2962 31.5433C25.3926 31.0892 26.3297 30.3201 26.9889 29.3334C27.6482 28.3467 28.0001 27.1867 28.0001 26C28.0001 24.4087 27.368 22.8826 26.2428 21.7574C25.1175 20.6321 23.5914 20 22.0001 20ZM22.0001 28C21.6046 28 21.2179 27.8827 20.889 27.6629C20.5601 27.4432 20.3037 27.1308 20.1524 26.7654C20.001 26.3999 19.9614 25.9978 20.0386 25.6098C20.1157 25.2219 20.3062 24.8655 20.5859 24.5858C20.8656 24.3061 21.222 24.1156 21.6099 24.0384C21.9979 23.9613 22.4 24.0009 22.7655 24.1522C23.1309 24.3036 23.4433 24.56 23.6631 24.8889C23.8828 25.2178 24.0001 25.6044 24.0001 26C24.0001 26.5304 23.7894 27.0391 23.4143 27.4142C23.0393 27.7893 22.5306 28 22.0001 28ZM20.5801 15.42C20.7703 15.6021 20.9946 15.7448 21.2401 15.84C21.4795 15.9458 21.7384 16.0005 22.0001 16.0005C22.2619 16.0005 22.5207 15.9458 22.7601 15.84C23.0056 15.7448 23.2299 15.6021 23.4201 15.42L28.0001 10.92C28.3873 10.5328 28.6049 10.0076 28.6049 9.46C28.6049 8.91239 28.3873 8.38722 28.0001 8C27.6129 7.61278 27.0877 7.39525 26.5401 7.39525C25.9925 7.39525 25.4673 7.61278 25.0801 8L24.0001 9.18V2C24.0001 1.46957 23.7894 0.960859 23.4143 0.585786C23.0393 0.210714 22.5306 0 22.0001 0C21.4697 0 20.961 0.210714 20.5859 0.585786C20.2108 0.960859 20.0001 1.46957 20.0001 2V9.18L18.9201 8C18.5329 7.61278 18.0077 7.39525 17.4601 7.39525C16.9125 7.39525 16.3873 7.61278 16.0001 8C15.6129 8.38722 15.3954 8.91239 15.3954 9.46C15.3954 10.0076 15.6129 10.5328 16.0001 10.92L20.5801 15.42ZM36.0001 26C36.0001 25.6044 35.8828 25.2178 35.6631 24.8889C35.4433 24.56 35.1309 24.3036 34.7655 24.1522C34.4 24.0009 33.9979 23.9613 33.6099 24.0384C33.222 24.1156 32.8656 24.3061 32.5859 24.5858C32.3062 24.8655 32.1157 25.2219 32.0386 25.6098C31.9614 25.9978 32.001 26.3999 32.1524 26.7654C32.3037 27.1308 32.5601 27.4432 32.889 27.6629C33.2179 27.8827 33.6046 28 34.0001 28C34.5306 28 35.0393 27.7893 35.4143 27.4142C35.7894 27.0391 36.0001 26.5304 36.0001 26ZM38.0001 12H32.0001C31.4697 12 30.961 12.2107 30.5859 12.5858C30.2108 12.9609 30.0001 13.4696 30.0001 14C30.0001 14.5304 30.2108 15.0391 30.5859 15.4142C30.961 15.7893 31.4697 16 32.0001 16H38.0001C38.5306 16 39.0393 16.2107 39.4143 16.5858C39.7894 16.9609 40.0001 17.4696 40.0001 18V34C40.0001 34.5304 39.7894 35.0391 39.4143 35.4142C39.0393 35.7893 38.5306 36 38.0001 36H6.00012C5.46969 36 4.96098 35.7893 4.58591 35.4142C4.21084 35.0391 4.00012 34.5304 4.00012 34V18C4.00012 17.4696 4.21084 16.9609 4.58591 16.5858C4.96098 16.2107 5.46969 16 6.00012 16H12.0001C12.5306 16 13.0393 15.7893 13.4143 15.4142C13.7894 15.0391 14.0001 14.5304 14.0001 14C14.0001 13.4696 13.7894 12.9609 13.4143 12.5858C13.0393 12.2107 12.5306 12 12.0001 12H6.00012C4.40882 12 2.8827 12.6321 1.75748 13.7574C0.632263 14.8826 0.00012207 16.4087 0.00012207 18V34C0.00012207 35.5913 0.632263 37.1174 1.75748 38.2426C2.8827 39.3679 4.40882 40 6.00012 40H38.0001C39.5914 40 41.1175 39.3679 42.2428 38.2426C43.368 37.1174 44.0001 35.5913 44.0001 34V18C44.0001 16.4087 43.368 14.8826 42.2428 13.7574C41.1175 12.6321 39.5914 12 38.0001 12ZM8.00012 26C8.00012 26.3956 8.11742 26.7822 8.33718 27.1111C8.55695 27.44 8.8693 27.6964 9.23476 27.8478C9.60021 27.9991 10.0023 28.0387 10.3903 27.9616C10.7783 27.8844 11.1346 27.6939 11.4143 27.4142C11.694 27.1345 11.8845 26.7781 11.9617 26.3902C12.0389 26.0022 11.9993 25.6001 11.8479 25.2346C11.6965 24.8692 11.4402 24.5568 11.1113 24.3371C10.7824 24.1173 10.3957 24 10.0001 24C9.46969 24 8.96098 24.2107 8.58591 24.5858C8.21084 24.9609 8.00012 25.4696 8.00012 26Z" fill="#FBE6ED"/>
</svg>
