<svg width="34" height="42" viewBox="0 0 34 42" fill="none" xmlns="http://www.w3.org/2000/svg">
<path d="M21.9801 18.7201C22.6499 17.798 23.0517 16.7087 23.1411 15.5725C23.2305 14.4363 23.0039 13.2976 22.4864 12.2821C21.969 11.2667 21.1808 10.4141 20.2091 9.81862C19.2373 9.22315 18.1198 8.908 16.9801 8.908C15.8404 8.908 14.7229 9.22315 13.7512 9.81862C12.7794 10.4141 11.9913 11.2667 11.4738 12.2821C10.9564 13.2976 10.7298 14.4363 10.8192 15.5725C10.9085 16.7087 11.3103 17.798 11.9801 18.7201C11.1305 19.2616 10.374 19.937 9.74013 20.7201C9.57466 20.9342 9.45298 21.1787 9.38202 21.4398C9.31107 21.7009 9.29223 21.9734 9.32659 22.2418C9.36095 22.5101 9.44783 22.7691 9.58227 23.0039C9.71671 23.2387 9.89607 23.4447 10.1101 23.6101C10.3242 23.7756 10.5687 23.8973 10.8298 23.9682C11.0909 24.0392 11.3634 24.058 11.6318 24.0237C11.9001 23.9893 12.1591 23.9024 12.3939 23.768C12.6287 23.6336 12.8347 23.4542 13.0001 23.2401C13.4886 22.6193 14.1111 22.1169 14.8211 21.7706C15.5311 21.4242 16.3102 21.2429 17.1001 21.2401V21.2401C17.8901 21.2429 18.6692 21.4242 19.3792 21.7706C20.0892 22.1169 20.7117 22.6193 21.2001 23.2401C21.3884 23.4722 21.6262 23.6591 21.8962 23.7871C22.1661 23.9152 22.4613 23.9811 22.7601 23.9801C23.1351 23.9784 23.502 23.8713 23.819 23.6711C24.136 23.4709 24.3903 23.1856 24.5529 22.8478C24.7156 22.51 24.78 22.1332 24.7388 21.7606C24.6977 21.3879 24.5526 21.0343 24.3201 20.7401C23.6577 19.9415 22.8669 19.2588 21.9801 18.7201V18.7201ZM17.0001 17.2601C16.5724 17.2598 16.1543 17.1338 15.7977 16.8976C15.4411 16.6614 15.1619 16.3255 14.9948 15.9318C14.8278 15.5381 14.7802 15.104 14.858 14.6834C14.9358 14.2628 15.1357 13.8745 15.4326 13.5667C15.7295 13.2588 16.1104 13.0452 16.5279 12.9522C16.9454 12.8593 17.381 12.8912 17.7804 13.044C18.1799 13.1968 18.5256 13.4637 18.7745 13.8116C19.0234 14.1594 19.1644 14.5727 19.1801 15.0001C19.1909 15.2931 19.1424 15.5852 19.0377 15.859C18.933 16.1328 18.7741 16.3826 18.5706 16.5936C18.3671 16.8046 18.1231 16.9724 17.8533 17.0869C17.5834 17.2014 17.2933 17.2603 17.0001 17.2601V17.2601ZM33.9201 16.2601C33.6393 13.338 32.6066 10.5383 30.9225 8.13377C29.2384 5.72924 26.9603 3.80179 24.3101 2.53912C21.6599 1.27644 18.7279 0.72157 15.7996 0.928536C12.8712 1.1355 10.0464 2.09725 7.60013 3.72013C5.49852 5.12542 3.73423 6.97873 2.43402 9.14691C1.1338 11.3151 0.329918 13.7443 0.0801282 16.2601C-0.164907 18.7594 0.149476 21.282 1.00047 23.6447C1.85146 26.0074 3.21772 28.151 5.00013 29.9201L15.6001 40.5401C15.7861 40.7276 16.0073 40.8764 16.251 40.9779C16.4947 41.0795 16.7561 41.1317 17.0201 41.1317C17.2841 41.1317 17.5456 41.0795 17.7893 40.9779C18.033 40.8764 18.2542 40.7276 18.4401 40.5401L29.0001 29.9201C30.7825 28.151 32.1488 26.0074 32.9998 23.6447C33.8508 21.282 34.1652 18.7594 33.9201 16.2601V16.2601ZM26.2001 27.1001L17.0001 36.3001L7.80013 27.1001C6.44431 25.7442 5.40573 24.1048 4.75906 22.2996C4.1124 20.4945 3.8737 18.5685 4.06013 16.6601C4.24776 14.7223 4.86365 12.8504 5.86327 11.1798C6.86288 9.50918 8.22124 8.08154 9.84013 7.00013C11.962 5.5906 14.4527 4.83872 17.0001 4.83872C19.5475 4.83872 22.0382 5.5906 24.1601 7.00013C25.7741 8.07736 27.1295 9.49869 28.1288 11.162C29.1282 12.8253 29.7468 14.6893 29.9401 16.6201C30.1326 18.535 29.8969 20.4687 29.2501 22.2812C28.6033 24.0938 27.5615 25.7398 26.2001 27.1001V27.1001Z" fill="#FBE6ED"/>
</svg>
