<svg width="40" height="40" viewBox="0 0 40 40" fill="none" xmlns="http://www.w3.org/2000/svg">
<path d="M39.3201 16.4999L21.3201 0.49991C20.9551 0.179272 20.4859 0.00244141 20.0001 0.00244141C19.5142 0.00244141 19.045 0.179272 18.6801 0.49991L0.680055 16.4999C0.374126 16.7705 0.158391 17.1283 0.0618534 17.5252C-0.0346838 17.9221 -0.00739376 18.339 0.140055 18.7199C0.285091 19.0958 0.540264 19.4191 0.872153 19.6475C1.20404 19.8759 1.59717 19.9987 2.00005 19.9999H4.00005V37.9999C4.00005 38.5303 4.21077 39.0391 4.58584 39.4141C4.96091 39.7892 5.46962 39.9999 6.00005 39.9999H34.0001C34.5305 39.9999 35.0392 39.7892 35.4143 39.4141C35.7893 39.0391 36.0001 38.5303 36.0001 37.9999V19.9999H38.0001C38.4029 19.9987 38.7961 19.8759 39.128 19.6475C39.4598 19.4191 39.715 19.0958 39.8601 18.7199C40.0075 18.339 40.0348 17.9221 39.9383 17.5252C39.8417 17.1283 39.626 16.7705 39.3201 16.4999V16.4999ZM22.0001 35.9999H18.0001V29.9999C18.0001 29.4695 18.2108 28.9608 18.5858 28.5857C18.9609 28.2106 19.4696 27.9999 20.0001 27.9999C20.5305 27.9999 21.0392 28.2106 21.4143 28.5857C21.7893 28.9608 22.0001 29.4695 22.0001 29.9999V35.9999ZM32.0001 35.9999H26.0001V29.9999C26.0001 28.4086 25.3679 26.8825 24.2427 25.7573C23.1175 24.6321 21.5914 23.9999 20.0001 23.9999C18.4088 23.9999 16.8826 24.6321 15.7574 25.7573C14.6322 26.8825 14.0001 28.4086 14.0001 29.9999V35.9999H8.00005V19.9999H32.0001V35.9999ZM7.26006 15.9999L20.0001 4.67991L32.7401 15.9999H7.26006Z" fill="#FBE6ED"/>
</svg>
