<svg width="28" height="28" viewBox="0 0 28 28" fill="none" xmlns="http://www.w3.org/2000/svg">
<path d="M26.8801 11.6668L14.8801 1.0001C14.6368 0.786344 14.324 0.668457 14.0001 0.668457C13.6762 0.668457 13.3634 0.786344 13.1201 1.0001L1.12008 11.6668C0.916125 11.8472 0.772301 12.0857 0.707943 12.3503C0.643585 12.6149 0.661778 12.8928 0.760077 13.1468C0.856768 13.3974 1.02688 13.6129 1.24814 13.7652C1.4694 13.9174 1.73149 13.9993 2.00008 14.0001H3.33341V26.0001C3.33341 26.3537 3.47389 26.6929 3.72394 26.9429C3.97398 27.193 4.31312 27.3334 4.66674 27.3334H23.3334C23.687 27.3334 24.0262 27.193 24.2762 26.9429C24.5263 26.6929 24.6667 26.3537 24.6667 26.0001V14.0001H26.0001C26.2687 13.9993 26.5308 13.9174 26.752 13.7652C26.9733 13.6129 27.1434 13.3974 27.2401 13.1468C27.3384 12.8928 27.3566 12.6149 27.2922 12.3503C27.2279 12.0857 27.084 11.8472 26.8801 11.6668V11.6668ZM15.3334 24.6668H12.6667V20.6668C12.6667 20.3131 12.8072 19.974 13.0573 19.724C13.3073 19.4739 13.6465 19.3334 14.0001 19.3334C14.3537 19.3334 14.6928 19.4739 14.9429 19.724C15.1929 19.974 15.3334 20.3131 15.3334 20.6668V24.6668ZM22.0001 24.6668H18.0001V20.6668C18.0001 19.6059 17.5787 18.5885 16.8285 17.8383C16.0784 17.0882 15.0609 16.6668 14.0001 16.6668C12.9392 16.6668 11.9218 17.0882 11.1716 17.8383C10.4215 18.5885 10.0001 19.6059 10.0001 20.6668V24.6668H6.00008V14.0001H22.0001V24.6668ZM5.50674 11.3334L14.0001 3.78677L22.4934 11.3334H5.50674Z" fill="#E93370"/>
</svg>
