<svg width="286" height="46" viewBox="0 0 286 46" fill="none" xmlns="http://www.w3.org/2000/svg">
<g clip-path="url(#clip0_38_2473)">
<path fill-rule="evenodd" clip-rule="evenodd" d="M21.2307 20.4126L42.0433 10.2588C42.3115 10.6668 42.4654 11.1479 42.4614 11.656V13.9385V34.3461C42.4614 35.3277 41.8934 36.2245 40.994 36.6633L31.8461 41.1282L22.4181 45.7278C22.0433 45.9087 21.637 46.0011 21.2307 46.0011V20.4126ZM24.8796 31.7829C24.8796 35.528 28.0039 36.8174 31.8461 34.6543C35.6883 32.4911 38.8125 27.6798 38.8125 23.9308C38.8125 23.3072 38.2958 23.0917 37.6528 23.4535L34.1696 25.4165C33.5305 25.7783 33.0098 26.5751 33.0098 27.2025C33.0098 27.826 33.5266 28.0416 34.1696 27.6798L36.3431 26.4558C35.8264 28.6998 34.0078 31.1709 31.8461 32.3872C29.2859 33.8267 27.2031 32.9684 27.2031 30.4703C27.2031 27.9723 29.2859 24.766 31.8461 23.3226C33.0887 22.6221 34.2563 22.4374 35.1321 22.7992C35.5857 22.9878 36.3195 22.5721 36.7731 21.8754C37.2267 21.1787 37.2267 20.4628 36.7731 20.2742C35.4555 19.7315 33.708 20.0125 31.8461 21.0594C28.0039 23.2264 24.8796 28.0339 24.8796 31.7829Z" fill="#BABEC9"/>
<path fill-rule="evenodd" clip-rule="evenodd" d="M37.1557 7.46427L40.9979 9.33876C41.4318 9.55046 41.7908 9.87378 42.0432 10.2587L21.2307 20.4125L0.418091 10.2587C0.6745 9.87378 1.02953 9.55046 1.4674 9.33876L5.3096 7.46427L20.0433 0.274245C20.7928 -0.0914149 21.6725 -0.0914149 22.418 0.274245L37.1557 7.46427ZM23.8106 4.73938L31.854 8.76933C32.5877 9.13884 32.7415 9.63152 32.1498 9.93175C31.5581 10.232 30.5009 10.1165 29.7633 9.74699L23.0611 6.38677L19.9211 7.84941L23.9408 9.86631C24.6785 10.2358 24.7218 10.9248 24.1301 11.225C23.5384 11.5253 22.3747 11.6099 21.637 11.2404L17.6173 9.22352L14.4773 10.6862L21.1755 14.0464C21.9132 14.4159 22.0078 15.0048 21.4161 15.305C20.8244 15.6052 19.7159 15.5898 18.9783 15.2203L10.9388 11.1904C10.2051 10.8209 10.0749 10.2936 10.6667 9.99333L21.4122 4.57387C22.0039 4.27364 23.0729 4.36987 23.8106 4.73938Z" fill="#BABEC9"/>
<path fill-rule="evenodd" clip-rule="evenodd" d="M21.2307 46.0011C20.8244 46.0011 20.4181 45.9087 20.0433 45.7278L10.6154 41.132L1.46745 36.6671C0.568046 36.2283 0 35.3315 0 34.35V13.9385V11.656C0 11.1479 0.149901 10.6668 0.418145 10.2588L21.2307 20.4126V46.0011ZM14.4339 24.5082C14.4339 23.8808 14.9507 23.6614 15.5937 24.0232C16.2367 24.3888 16.7534 25.1933 16.7534 25.8207V37.2254C16.7534 37.8528 16.2248 38.0684 15.5818 37.7066C15.4714 37.645 15.3649 37.5718 15.2662 37.4872C14.9901 37.2909 14.7219 37.0099 14.5286 36.675L6.80078 23.3458V31.6174C6.80078 32.2448 6.28402 32.4642 5.64102 32.1023C4.99803 31.7405 4.48126 30.9361 4.48126 30.3087V18.9039V18.8693C4.48126 18.8424 4.48126 18.8193 4.48521 18.7962C4.48521 18.7904 4.48619 18.7846 4.48718 18.7789C4.48817 18.7731 4.48915 18.7673 4.48915 18.7615L4.50099 18.6923C4.50296 18.6884 4.50394 18.6846 4.50493 18.6807C4.50592 18.6769 4.5069 18.673 4.50888 18.6692C4.51282 18.6576 4.51677 18.6451 4.52071 18.6326C4.52465 18.6201 4.5286 18.6076 4.53254 18.596V18.5922C4.59566 18.4267 4.71795 18.3073 4.89546 18.2612C5.11242 18.2034 5.37672 18.265 5.64102 18.4151C5.64102 18.419 5.64497 18.419 5.64497 18.419C5.65286 18.4228 5.66075 18.4276 5.66864 18.4324C5.67653 18.4373 5.68442 18.4421 5.6923 18.4459C5.71597 18.4575 5.7357 18.469 5.75542 18.4844C5.76528 18.4921 5.77613 18.4998 5.78698 18.5075C5.79783 18.5152 5.80868 18.5229 5.81854 18.5306L5.86587 18.5652L5.92505 18.6114C5.94082 18.623 5.96055 18.6384 5.97633 18.6538C5.98422 18.6615 5.99211 18.6682 6 18.6749C6.00789 18.6817 6.01578 18.6884 6.02366 18.6961C6.04733 18.7153 6.06705 18.7346 6.09072 18.7577L6.09073 18.7577L6.11834 18.7846C6.13215 18.8 6.14596 18.8145 6.15977 18.8289C6.17357 18.8433 6.18738 18.8578 6.20118 18.8732C6.20512 18.8732 6.20907 18.877 6.20907 18.877C6.3353 19.0156 6.45364 19.1695 6.54832 19.335L14.4339 32.9299V24.5082Z" fill="#BABEC9"/>
<path d="M62.2227 30.1953H54V15.918H62.2227V18.3984H57.0273V21.5332H61.8613V24.0137H57.0273V27.6953H62.2227V30.1953Z" fill="#BABEC9"/>
<path d="M75.0547 30.1953H72.0762V23.8184C72.0762 23.0306 71.9362 22.4414 71.6562 22.0508C71.3763 21.6536 70.9303 21.4551 70.3184 21.4551C69.485 21.4551 68.8828 21.735 68.5117 22.2949C68.1406 22.8483 67.9551 23.7695 67.9551 25.0586V30.1953H64.9766V19.2773H67.252L67.6523 20.6738H67.8184C68.1504 20.1465 68.6061 19.7493 69.1855 19.4824C69.7715 19.209 70.4355 19.0723 71.1777 19.0723C72.4473 19.0723 73.4108 19.4173 74.0684 20.1074C74.7259 20.791 75.0547 21.7806 75.0547 23.0762V30.1953Z" fill="#BABEC9"/>
<path d="M87.623 19.2773V20.791L85.9141 21.2305C86.2266 21.7188 86.3828 22.2656 86.3828 22.8711C86.3828 24.043 85.9727 24.9577 85.1523 25.6152C84.3385 26.2663 83.2057 26.5918 81.7539 26.5918L81.2168 26.5625L80.7773 26.5137C80.4714 26.748 80.3184 27.0085 80.3184 27.2949C80.3184 27.7246 80.8652 27.9395 81.959 27.9395H83.8145C85.0124 27.9395 85.9238 28.1966 86.5488 28.7109C87.1803 29.2253 87.4961 29.9805 87.4961 30.9766C87.4961 32.2526 86.9622 33.2422 85.8945 33.9453C84.8333 34.6484 83.3066 35 81.3145 35C79.791 35 78.6257 34.7331 77.8184 34.1992C77.0176 33.6719 76.6172 32.9297 76.6172 31.9727C76.6172 31.3151 76.8223 30.765 77.2324 30.3223C77.6426 29.8796 78.2448 29.5638 79.0391 29.375C78.7331 29.2448 78.4661 29.0332 78.2383 28.7402C78.0104 28.4408 77.8965 28.125 77.8965 27.793C77.8965 27.3763 78.0169 27.0312 78.2578 26.7578C78.4987 26.4779 78.847 26.2044 79.3027 25.9375C78.7298 25.6901 78.2741 25.293 77.9355 24.7461C77.6035 24.1992 77.4375 23.5547 77.4375 22.8125C77.4375 21.6211 77.8249 20.6999 78.5996 20.0488C79.3743 19.3978 80.4811 19.0723 81.9199 19.0723C82.2259 19.0723 82.5872 19.1016 83.0039 19.1602C83.4271 19.2122 83.6973 19.2513 83.8145 19.2773H87.623ZM79.1953 31.7383C79.1953 32.1484 79.3906 32.4707 79.7812 32.7051C80.1784 32.9395 80.7318 33.0566 81.4414 33.0566C82.5091 33.0566 83.3457 32.9102 83.9512 32.6172C84.5566 32.3242 84.8594 31.9238 84.8594 31.416C84.8594 31.0059 84.6803 30.7227 84.3223 30.5664C83.9642 30.4102 83.4108 30.332 82.6621 30.332H81.1191C80.5723 30.332 80.1133 30.459 79.7422 30.7129C79.3776 30.9733 79.1953 31.3151 79.1953 31.7383ZM80.2793 22.8516C80.2793 23.444 80.4128 23.9128 80.6797 24.2578C80.9531 24.6029 81.3665 24.7754 81.9199 24.7754C82.4798 24.7754 82.89 24.6029 83.1504 24.2578C83.4108 23.9128 83.541 23.444 83.541 22.8516C83.541 21.5365 83.0007 20.8789 81.9199 20.8789C80.8262 20.8789 80.2793 21.5365 80.2793 22.8516Z" fill="#BABEC9"/>
<path d="M92.4082 30.1953H89.4297V15H92.4082V30.1953Z" fill="#BABEC9"/>
<path d="M95.416 16.4551C95.416 15.485 95.9564 15 97.0371 15C98.1178 15 98.6582 15.485 98.6582 16.4551C98.6582 16.9173 98.5215 17.2786 98.248 17.5391C97.9811 17.793 97.5775 17.9199 97.0371 17.9199C95.9564 17.9199 95.416 17.4316 95.416 16.4551ZM98.5215 30.1953H95.543V19.2773H98.5215V30.1953Z" fill="#BABEC9"/>
<path d="M109.273 26.9531C109.273 28.0729 108.883 28.9258 108.102 29.5117C107.327 30.0977 106.165 30.3906 104.615 30.3906C103.821 30.3906 103.144 30.3353 102.584 30.2246C102.024 30.1204 101.5 29.9642 101.012 29.7559V27.2949C101.565 27.5553 102.187 27.7734 102.877 27.9492C103.574 28.125 104.186 28.2129 104.713 28.2129C105.794 28.2129 106.334 27.9004 106.334 27.2754C106.334 27.041 106.262 26.8522 106.119 26.709C105.976 26.5592 105.729 26.3932 105.377 26.2109C105.025 26.0221 104.557 25.804 103.971 25.5566C103.131 25.2051 102.512 24.8796 102.115 24.5801C101.725 24.2806 101.438 23.9388 101.256 23.5547C101.08 23.1641 100.992 22.6855 100.992 22.1191C100.992 21.1491 101.367 20.4004 102.115 19.873C102.87 19.3392 103.938 19.0723 105.318 19.0723C106.633 19.0723 107.913 19.3587 109.156 19.9316L108.258 22.0801C107.711 21.8457 107.2 21.6536 106.725 21.5039C106.249 21.3542 105.764 21.2793 105.27 21.2793C104.391 21.2793 103.951 21.5169 103.951 21.9922C103.951 22.2591 104.091 22.4902 104.371 22.6855C104.658 22.8809 105.279 23.1706 106.236 23.5547C107.089 23.8997 107.714 24.222 108.111 24.5215C108.508 24.821 108.801 25.166 108.99 25.5566C109.179 25.9473 109.273 26.4128 109.273 26.9531Z" fill="#BABEC9"/>
<path d="M121.676 30.1953H118.697V23.8184C118.697 22.2428 118.111 21.4551 116.939 21.4551C116.106 21.4551 115.504 21.7383 115.133 22.3047C114.762 22.8711 114.576 23.7891 114.576 25.0586V30.1953H111.598V15H114.576V18.0957C114.576 18.3366 114.553 18.903 114.508 19.7949L114.439 20.6738H114.596C115.26 19.6061 116.314 19.0723 117.76 19.0723C119.042 19.0723 120.016 19.4173 120.68 20.1074C121.344 20.7975 121.676 21.7871 121.676 23.0762V30.1953Z" fill="#BABEC9"/>
<path d="M141.666 30.2773H137.818L131.607 19.4766H131.52C131.643 21.3841 131.705 22.7448 131.705 23.5586V30.2773H129V16H132.818L139.02 26.6934H139.088C138.99 24.8379 138.941 23.526 138.941 22.7578V16H141.666V30.2773Z" fill="#BABEC9"/>
<path d="M151.969 30.2773L151.393 28.793H151.314C150.813 29.4245 150.296 29.8639 149.762 30.1113C149.234 30.3522 148.544 30.4727 147.691 30.4727C146.643 30.4727 145.816 30.1732 145.211 29.5742C144.612 28.9753 144.312 28.1224 144.312 27.0156C144.312 25.8568 144.716 25.0039 145.523 24.457C146.337 23.9036 147.561 23.5977 149.195 23.5391L151.09 23.4805V23.002C151.09 21.8952 150.523 21.3418 149.391 21.3418C148.518 21.3418 147.493 21.6055 146.314 22.1328L145.328 20.1211C146.585 19.4635 147.978 19.1348 149.508 19.1348C150.973 19.1348 152.096 19.4538 152.877 20.0918C153.658 20.7298 154.049 21.6999 154.049 23.002V30.2773H151.969ZM151.09 25.2188L149.938 25.2578C149.072 25.2839 148.427 25.4401 148.004 25.7266C147.581 26.013 147.369 26.4492 147.369 27.0352C147.369 27.875 147.851 28.2949 148.814 28.2949C149.505 28.2949 150.055 28.0964 150.465 27.6992C150.882 27.3021 151.09 26.7747 151.09 26.1172V25.2188Z" fill="#BABEC9"/>
<path d="M167.203 30.2773H164.225V23.9004C164.225 23.1126 164.085 22.5234 163.805 22.1328C163.525 21.7357 163.079 21.5371 162.467 21.5371C161.633 21.5371 161.031 21.8171 160.66 22.377C160.289 22.9303 160.104 23.8516 160.104 25.1406V30.2773H157.125V19.3594H159.4L159.801 20.7559H159.967C160.299 20.2285 160.755 19.8314 161.334 19.5645C161.92 19.291 162.584 19.1543 163.326 19.1543C164.596 19.1543 165.559 19.4993 166.217 20.1895C166.874 20.873 167.203 21.8626 167.203 23.1582V30.2773Z" fill="#BABEC9"/>
<path d="M180.348 30.2773H177.369V23.9004C177.369 23.1126 177.229 22.5234 176.949 22.1328C176.669 21.7357 176.223 21.5371 175.611 21.5371C174.778 21.5371 174.176 21.8171 173.805 22.377C173.434 22.9303 173.248 23.8516 173.248 25.1406V30.2773H170.27V19.3594H172.545L172.945 20.7559H173.111C173.443 20.2285 173.899 19.8314 174.479 19.5645C175.064 19.291 175.729 19.1543 176.471 19.1543C177.74 19.1543 178.704 19.4993 179.361 20.1895C180.019 20.873 180.348 21.8626 180.348 23.1582V30.2773Z" fill="#BABEC9"/>
<path d="M181.852 19.3594H185.113L187.174 25.502C187.35 26.0358 187.47 26.6673 187.535 27.3965H187.594C187.665 26.7259 187.805 26.0944 188.014 25.502L190.035 19.3594H193.229L188.609 31.6738C188.186 32.8132 187.581 33.666 186.793 34.2324C186.012 34.7988 185.097 35.082 184.049 35.082C183.535 35.082 183.03 35.0267 182.535 34.916V32.5527C182.893 32.6374 183.284 32.6797 183.707 32.6797C184.234 32.6797 184.693 32.5169 185.084 32.1914C185.481 31.8724 185.79 31.3874 186.012 30.7363L186.188 30.1992L181.852 19.3594Z" fill="#BABEC9"/>
<path d="M203.258 22.7188H204.254C205.185 22.7188 205.882 22.5365 206.344 22.1719C206.806 21.8008 207.037 21.2637 207.037 20.5605C207.037 19.8509 206.842 19.3268 206.451 18.9883C206.067 18.6497 205.462 18.4805 204.635 18.4805H203.258V22.7188ZM210.094 20.4531C210.094 21.9896 209.612 23.1647 208.648 23.9785C207.691 24.7923 206.327 25.1992 204.557 25.1992H203.258V30.2773H200.23V16H204.791C206.523 16 207.838 16.3743 208.736 17.123C209.641 17.8652 210.094 18.9753 210.094 20.4531Z" fill="#BABEC9"/>
<path d="M218.648 19.1543C219.052 19.1543 219.387 19.1836 219.654 19.2422L219.43 22.0352C219.189 21.9701 218.896 21.9375 218.551 21.9375C217.6 21.9375 216.858 22.1816 216.324 22.6699C215.797 23.1582 215.533 23.8418 215.533 24.7207V30.2773H212.555V19.3594H214.811L215.25 21.1953H215.396C215.735 20.5833 216.191 20.0918 216.764 19.7207C217.343 19.3431 217.971 19.1543 218.648 19.1543Z" fill="#BABEC9"/>
<path d="M224.01 24.7988C224.01 25.8796 224.186 26.6966 224.537 27.25C224.895 27.8034 225.475 28.0801 226.275 28.0801C227.07 28.0801 227.639 27.8066 227.984 27.2598C228.336 26.7064 228.512 25.8861 228.512 24.7988C228.512 23.7181 228.336 22.9076 227.984 22.3672C227.633 21.8268 227.057 21.5566 226.256 21.5566C225.462 21.5566 224.889 21.8268 224.537 22.3672C224.186 22.901 224.01 23.7116 224.01 24.7988ZM231.559 24.7988C231.559 26.5762 231.09 27.9661 230.152 28.9688C229.215 29.9714 227.91 30.4727 226.236 30.4727C225.188 30.4727 224.264 30.2448 223.463 29.7891C222.662 29.3268 222.047 28.666 221.617 27.8066C221.188 26.9473 220.973 25.9447 220.973 24.7988C220.973 23.015 221.438 21.6283 222.369 20.6387C223.3 19.6491 224.609 19.1543 226.295 19.1543C227.343 19.1543 228.268 19.3822 229.068 19.8379C229.869 20.2936 230.484 20.9479 230.914 21.8008C231.344 22.6536 231.559 23.653 231.559 24.7988Z" fill="#BABEC9"/>
<path d="M240.016 30.4727C238.733 30.4727 237.727 30.0072 236.998 29.0762H236.842C236.946 29.9876 236.998 30.515 236.998 30.6582V35.082H234.02V19.3594H236.441L236.861 20.7754H236.998C237.695 19.6947 238.727 19.1543 240.094 19.1543C241.383 19.1543 242.392 19.6523 243.121 20.6484C243.85 21.6445 244.215 23.028 244.215 24.7988C244.215 25.9642 244.042 26.9766 243.697 27.8359C243.359 28.6953 242.874 29.3496 242.242 29.7988C241.611 30.248 240.868 30.4727 240.016 30.4727ZM239.137 21.5371C238.401 21.5371 237.864 21.765 237.525 22.2207C237.187 22.6699 237.011 23.4154 236.998 24.457V24.7793C236.998 25.9512 237.171 26.791 237.516 27.2988C237.867 27.8066 238.421 28.0605 239.176 28.0605C240.51 28.0605 241.178 26.9603 241.178 24.7598C241.178 23.6855 241.012 22.8815 240.68 22.3477C240.354 21.8073 239.84 21.5371 239.137 21.5371Z" fill="#BABEC9"/>
<path d="M251.197 21.2734C250.566 21.2734 250.071 21.4753 249.713 21.8789C249.355 22.276 249.15 22.8424 249.098 23.5781H253.277C253.264 22.8424 253.072 22.276 252.701 21.8789C252.33 21.4753 251.829 21.2734 251.197 21.2734ZM251.617 30.4727C249.859 30.4727 248.486 29.9876 247.496 29.0176C246.507 28.0475 246.012 26.6738 246.012 24.8965C246.012 23.0671 246.467 21.6543 247.379 20.6582C248.297 19.6556 249.563 19.1543 251.178 19.1543C252.721 19.1543 253.922 19.5938 254.781 20.4727C255.641 21.3516 256.07 22.5658 256.07 24.1152V25.5605H249.029C249.062 26.4069 249.312 27.0677 249.781 27.543C250.25 28.0182 250.908 28.2559 251.754 28.2559C252.411 28.2559 253.033 28.1875 253.619 28.0508C254.205 27.9141 254.817 27.696 255.455 27.3965V29.7012C254.934 29.9616 254.378 30.1536 253.785 30.2773C253.193 30.4076 252.47 30.4727 251.617 30.4727Z" fill="#BABEC9"/>
<path d="M264.586 19.1543C264.99 19.1543 265.325 19.1836 265.592 19.2422L265.367 22.0352C265.126 21.9701 264.833 21.9375 264.488 21.9375C263.538 21.9375 262.796 22.1816 262.262 22.6699C261.734 23.1582 261.471 23.8418 261.471 24.7207V30.2773H258.492V19.3594H260.748L261.188 21.1953H261.334C261.673 20.5833 262.128 20.0918 262.701 19.7207C263.281 19.3431 263.909 19.1543 264.586 19.1543Z" fill="#BABEC9"/>
<path d="M272.174 28.0996C272.695 28.0996 273.32 27.9857 274.049 27.7578V29.9746C273.307 30.3066 272.395 30.4727 271.314 30.4727C270.123 30.4727 269.254 30.1732 268.707 29.5742C268.167 28.9688 267.896 28.0638 267.896 26.8594V21.5957H266.471V20.3359L268.111 19.3398L268.971 17.0352H270.875V19.3594H273.932V21.5957H270.875V26.8594C270.875 27.2826 270.992 27.5951 271.227 27.7969C271.467 27.9987 271.783 28.0996 272.174 28.0996Z" fill="#BABEC9"/>
<path d="M274.703 19.3594H277.965L280.025 25.502C280.201 26.0358 280.322 26.6673 280.387 27.3965H280.445C280.517 26.7259 280.657 26.0944 280.865 25.502L282.887 19.3594H286.08L281.461 31.6738C281.038 32.8132 280.432 33.666 279.645 34.2324C278.863 34.7988 277.949 35.082 276.9 35.082C276.386 35.082 275.882 35.0267 275.387 34.916V32.5527C275.745 32.6374 276.135 32.6797 276.559 32.6797C277.086 32.6797 277.545 32.5169 277.936 32.1914C278.333 31.8724 278.642 31.3874 278.863 30.7363L279.039 30.1992L274.703 19.3594Z" fill="#BABEC9"/>
</g>
<defs>
<clipPath id="clip0_38_2473">
<rect width="286" height="46" fill="white"/>
</clipPath>
</defs>
</svg>
