<svg width="58" height="32" viewBox="0 0 58 32" fill="none" xmlns="http://www.w3.org/2000/svg">
<path d="M28.5193 6.49638L25.8465 5.19242L15.5945 0.190775C15.0759 -0.0635916 14.4639 -0.0635916 13.9425 0.190775L3.69324 5.19242L1.02046 6.49638C0.715866 6.64365 0.468895 6.86856 0.290527 7.13631L14.7685 14.1997L29.2465 7.13631C29.0709 6.86856 28.8212 6.64365 28.5193 6.49638Z" fill="#E3004C"/>
<path d="M13.9429 31.8099C14.2036 31.9357 14.4862 32 14.7689 32V14.1997L0.290877 7.13635C0.104277 7.42017 0 7.75486 0 8.1083V9.69608V23.8951C0 24.5778 0.395153 25.2017 1.02081 25.507L7.38443 28.6129L13.9429 31.8099Z" fill="#0068B1"/>
<path d="M29.247 7.13635L14.769 14.1997V32C15.0517 32 15.3343 31.9357 15.595 31.8099L22.1535 28.6102L28.5171 25.5043C29.1427 25.199 29.5379 24.5752 29.5379 23.8924V9.69608V8.1083C29.5406 7.75486 29.4336 7.42017 29.247 7.13635Z" fill="#F3F4F6"/>
<path d="M22.1532 24.1066C19.4805 25.6113 17.3071 24.7144 17.3071 22.1091C17.3071 19.5012 19.4805 16.1569 22.1532 14.6495C23.4485 13.9212 24.6641 13.7257 25.5807 14.1033C25.8962 14.2345 25.8962 14.7325 25.5807 15.2171C25.2651 15.7018 24.7547 15.9909 24.4391 15.8597C23.8299 15.6081 23.0176 15.7366 22.1532 16.2239C20.3723 17.228 18.9234 19.4584 18.9234 21.1961C18.9234 22.9338 20.3723 23.5309 22.1532 22.5295C23.657 21.6834 24.9221 19.9644 25.2815 18.4034L23.7695 19.2549C23.3222 19.5066 22.9628 19.3566 22.9628 18.9228C22.9628 18.4864 23.325 17.9322 23.7695 17.6805L26.1926 16.3149C26.6399 16.0632 26.9994 16.2132 26.9994 16.6469C26.9994 19.2549 24.826 22.6018 22.1532 24.1066Z" fill="#E3004C"/>
<path d="M22.1593 6.10008L16.564 3.2967C16.0509 3.03966 15.3072 2.97272 14.8956 3.18157L7.42064 6.95154C7.00902 7.16039 7.09958 7.52721 7.60998 7.78426L13.2025 10.5876C13.7157 10.8447 14.4867 10.8554 14.8984 10.6465C15.31 10.4377 15.2441 10.028 14.731 9.77099L10.0715 7.4335L12.2558 6.41603L15.052 7.81906C15.5652 8.07611 16.3747 8.0172 16.7863 7.80835C17.1979 7.59951 17.1678 7.12023 16.6546 6.86318L13.8583 5.46015L16.0427 4.44269L20.7049 6.78018C21.2181 7.03722 21.9535 7.11755 22.3651 6.9087C22.7767 6.69985 22.6697 6.35713 22.1593 6.10008Z" fill="white"/>
<path d="M10.8479 16.7113C10.4006 16.4596 10.0411 16.6122 10.0411 17.0486V22.9071L4.5556 13.45C4.48974 13.3349 4.40741 13.2278 4.3196 13.1314C4.3196 13.1314 4.31686 13.1287 4.31411 13.1287C4.2949 13.1073 4.2757 13.0885 4.25649 13.0671C4.251 13.0618 4.24551 13.0564 4.23728 13.0484C4.22081 13.0323 4.20709 13.0189 4.19063 13.0055C4.17965 12.9948 4.16867 12.9868 4.1577 12.9761C4.14672 12.9654 4.133 12.9547 4.12202 12.9466C4.1083 12.9359 4.09458 12.9252 4.08086 12.9145C4.06989 12.9065 4.05891 12.8984 4.04793 12.8904C4.03421 12.8797 4.01775 12.869 4.00403 12.8583C3.99031 12.8476 3.97659 12.8395 3.96012 12.8315C3.94914 12.8261 3.93817 12.8181 3.92719 12.8128C3.92719 12.8128 3.92445 12.8128 3.92445 12.8101C3.74059 12.7057 3.55674 12.6628 3.40581 12.703C3.28232 12.7351 3.19726 12.8181 3.15335 12.9332V12.9359C3.14786 12.952 3.14237 12.9707 3.13688 12.9868C3.13414 12.9921 3.13414 12.9975 3.1314 13.0029C3.12865 13.0189 3.12591 13.035 3.12316 13.0511C3.12316 13.0591 3.12042 13.0671 3.12042 13.0752C3.11768 13.0912 3.11768 13.1073 3.11768 13.126C3.11768 13.1341 3.11768 13.1421 3.11768 13.1501V21.0837C3.11768 21.5201 3.47716 22.0797 3.92445 22.3314C4.37174 22.5831 4.73122 22.4305 4.73122 21.994V16.24L10.107 25.5123C10.2414 25.7453 10.428 25.9407 10.6201 26.0773C10.6887 26.1362 10.7628 26.1871 10.8396 26.2299C11.2869 26.4816 11.6546 26.3316 11.6546 25.8952V17.9617C11.6546 17.5252 11.2952 16.9656 10.8479 16.7113Z" fill="white"/>
<path d="M36.3085 10.0586H34V5.77539H36.3085V6.51953H34.8499V7.45996H36.2071V8.2041H34.8499V9.30859H36.3085V10.0586Z" fill="#E3004C"/>
<path d="M39.9111 10.0586H39.0749V8.14551C39.0749 7.90918 39.0356 7.73242 38.957 7.61523C38.8784 7.49609 38.7532 7.43652 38.5814 7.43652C38.3474 7.43652 38.1784 7.52051 38.0742 7.68848C37.97 7.85449 37.9179 8.13086 37.9179 8.51758V10.0586H37.0817V6.7832H37.7205L37.8329 7.20215H37.8795C37.9727 7.04395 38.1007 6.9248 38.2633 6.84473C38.4278 6.7627 38.6143 6.72168 38.8227 6.72168C39.1791 6.72168 39.4496 6.8252 39.6342 7.03223C39.8188 7.2373 39.9111 7.53418 39.9111 7.92285V10.0586Z" fill="#E3004C"/>
<path d="M43.4397 6.7832V7.2373L42.9599 7.36914C43.0476 7.51562 43.0915 7.67969 43.0915 7.86133C43.0915 8.21289 42.9763 8.4873 42.746 8.68457C42.5176 8.87988 42.1995 8.97754 41.7919 8.97754L41.6411 8.96875L41.5177 8.9541C41.4318 9.02441 41.3889 9.10254 41.3889 9.18848C41.3889 9.31738 41.5424 9.38184 41.8495 9.38184H42.3704C42.7067 9.38184 42.9626 9.45898 43.1381 9.61328C43.3154 9.76758 43.404 9.99414 43.404 10.293C43.404 10.6758 43.2542 10.9727 42.9544 11.1836C42.6565 11.3945 42.2278 11.5 41.6685 11.5C41.2408 11.5 40.9137 11.4199 40.687 11.2598C40.4622 11.1016 40.3498 10.8789 40.3498 10.5918C40.3498 10.3945 40.4074 10.2295 40.5225 10.0967C40.6377 9.96387 40.8067 9.86914 41.0297 9.8125C40.9438 9.77344 40.8689 9.70996 40.8049 9.62207C40.7409 9.53223 40.7089 9.4375 40.7089 9.33789C40.7089 9.21289 40.7428 9.10938 40.8104 9.02734C40.878 8.94336 40.9758 8.86133 41.1038 8.78125C40.9429 8.70703 40.815 8.58789 40.7199 8.42383C40.6267 8.25977 40.5801 8.06641 40.5801 7.84375C40.5801 7.48633 40.6888 7.20996 40.9063 7.01465C41.1239 6.81934 41.4346 6.72168 41.8385 6.72168C41.9244 6.72168 42.0259 6.73047 42.1429 6.74805C42.2617 6.76367 42.3375 6.77539 42.3704 6.7832H43.4397ZM41.0736 10.5215C41.0736 10.6445 41.1284 10.7412 41.2381 10.8115C41.3496 10.8818 41.505 10.917 41.7042 10.917C42.0039 10.917 42.2388 10.873 42.4088 10.7852C42.5788 10.6973 42.6638 10.5771 42.6638 10.4248C42.6638 10.3018 42.6135 10.2168 42.513 10.1699C42.4125 10.123 42.2571 10.0996 42.0469 10.0996H41.6137C41.4602 10.0996 41.3313 10.1377 41.2271 10.2139C41.1248 10.292 41.0736 10.3945 41.0736 10.5215ZM41.3779 7.85547C41.3779 8.0332 41.4154 8.17383 41.4903 8.27734C41.5671 8.38086 41.6832 8.43262 41.8385 8.43262C41.9957 8.43262 42.1109 8.38086 42.184 8.27734C42.2571 8.17383 42.2937 8.0332 42.2937 7.85547C42.2937 7.46094 42.1419 7.26367 41.8385 7.26367C41.5315 7.26367 41.3779 7.46094 41.3779 7.85547Z" fill="#E3004C"/>
<path d="M44.7831 10.0586H43.9469V5.5H44.7831V10.0586Z" fill="#E3004C"/>
<path d="M45.6276 5.93652C45.6276 5.64551 45.7793 5.5 46.0827 5.5C46.3861 5.5 46.5378 5.64551 46.5378 5.93652C46.5378 6.0752 46.4994 6.18359 46.4227 6.26172C46.3477 6.33789 46.2344 6.37598 46.0827 6.37598C45.7793 6.37598 45.6276 6.22949 45.6276 5.93652ZM46.4994 10.0586H45.6632V6.7832H46.4994V10.0586Z" fill="#E3004C"/>
<path d="M49.518 9.08594C49.518 9.42188 49.4084 9.67773 49.189 9.85352C48.9715 10.0293 48.6453 10.1172 48.2102 10.1172C47.9873 10.1172 47.7972 10.1006 47.64 10.0674C47.4828 10.0361 47.3356 9.98926 47.1986 9.92676V9.18848C47.3539 9.2666 47.5285 9.33203 47.7222 9.38477C47.9178 9.4375 48.0896 9.46387 48.2377 9.46387C48.5411 9.46387 48.6928 9.37012 48.6928 9.18262C48.6928 9.1123 48.6727 9.05566 48.6325 9.0127C48.5923 8.96777 48.5228 8.91797 48.4241 8.86328C48.3254 8.80664 48.1938 8.74121 48.0293 8.66699C47.7935 8.56152 47.6199 8.46387 47.5084 8.37402C47.3987 8.28418 47.3183 8.18164 47.2671 8.06641C47.2177 7.94922 47.1931 7.80566 47.1931 7.63574C47.1931 7.34473 47.2982 7.12012 47.5084 6.96191C47.7204 6.80176 48.0202 6.72168 48.4076 6.72168C48.7769 6.72168 49.136 6.80762 49.4851 6.97949L49.2329 7.62402C49.0794 7.55371 48.9359 7.49609 48.8025 7.45117C48.669 7.40625 48.5329 7.38379 48.3939 7.38379C48.1472 7.38379 48.0238 7.45508 48.0238 7.59766C48.0238 7.67773 48.0631 7.74707 48.1417 7.80566C48.2221 7.86426 48.3967 7.95117 48.6654 8.06641C48.9048 8.16992 49.0803 8.2666 49.1918 8.35645C49.3033 8.44629 49.3855 8.5498 49.4385 8.66699C49.4915 8.78418 49.518 8.92383 49.518 9.08594Z" fill="#E3004C"/>
<path d="M53 10.0586H52.1638V8.14551C52.1638 7.67285 51.9993 7.43652 51.6703 7.43652C51.4363 7.43652 51.2672 7.52148 51.1631 7.69141C51.0589 7.86133 51.0068 8.13672 51.0068 8.51758V10.0586H50.1706V5.5H51.0068V6.42871C51.0068 6.50098 51.0004 6.6709 50.9876 6.93848L50.9684 7.20215H51.0123C51.1987 6.88184 51.4948 6.72168 51.9006 6.72168C52.2607 6.72168 52.5339 6.8252 52.7203 7.03223C52.9068 7.23926 53 7.53613 53 7.92285V10.0586Z" fill="#E3004C"/>
<path d="M37.5496 17.9893H36.4713L34.7307 14.5931H34.7061C34.7408 15.1929 34.7581 15.6208 34.7581 15.8767V17.9893H34V13.5H35.0701L36.808 16.8623H36.8271C36.7998 16.2789 36.7861 15.8664 36.7861 15.6249V13.5H37.5496V17.9893Z" fill="#0068B1"/>
<path d="M40.437 17.9893L40.2755 17.5225H40.2536C40.1131 17.7211 39.9681 17.8593 39.8185 17.9371C39.6707 18.0128 39.4773 18.0507 39.2383 18.0507C38.9445 18.0507 38.7128 17.9565 38.5431 17.7682C38.3752 17.5798 38.2913 17.3117 38.2913 16.9637C38.2913 16.5993 38.4044 16.3311 38.6307 16.1592C38.8588 15.9852 39.2018 15.8889 39.6597 15.8705L40.1907 15.8521V15.7016C40.1907 15.3536 40.0319 15.1796 39.7145 15.1796C39.47 15.1796 39.1826 15.2625 38.8524 15.4284L38.5759 14.7958C38.9281 14.589 39.3185 14.4857 39.7473 14.4857C40.1578 14.4857 40.4726 14.586 40.6915 14.7866C40.9104 14.9872 41.0199 15.2922 41.0199 15.7016V17.9893H40.437ZM40.1907 16.3987L39.8677 16.411C39.6251 16.4191 39.4444 16.4683 39.3258 16.5583C39.2072 16.6484 39.1479 16.7856 39.1479 16.9698C39.1479 17.2339 39.283 17.3659 39.553 17.3659C39.7464 17.3659 39.9006 17.3035 40.0155 17.1786C40.1323 17.0537 40.1907 16.8879 40.1907 16.6812V16.3987Z" fill="#0068B1"/>
<path d="M44.7064 17.9893H43.8717V15.9841C43.8717 15.7364 43.8324 15.5512 43.754 15.4284C43.6755 15.3035 43.5506 15.241 43.379 15.241C43.1455 15.241 42.9767 15.3291 42.8727 15.5051C42.7687 15.6791 42.7167 15.9688 42.7167 16.3741V17.9893H41.882V14.5563H42.5197L42.6319 14.9954H42.6784C42.7715 14.8296 42.8992 14.7047 43.0616 14.6208C43.2258 14.5348 43.4119 14.4918 43.6199 14.4918C43.9757 14.4918 44.2457 14.6003 44.43 14.8173C44.6143 15.0322 44.7064 15.3434 44.7064 15.7508V17.9893Z" fill="#0068B1"/>
<path d="M48.3901 17.9893H47.5554V15.9841C47.5554 15.7364 47.5162 15.5512 47.4377 15.4284C47.3593 15.3035 47.2343 15.241 47.0628 15.241C46.8293 15.241 46.6605 15.3291 46.5565 15.5051C46.4525 15.6791 46.4005 15.9688 46.4005 16.3741V17.9893H45.5658V14.5563H46.2034L46.3156 14.9954H46.3622C46.4552 14.8296 46.5829 14.7047 46.7453 14.6208C46.9095 14.5348 47.0956 14.4918 47.3036 14.4918C47.6594 14.4918 47.9295 14.6003 48.1137 14.8173C48.298 15.0322 48.3901 15.3434 48.3901 15.7508V17.9893Z" fill="#0068B1"/>
<path d="M48.8116 14.5563H49.7257L50.3032 16.4877C50.3524 16.6556 50.3862 16.8541 50.4044 17.0834H50.4209C50.4409 16.8726 50.4802 16.674 50.5385 16.4877L51.1051 14.5563H52L50.7055 18.4284C50.5869 18.7866 50.4172 19.0548 50.1964 19.2329C49.9775 19.411 49.7211 19.5 49.4274 19.5C49.2833 19.5 49.1419 19.4826 49.0032 19.4478V18.7047C49.1035 18.7313 49.213 18.7446 49.3316 18.7446C49.4794 18.7446 49.608 18.6934 49.7175 18.5911C49.8288 18.4908 49.9155 18.3383 49.9775 18.1336L50.0268 17.9647L48.8116 14.5563Z" fill="#0068B1"/>
<path d="M34.8463 23.2605H35.1248C35.3851 23.2605 35.5798 23.2127 35.709 23.1172C35.8382 23.02 35.9029 22.8792 35.9029 22.695C35.9029 22.509 35.8483 22.3717 35.7391 22.283C35.6317 22.1943 35.4624 22.1499 35.2313 22.1499H34.8463V23.2605ZM36.7574 22.6668C36.7574 23.0694 36.6227 23.3773 36.3533 23.5906C36.0858 23.8038 35.7045 23.9104 35.2094 23.9104H34.8463V25.241H34V21.5H35.2749C35.7591 21.5 36.1267 21.5981 36.3779 21.7943C36.6309 21.9887 36.7574 22.2796 36.7574 22.6668Z" fill="#545863"/>
<path d="M39.1489 22.3265C39.2617 22.3265 39.3555 22.3342 39.4301 22.3495L39.3673 23.0814C39.3 23.0643 39.2181 23.0558 39.1216 23.0558C38.8559 23.0558 38.6484 23.1198 38.4991 23.2477C38.3517 23.3756 38.278 23.5548 38.278 23.7851V25.241H37.4453V22.3802H38.076L38.1988 22.8613H38.2398C38.3344 22.701 38.4618 22.5722 38.622 22.4749C38.784 22.376 38.9596 22.3265 39.1489 22.3265Z" fill="#545863"/>
<path d="M40.6477 23.8055C40.6477 24.0887 40.6968 24.3028 40.7951 24.4478C40.8952 24.5928 41.0572 24.6653 41.2811 24.6653C41.5031 24.6653 41.6624 24.5937 41.7588 24.4504C41.8571 24.3054 41.9063 24.0904 41.9063 23.8055C41.9063 23.5223 41.8571 23.31 41.7588 23.1684C41.6606 23.0268 41.4995 22.956 41.2756 22.956C41.0536 22.956 40.8934 23.0268 40.7951 23.1684C40.6968 23.3083 40.6477 23.5206 40.6477 23.8055ZM42.758 23.8055C42.758 24.2712 42.627 24.6354 42.3649 24.8982C42.1028 25.1609 41.7379 25.2922 41.2702 25.2922C40.9771 25.2922 40.7187 25.2325 40.4948 25.1131C40.271 24.992 40.099 24.8188 39.9788 24.5937C39.8587 24.3685 39.7987 24.1058 39.7987 23.8055C39.7987 23.3381 39.9288 22.9748 40.1891 22.7155C40.4493 22.4562 40.8152 22.3265 41.2865 22.3265C41.5796 22.3265 41.838 22.3862 42.0619 22.5056C42.2857 22.625 42.4577 22.7965 42.5779 23.02C42.698 23.2434 42.758 23.5053 42.758 23.8055Z" fill="#545863"/>
<path d="M45.1223 25.2922C44.7637 25.2922 44.4825 25.1702 44.2787 24.9263H44.235C44.2641 25.1651 44.2787 25.3033 44.2787 25.3408V26.5H43.446V22.3802H44.1231L44.2405 22.7513H44.2787C44.4734 22.4681 44.7619 22.3265 45.1441 22.3265C45.5045 22.3265 45.7866 22.457 45.9904 22.718C46.1943 22.979 46.2962 23.3415 46.2962 23.8055C46.2962 24.1109 46.248 24.3762 46.1515 24.6013C46.0569 24.8265 45.9213 24.998 45.7447 25.1157C45.5682 25.2334 45.3607 25.2922 45.1223 25.2922ZM44.8766 22.9509C44.6709 22.9509 44.5208 23.0106 44.4261 23.13C44.3315 23.2477 44.2823 23.443 44.2787 23.716V23.8004C44.2787 24.1075 44.3269 24.3275 44.4234 24.4606C44.5217 24.5937 44.6764 24.6602 44.8875 24.6602C45.2606 24.6602 45.4472 24.3719 45.4472 23.7953C45.4472 23.5138 45.4008 23.3031 45.3079 23.1633C45.2169 23.0217 45.0731 22.9509 44.8766 22.9509Z" fill="#545863"/>
<path d="M48.2482 22.8818C48.0717 22.8818 47.9333 22.9347 47.8332 23.0404C47.7331 23.1445 47.6758 23.2929 47.6612 23.4857H48.8297C48.8261 23.2929 48.7724 23.1445 48.6686 23.0404C48.5649 22.9347 48.4248 22.8818 48.2482 22.8818ZM48.3656 25.2922C47.8742 25.2922 47.4902 25.1651 47.2135 24.911C46.9369 24.6568 46.7985 24.2968 46.7985 23.8311C46.7985 23.3518 46.9259 22.9816 47.1808 22.7206C47.4374 22.4579 47.7914 22.3265 48.2427 22.3265C48.6741 22.3265 49.0099 22.4417 49.2501 22.672C49.4904 22.9023 49.6105 23.2204 49.6105 23.6264V24.0051H47.6421C47.6512 24.2269 47.7213 24.4 47.8523 24.5246C47.9834 24.6491 48.1672 24.7114 48.4038 24.7114C48.5876 24.7114 48.7615 24.6934 48.9253 24.6576C49.0891 24.6218 49.2602 24.5647 49.4385 24.4862V25.0901C49.2929 25.1583 49.1373 25.2086 48.9717 25.241C48.8061 25.2752 48.604 25.2922 48.3656 25.2922Z" fill="#545863"/>
<path d="M51.9911 22.3265C52.104 22.3265 52.1977 22.3342 52.2723 22.3495L52.2095 23.0814C52.1422 23.0643 52.0603 23.0558 51.9638 23.0558C51.6981 23.0558 51.4906 23.1198 51.3414 23.2477C51.1939 23.3756 51.1202 23.5548 51.1202 23.7851V25.241H50.2876V22.3802H50.9182L51.0411 22.8613H51.082C51.1767 22.701 51.3041 22.5722 51.4642 22.4749C51.6262 22.376 51.8018 22.3265 51.9911 22.3265Z" fill="#545863"/>
<path d="M54.1124 24.6704C54.258 24.6704 54.4327 24.6406 54.6366 24.5809V25.1617C54.4291 25.2487 54.1743 25.2922 53.8721 25.2922C53.5391 25.2922 53.2961 25.2137 53.1432 25.0568C52.9922 24.8982 52.9166 24.661 52.9166 24.3454V22.9662H52.518V22.6361L52.9767 22.3751L53.2169 21.7712H53.7493V22.3802H54.6038V22.9662H53.7493V24.3454C53.7493 24.4563 53.782 24.5382 53.8476 24.5911C53.9149 24.644 54.0032 24.6704 54.1124 24.6704Z" fill="#545863"/>
<path d="M54.8195 22.3802H55.7313L56.3074 23.9898C56.3565 24.1296 56.3902 24.2951 56.4084 24.4862H56.4248C56.4448 24.3105 56.4839 24.145 56.5421 23.9898L57.1073 22.3802H58L56.7087 25.607C56.5904 25.9055 56.4211 26.129 56.2009 26.2774C55.9825 26.4258 55.7268 26.5 55.4337 26.5C55.29 26.5 55.1489 26.4855 55.0106 26.4565V25.8373C55.1107 25.8594 55.2199 25.8705 55.3382 25.8705C55.4856 25.8705 55.6139 25.8279 55.7231 25.7426C55.8341 25.659 55.9206 25.5319 55.9825 25.3613L56.0316 25.2206L54.8195 22.3802Z" fill="#545863"/>
</svg>
