<svg width="18" height="14" viewBox="0 0 18 14" fill="none" xmlns="http://www.w3.org/2000/svg">
<path d="M14.8333 0.333344H3.16663C2.50358 0.333344 1.8677 0.596736 1.39886 1.06558C0.930018 1.53442 0.666626 2.1703 0.666626 2.83334V11.1667C0.666626 11.8297 0.930018 12.4656 1.39886 12.9344C1.8677 13.4033 2.50358 13.6667 3.16663 13.6667H14.8333C15.4963 13.6667 16.1322 13.4033 16.6011 12.9344C17.0699 12.4656 17.3333 11.8297 17.3333 11.1667V2.83334C17.3333 2.1703 17.0699 1.53442 16.6011 1.06558C16.1322 0.596736 15.4963 0.333344 14.8333 0.333344V0.333344ZM14.4916 2.00001L9.59163 6.90001C9.51416 6.97812 9.42199 7.04011 9.32044 7.08242C9.21889 7.12473 9.10997 7.14651 8.99996 7.14651C8.88995 7.14651 8.78103 7.12473 8.67948 7.08242C8.57793 7.04011 8.48576 6.97812 8.40829 6.90001L3.50829 2.00001H14.4916ZM15.6666 11.1667C15.6666 11.3877 15.5788 11.5997 15.4225 11.7559C15.2663 11.9122 15.0543 12 14.8333 12H3.16663C2.94561 12 2.73365 11.9122 2.57737 11.7559C2.42109 11.5997 2.33329 11.3877 2.33329 11.1667V3.17501L7.23329 8.07501C7.70204 8.54318 8.33746 8.80614 8.99996 8.80614C9.66246 8.80614 10.2979 8.54318 10.7666 8.07501L15.6666 3.17501V11.1667Z" fill="#E3004C"/>
</svg>
