<svg width="16" height="16" viewBox="0 0 16 16" fill="none" xmlns="http://www.w3.org/2000/svg">
<path d="M11.1969 6.4792C11.1386 6.00504 10.9928 5.63273 10.734 5.30295C10.398 4.87832 9.96848 4.62404 9.33265 4.4732C8.91827 4.37266 8.75085 4.3842 8.60098 4.5211C8.46139 4.64935 8.43413 4.90647 8.54081 5.07298C8.61583 5.19383 8.70238 5.23712 8.9431 5.28437C9.26365 5.34335 9.48518 5.41989 9.6867 5.53511C10.1144 5.78208 10.3136 6.16855 10.3349 6.79423C10.3449 7.088 10.3703 7.17831 10.4729 7.28251C10.6631 7.47297 11.0015 7.43593 11.1451 7.20801C11.1978 7.1221 11.2058 7.08471 11.2114 6.88523C11.215 6.76173 11.2097 6.5779 11.1969 6.4792V6.4792Z" fill="white"/>
<path d="M12.8721 7.01386C12.7877 5.56118 12.2195 4.39242 11.2026 3.57011C10.6296 3.10805 9.9371 2.79033 9.17797 2.63582C8.89989 2.58055 8.38791 2.53576 8.30007 2.56138C8.21718 2.58511 8.09996 2.67485 8.04771 2.75601C7.99245 2.84402 7.98 3.04053 8.02713 3.15419C8.10321 3.34421 8.24475 3.41133 8.64111 3.44601C9.25217 3.49947 9.88242 3.71415 10.3586 4.03198C10.9023 4.39384 11.3345 4.88879 11.6141 5.4704C11.8556 5.97012 12.0042 6.69027 12.0001 7.33516C11.9987 7.5684 12.0347 7.70012 12.1285 7.79643C12.2701 7.9445 12.4765 7.97688 12.6586 7.87853C12.8605 7.77237 12.9077 7.58603 12.8721 7.01386V7.01386Z" fill="white"/>
<path d="M14.7261 12.6082C14.6976 12.5252 14.6313 12.3971 14.584 12.3235C14.2855 11.8729 12.6822 10.6181 11.8817 10.2078C11.4246 9.97297 11.0859 9.89471 10.8349 9.9682C10.5649 10.0441 10.4228 10.1698 9.97042 10.732C9.78808 10.9573 9.60098 11.1684 9.55124 11.2016C9.42808 11.287 9.18651 11.3558 9.016 11.3558C8.62048 11.3534 7.90287 11.0973 7.35104 10.7604C6.92237 10.4996 6.37295 10.0323 5.95136 9.56975C5.45399 9.02658 5.11535 8.54745 4.8477 8.00664C4.50194 7.31167 4.41431 6.88708 4.55876 6.57635C4.59429 6.49808 4.64167 6.41509 4.66296 6.38896C4.68429 6.36528 4.90692 6.18262 5.1532 5.98337C5.63637 5.59914 5.71452 5.51138 5.80451 5.24809C5.91819 4.91363 5.88742 4.57207 5.71216 4.22816C5.57715 3.96723 5.22427 3.39798 4.9685 3.03033C4.62982 2.54648 3.78669 1.51232 3.61851 1.37233C3.31537 1.12568 2.927 1.08296 2.49829 1.24903C2.04597 1.42455 1.19808 2.10766 0.835715 2.58442C0.508882 3.01611 0.383401 3.32207 0.364434 3.7253C0.347868 4.05736 0.376277 4.19493 0.551539 4.61952C1.92281 7.9497 3.96903 10.6086 6.78028 12.7197C8.24865 13.8226 9.77149 14.6623 11.3512 15.2363C12.2724 15.5707 12.6727 15.5873 13.144 15.3122C13.3429 15.1936 13.8356 14.6884 14.1103 14.3207C14.565 13.7088 14.7332 13.4265 14.7805 13.2012C14.8137 13.047 14.7876 12.779 14.7261 12.6082V12.6082Z" fill="white"/>
<path d="M14.5776 7.3475C14.5473 6.52578 14.4089 5.85177 14.1204 5.1003C13.8356 4.36111 13.5473 3.87875 13.003 3.22634C12.4883 2.61463 12.0885 2.26535 11.4545 1.87656C10.5699 1.33486 9.49345 0.976389 8.28705 0.82563C7.87563 0.77294 7.78255 0.776704 7.65634 0.860924C7.41174 1.02047 7.41501 1.4184 7.66037 1.57556C7.74159 1.62555 7.81366 1.64376 8.14275 1.68683C8.64794 1.75485 8.97278 1.81895 9.35824 1.92411C10.8698 2.3373 12.0321 3.18188 12.8092 4.43561C13.4595 5.4806 13.7295 6.52568 13.6911 7.86041C13.6778 8.31164 13.6875 8.39105 13.7565 8.49946C13.8886 8.70154 14.2369 8.74151 14.4156 8.57383C14.5268 8.47164 14.5478 8.39491 14.5697 8.00871C14.5802 7.80724 14.5824 7.50984 14.5776 7.3475V7.3475Z" fill="white"/>
</svg>
