<svg width="15" height="15" viewBox="0 0 15 15" fill="none" xmlns="http://www.w3.org/2000/svg">
<path fill-rule="evenodd" clip-rule="evenodd" d="M7.39549 14.6762H7.39254C6.1983 14.6757 5.02485 14.3761 3.98263 13.8076L0.199951 14.7999L1.21226 11.1023C0.587818 10.0202 0.259241 8.79265 0.259776 7.53502C0.261341 3.60075 3.46236 0.399902 7.39542 0.399902C9.30427 0.400726 11.0959 1.14384 12.4431 2.49261C13.7902 3.84131 14.5318 5.63407 14.531 7.54065C14.5294 11.474 11.3297 14.6746 7.39549 14.6762ZM4.15789 12.5158L4.37445 12.6444C5.28504 13.1847 6.32885 13.4707 7.39309 13.4711H7.39549C10.6644 13.4711 13.3249 10.8105 13.3262 7.54024C13.3268 5.95551 12.7105 4.46544 11.5908 3.3444C10.471 2.22335 8.98194 1.60567 7.39782 1.60512C4.12641 1.60512 1.46584 4.26546 1.46454 7.53544C1.46408 8.65609 1.77764 9.74746 2.37132 10.6917L2.51234 10.9161L1.91319 13.1047L4.15789 12.5158ZM10.7462 9.07693C10.8705 9.13703 10.9545 9.17761 10.9903 9.23747C11.0349 9.31181 11.0349 9.66878 10.8864 10.0853C10.7378 10.5018 10.0255 10.8819 9.6829 10.9331C9.37574 10.979 8.98702 10.9981 8.55993 10.8624C8.30096 10.7803 7.96888 10.6706 7.54351 10.4868C5.87203 9.76511 4.74246 8.14509 4.52898 7.83892C4.51402 7.81747 4.50356 7.80247 4.49773 7.79467L4.49629 7.79275C4.40193 7.66686 3.76971 6.82332 3.76971 5.95029C3.76971 5.12902 4.17313 4.69855 4.35882 4.50041C4.37154 4.48683 4.38324 4.47435 4.39372 4.4629C4.55715 4.2844 4.75032 4.23978 4.86917 4.23978C4.98802 4.23978 5.10701 4.24088 5.21089 4.2461C5.22371 4.24674 5.23704 4.24666 5.25082 4.24658C5.35472 4.24597 5.48426 4.24521 5.61204 4.55215C5.6612 4.67027 5.73312 4.84538 5.80899 5.03007C5.96241 5.40358 6.13193 5.81629 6.16175 5.87601C6.20634 5.96526 6.23604 6.06933 6.17662 6.18838C6.16769 6.20623 6.15944 6.22307 6.15156 6.23917C6.10692 6.3303 6.07409 6.39733 5.99833 6.48579C5.96854 6.52057 5.93775 6.55807 5.90696 6.59557C5.84562 6.67027 5.78429 6.74496 5.73088 6.79816C5.64162 6.88707 5.54871 6.98353 5.65271 7.16203C5.75671 7.34053 6.11454 7.92436 6.64457 8.39714C7.21434 8.90535 7.70953 9.12015 7.96054 9.22902C8.00955 9.25028 8.04926 9.26751 8.07839 9.28209C8.25661 9.37136 8.36062 9.35642 8.46463 9.23747C8.56864 9.11848 8.91033 8.71683 9.02917 8.53837C9.14801 8.35993 9.26692 8.38965 9.43032 8.44913C9.59378 8.50869 10.4704 8.93996 10.6486 9.0292C10.6835 9.04663 10.716 9.06235 10.7462 9.07693Z" fill="#FDFDFD"/>
</svg>
