<svg width="12" height="13" viewBox="0 0 12 13" fill="none" xmlns="http://www.w3.org/2000/svg">
<path d="M2.48572 0.0244902C2.63143 0.0122451 2.75633 0.0477559 2.83715 0.181228C3.01838 0.47511 3.20083 0.768993 3.37349 1.07022C3.57308 1.41798 3.75676 1.77554 3.95268 2.12697C4.00288 2.22126 4.07268 2.30698 4.13146 2.39759C4.18534 2.48331 4.23677 2.57147 4.28697 2.65719C4.38983 2.85189 4.38493 3.04781 4.23187 3.20332C4.0139 3.42618 3.7739 3.63312 3.54247 3.84496C3.349 4.02252 3.14818 4.19272 2.9596 4.37395C2.81266 4.516 2.7747 4.69355 2.87389 4.8809C3.02695 5.16743 3.17879 5.45397 3.34655 5.73438C3.9686 6.77154 4.76331 7.65319 5.7674 8.33279C6.15435 8.59606 6.55721 8.83729 6.96375 9.0675C7.34702 9.28424 7.49641 9.2475 7.79397 8.91566C8.07071 8.60831 8.33765 8.29606 8.61317 7.98626C8.67929 7.91156 8.75888 7.84544 8.83603 7.78176C8.99276 7.64952 9.1642 7.63482 9.3442 7.72544C9.3944 7.74993 9.44828 7.77197 9.49236 7.80381C9.96992 8.14544 10.5038 8.38667 11.0083 8.67688C11.2789 8.83239 11.5422 8.99893 11.8079 9.15811C11.9512 9.24261 12.0087 9.36628 11.9989 9.53649C11.972 10.0153 11.8924 10.4855 11.6144 10.8896C11.4981 11.0573 11.3328 11.2043 11.1663 11.323C10.7046 11.6463 10.1891 11.8459 9.64053 11.9684C9.14215 12.0798 8.645 12.0394 8.16745 11.89C7.24539 11.6059 6.3368 11.2802 5.50046 10.7867C4.74126 10.3373 4.05064 9.79486 3.41145 9.18873C2.60204 8.41851 1.87958 7.5785 1.29549 6.62215C0.914669 6.00133 0.642827 5.33274 0.396701 4.65069C0.24731 4.23926 0.100369 3.83149 0.0342456 3.39557C-0.041674 2.90209 0.01098 2.42698 0.168942 1.95922C0.310985 1.53676 0.488539 1.13267 0.756707 0.771442C0.967323 0.491029 1.23059 0.285311 1.57101 0.193473C1.84407 0.121227 2.11959 0.0636746 2.39388 0C2.42939 0.0281638 2.45755 0.0281638 2.48572 0.0244902Z" fill="white"/>
</svg>
