<svg width="24" height="24" viewBox="0 0 24 24" fill="none" xmlns="http://www.w3.org/2000/svg">
<path fill-rule="evenodd" clip-rule="evenodd" d="M6 12H20C20.2652 12 20.5196 12.1054 20.7071 12.2929C20.8946 12.4804 21 12.7348 21 13C21 13.2652 20.8946 13.5196 20.7071 13.7071C20.5196 13.8946 20.2652 14 20 14V16C19.9974 16.6183 19.8039 17.2206 19.4459 17.7247C19.0879 18.2288 18.5829 18.6099 18 18.816V20C18 20.2652 17.8946 20.5196 17.7071 20.7071C17.5196 20.8946 17.2652 21 17 21C16.7348 21 16.4804 20.8946 16.2929 20.7071C16.1054 20.5196 16 20.2652 16 20V19H8V20C8 20.2652 7.89464 20.5196 7.70711 20.7071C7.51957 20.8946 7.26522 21 7 21C6.73478 21 6.48043 20.8946 6.29289 20.7071C6.10536 20.5196 6 20.2652 6 20V18.816C5.41709 18.6099 4.91209 18.2288 4.55409 17.7247C4.19608 17.2206 4.00256 16.6183 4 16V14C3.73478 14 3.48043 13.8946 3.29289 13.7071C3.10536 13.5196 3 13.2652 3 13C3 12.7348 3.10536 12.4804 3.29289 12.2929C3.48043 12.1054 3.73478 12 4 12V7C4 5.93913 4.42143 4.92172 5.17157 4.17157C5.92172 3.42143 6.93913 3 8 3H9C9.90925 3.00107 10.791 3.31188 11.4999 3.88121C11.9394 4.23411 12.2962 4.67328 12.5509 5.16757C13.5102 5.48692 14.451 6.31274 14.8465 8.06167C15.228 8.20259 15.5 8.56953 15.5 9C15.5 9.55228 15.0523 10 14.5 10H14.0406H11.4992H8.95778H8.5C7.94772 10 7.5 9.55228 7.5 9C7.5 8.57018 7.77118 8.20369 8.15177 8.0623C8.49629 6.53801 9.25505 5.71478 10.0793 5.31689C9.75739 5.11028 9.38284 5.00021 9 5H8C7.46957 5 6.96086 5.21071 6.58579 5.58579C6.21071 5.96086 6 6.46957 6 7V12ZM10.2515 8H10.2533H10.2578H10.2622H10.2666H10.2711H10.2756H10.2801H10.2846H10.2891H10.2936H10.2982H10.3027H10.3073H10.3119H10.3165H10.3211H10.3258H10.3304H10.3351H10.3398H10.3445H10.3492H10.3539H10.3587H10.3634H10.3682H10.373H10.3778H10.3826H10.3875H10.3923H10.3972H10.4021H10.407H10.4119H10.4168H10.4218H10.4268H10.4318H10.4368H10.4418H10.4468H10.4519H10.457H10.4621H10.4672H10.4723H10.4775H10.4826H10.4878H10.493H10.4983H10.5035H10.5088H10.514H10.5193H10.5247H10.53H10.5354H10.5407H10.5461H10.5516H10.557H10.5624H10.5679H10.5734H10.5789H10.5845H10.59H10.5956H10.6012H10.6068H10.6125H10.6181H10.6238H10.6295H10.6352H10.641H10.6468H10.6526H10.6584H10.6642H10.6701H10.6759H10.6818H10.6878H10.6937H10.6997H10.7057H10.7117H10.7177H10.7238H10.7298H10.7359H10.7421H10.7482H10.7544H10.7606H10.7668H10.7731H10.7793H10.7856H10.7919H10.7983H10.8046H10.811H10.8174H10.8239H10.8303H10.8368H10.8433H10.8499H10.8564H10.863H10.8696H10.8763H10.8829H10.8896H10.8963H10.9031H10.9099H10.9166H10.9235H10.9303H10.9372H10.9441H10.951H10.958H10.9649H10.9719H10.979H10.986H10.9931H11.0002H11.0074H11.0146H11.0218H11.029H11.0362H11.0435H11.0508H11.0582H11.0655H11.0729H11.0803H11.0878H11.0953H11.1028H11.1103H11.1179H11.1255H11.1331H11.1408H11.1484H11.1562H11.1639H11.1717H11.1795H11.1873H11.1952H11.2031H11.211H11.2189H11.2269H11.2349H11.243H11.2511H11.2592H11.2673H11.2755H11.2837H11.2919H11.3002H11.3085H11.3168H11.3252H11.3336H11.342H11.3504H11.3589H11.3675H11.376H11.3846H11.3932H11.4019H11.4105H11.4193H11.428H11.4368H11.4456H11.4545H11.4633H11.4723H11.4812H11.4902H11.4992H11.5082H11.5172H11.5262H11.5351H11.544H11.5528H11.5616H11.5704H11.5792H11.5879H11.5966H11.6052H11.6138H11.6224H11.631H11.6395H11.648H11.6564H11.6649H11.6732H11.6816H11.6899H11.6982H11.7065H11.7147H11.7229H11.7311H11.7392H11.7473H11.7554H11.7635H11.7715H11.7795H11.7874H11.7953H11.8032H11.8111H11.8189H11.8267H11.8345H11.8423H11.85H11.8577H11.8653H11.8729H11.8805H11.8881H11.8956H11.9031H11.9106H11.9181H11.9255H11.9329H11.9403H11.9476H11.9549H11.9622H11.9694H11.9767H11.9839H11.991H11.9982H12.0053H12.0124H12.0194H12.0265H12.0335H12.0405H12.0474H12.0543H12.0612H12.0681H12.0749H12.0818H12.0886H12.0953H12.1021H12.1088H12.1155H12.1221H12.1288H12.1354H12.142H12.1485H12.1551H12.1616H12.1681H12.1745H12.181H12.1874H12.1938H12.2001H12.2065H12.2128H12.2191H12.2254H12.2316H12.2378H12.244H12.2502H12.2564H12.2625H12.2686H12.2747H12.2807H12.2868H12.2928H12.2988H12.3047H12.3107H12.3166H12.3225H12.3284H12.3342H12.3401H12.3459H12.3517H12.3574H12.3632H12.3689H12.3746H12.3803H12.3859H12.3916H12.3972H12.4028H12.4084H12.4139H12.4195H12.425H12.4305H12.436H12.4414H12.4469H12.4523H12.4577H12.4631H12.4684H12.4738H12.4791H12.4844H12.4897H12.4949H12.5002H12.5054H12.5106H12.5158H12.5209H12.5261H12.5312H12.5363H12.5414H12.5465H12.5516H12.5566H12.5617H12.5667H12.5717H12.5766H12.5816H12.5865H12.5914H12.5963H12.6012H12.6061H12.611H12.6158H12.6206H12.6254H12.6302H12.635H12.6398H12.6445H12.6492H12.6539H12.6586H12.6633H12.668H12.6726H12.6773H12.6819H12.6865H12.6911H12.6957H12.7002H12.7048H12.7093H12.7138H12.7183H12.7228H12.7273H12.7318H12.7362H12.7407H12.7451H12.7469C12.5972 7.60823 12.4222 7.39896 12.3018 7.28919C12.0819 7.08869 11.8022 7 11.4992 7C11.1963 7 10.9165 7.08869 10.6966 7.28919C10.5762 7.39896 10.4012 7.60823 10.2515 8ZM17.7071 16.7071C17.8946 16.5196 18 16.2652 18 16V14H6V16C6 16.2652 6.10536 16.5196 6.29289 16.7071C6.48043 16.8946 6.73478 17 7 17H17C17.2652 17 17.5196 16.8946 17.7071 16.7071Z" fill="#545863"/>
</svg>
