<svg width="16" height="16" viewBox="0 0 16 16" fill="none" xmlns="http://www.w3.org/2000/svg">
<path d="M6.57307 8.23951C6.50363 8.17011 6.42373 8.13538 6.33347 8.13538C6.24316 8.13538 6.16326 8.17007 6.09386 8.23951L2.6355 11.6979L1.13551 10.1977C1.00354 10.066 0.847451 9.9999 0.666775 9.9999C0.486098 9.9999 0.32983 10.066 0.197898 10.1977C0.0659295 10.3298 0 10.4861 0 10.6667V15.3334C0 15.514 0.0659295 15.6702 0.197898 15.8022C0.329939 15.934 0.486207 16.0001 0.666775 16.0001H5.3335C5.51407 16.0001 5.67027 15.934 5.80223 15.8022C5.93413 15.6702 6.00013 15.514 6.00013 15.3334C6.00013 15.1529 5.93413 14.9966 5.80223 14.8645L4.30224 13.3647L7.7606 9.90617C7.83 9.83674 7.86469 9.75709 7.86469 9.66668C7.86469 9.57627 7.82992 9.49665 7.7606 9.42697L6.57307 8.23951Z" fill="#545863"/>
<path d="M15.8036 0.197898C15.6718 0.0659295 15.5155 0 15.3349 0H10.6681C10.4876 0 10.3315 0.0659295 10.1994 0.197898C10.0675 0.329793 10.0016 0.486061 10.0016 0.666629C10.0016 0.847196 10.0675 1.0035 10.1994 1.13536L11.6992 2.63536L8.24085 6.09372C8.17149 6.16326 8.13672 6.24305 8.13672 6.33332C8.13672 6.42358 8.17149 6.50352 8.24085 6.57292L9.42853 7.76045C9.49792 7.82989 9.57761 7.86455 9.66798 7.86455C9.75836 7.86455 9.83804 7.82989 9.90744 7.76045L13.3661 4.30209L14.8658 5.80198C14.9978 5.93391 15.1542 6.00002 15.3347 6.00002C15.5153 6.00002 15.6715 5.93391 15.8035 5.80198C15.9353 5.67012 16.0013 5.51382 16.0013 5.33325V0.666519C16.0014 0.485806 15.9358 0.32983 15.8036 0.197898Z" fill="#545863"/>
</svg>
