<svg width="90" height="90" viewBox="0 0 90 90" fill="none" xmlns="http://www.w3.org/2000/svg">
<path d="M0 0H45C69.8528 0 90 20.1472 90 45V90H0V0Z" fill="#E3004C"/>
<path d="M61.32 30.2201C59.1966 28.0961 56.3814 26.8048 53.3865 26.5809C50.3915 26.357 47.4156 27.2154 45 29.0001C42.4553 27.1074 39.288 26.2491 36.1358 26.5982C32.9837 26.9472 30.0809 28.4777 28.0119 30.8813C25.943 33.2849 24.8616 36.3832 24.9856 39.5521C25.1096 42.7211 26.4296 45.7255 28.68 47.9601L43.58 62.8601C43.7659 63.0476 43.9871 63.1964 44.2308 63.2979C44.4746 63.3994 44.736 63.4517 45 63.4517C45.264 63.4517 45.5254 63.3994 45.7692 63.2979C46.0129 63.1964 46.2341 63.0476 46.42 62.8601L61.32 47.9601C62.4853 46.7956 63.4097 45.4128 64.0404 43.8908C64.6711 42.3689 64.9958 40.7376 64.9958 39.0901C64.9958 37.4427 64.6711 35.8113 64.0404 34.2894C63.4097 32.7674 62.4853 31.3847 61.32 30.2201ZM58.5 45.1401L45 58.6201L31.5 45.1401C30.3104 43.9455 29.5 42.4262 29.1705 40.7728C28.841 39.1194 29.0071 37.4055 29.6479 35.8461C30.2887 34.2867 31.3758 32.9513 32.7727 32.0074C34.1696 31.0634 35.8141 30.553 37.5 30.5401C39.7522 30.5456 41.9102 31.4448 43.5 33.0401C43.6859 33.2276 43.9071 33.3764 44.1508 33.4779C44.3946 33.5794 44.656 33.6317 44.92 33.6317C45.184 33.6317 45.4454 33.5794 45.6892 33.4779C45.9329 33.3764 46.1541 33.2276 46.34 33.0401C47.9767 31.6219 50.091 30.8784 52.2551 30.9602C54.4192 31.0419 56.4714 31.9428 57.9964 33.4805C59.5213 35.0182 60.4052 37.0778 60.469 39.2425C60.5328 41.4072 59.7718 43.5153 58.34 45.1401H58.5Z" fill="#FBE6ED"/>
</svg>
