<svg width="90" height="90" viewBox="0 0 90 90" fill="none" xmlns="http://www.w3.org/2000/svg">
<path d="M0 0H45C69.8528 0 90 20.1472 90 45V90H0V0Z" fill="#E3004C"/>
<path d="M45 43C43.8133 43 42.6533 43.3519 41.6666 44.0112C40.6799 44.6705 39.9108 45.6075 39.4567 46.7039C39.0026 47.8003 38.8838 49.0067 39.1153 50.1705C39.3468 51.3344 39.9182 52.4035 40.7574 53.2426C41.5965 54.0818 42.6656 54.6532 43.8295 54.8847C44.9933 55.1162 46.1997 54.9974 47.2961 54.5433C48.3925 54.0892 49.3295 53.3201 49.9888 52.3334C50.6481 51.3467 51 50.1867 51 49C51 47.4087 50.3679 45.8826 49.2426 44.7574C48.1174 43.6321 46.5913 43 45 43ZM45 51C44.6044 51 44.2178 50.8827 43.8889 50.6629C43.56 50.4432 43.3036 50.1308 43.1522 49.7654C43.0009 49.3999 42.9613 48.9978 43.0384 48.6098C43.1156 48.2219 43.3061 47.8655 43.5858 47.5858C43.8655 47.3061 44.2219 47.1156 44.6098 47.0384C44.9978 46.9613 45.3999 47.0009 45.7654 47.1522C46.1308 47.3036 46.4432 47.56 46.6629 47.8889C46.8827 48.2178 47 48.6044 47 49C47 49.5304 46.7893 50.0391 46.4142 50.4142C46.0391 50.7893 45.5304 51 45 51ZM59 33H53V31C53 29.4087 52.3679 27.8826 51.2426 26.7574C50.1174 25.6321 48.5913 25 47 25H43C41.4087 25 39.8826 25.6321 38.7574 26.7574C37.6321 27.8826 37 29.4087 37 31V33H31C29.4087 33 27.8826 33.6321 26.7574 34.7574C25.6321 35.8826 25 37.4087 25 39V59C25 60.5913 25.6321 62.1174 26.7574 63.2426C27.8826 64.3679 29.4087 65 31 65H59C60.5913 65 62.1174 64.3679 63.2426 63.2426C64.3679 62.1174 65 60.5913 65 59V39C65 37.4087 64.3679 35.8826 63.2426 34.7574C62.1174 33.6321 60.5913 33 59 33ZM41 31C41 30.4696 41.2107 29.9609 41.5858 29.5858C41.9609 29.2107 42.4696 29 43 29H47C47.5304 29 48.0391 29.2107 48.4142 29.5858C48.7893 29.9609 49 30.4696 49 31V33H41V31ZM29 39C29 38.4696 29.2107 37.9609 29.5858 37.5858C29.9609 37.2107 30.4696 37 31 37H33C33 38.0609 32.5786 39.0783 31.8284 39.8284C31.0783 40.5786 30.0609 41 29 41V39ZM31 61C30.4696 61 29.9609 60.7893 29.5858 60.4142C29.2107 60.0391 29 59.5304 29 59V57C30.0609 57 31.0783 57.4214 31.8284 58.1716C32.5786 58.9217 33 59.9391 33 61H31ZM61 59C61 59.5304 60.7893 60.0391 60.4142 60.4142C60.0391 60.7893 59.5304 61 59 61H57C57 59.9391 57.4214 58.9217 58.1716 58.1716C58.9217 57.4214 59.9391 57 61 57V59ZM61 53C58.8783 53 56.8434 53.8429 55.3431 55.3431C53.8429 56.8434 53 58.8783 53 61H37C37 58.8783 36.1571 56.8434 34.6569 55.3431C33.1566 53.8429 31.1217 53 29 53V45C31.1217 45 33.1566 44.1571 34.6569 42.6569C36.1571 41.1566 37 39.1217 37 37H53C53 39.1217 53.8429 41.1566 55.3431 42.6569C56.8434 44.1571 58.8783 45 61 45V53ZM61 41C59.9391 41 58.9217 40.5786 58.1716 39.8284C57.4214 39.0783 57 38.0609 57 37H59C59.5304 37 60.0391 37.2107 60.4142 37.5858C60.7893 37.9609 61 38.4696 61 39V41Z" fill="#FBE6ED"/>
</svg>
