<svg width="90" height="90" viewBox="0 0 90 90" fill="none" xmlns="http://www.w3.org/2000/svg">
<path d="M0 0H45C69.8528 0 90 20.1472 90 45V90H0V0Z" fill="#E3004C"/>
<path d="M36.5156 42.5156C37.7023 42.5156 38.8623 42.1637 39.849 41.5044C40.8357 40.8451 41.6047 39.908 42.0588 38.8117C42.513 37.7153 42.6318 36.5089 42.4003 35.345C42.1688 34.1811 41.5973 33.112 40.7582 32.2729C39.9191 31.4338 38.85 30.8624 37.6861 30.6309C36.5222 30.3993 35.3158 30.5182 34.2195 30.9723C33.1231 31.4264 32.186 32.1955 31.5268 33.1821C30.8675 34.1688 30.5156 35.3289 30.5156 36.5156C30.5173 38.1063 31.15 39.6314 32.2748 40.7563C33.3997 41.8811 34.9248 42.5138 36.5156 42.5156ZM36.5156 34.5156C36.9111 34.5156 37.2978 34.6329 37.6267 34.8526C37.9556 35.0724 38.212 35.3847 38.3633 35.7502C38.5147 36.1157 38.5543 36.5178 38.4771 36.9057C38.4 37.2937 38.2095 37.6501 37.9298 37.9298C37.6501 38.2095 37.2937 38.4 36.9057 38.4771C36.5178 38.5543 36.1157 38.5147 35.7502 38.3633C35.3847 38.2119 35.0724 37.9556 34.8526 37.6267C34.6329 37.2978 34.5156 36.9111 34.5156 36.5156C34.5159 35.9852 34.7268 35.4767 35.1017 35.1017C35.4767 34.7267 35.9852 34.5159 36.5156 34.5156ZM53.4843 47.4843C52.2976 47.4843 51.1376 47.8362 50.1509 48.4955C49.1642 49.1548 48.3952 50.0919 47.9411 51.1882C47.4869 52.2846 47.3681 53.491 47.5996 54.6549C47.8311 55.8188 48.4026 56.8878 49.2417 57.727C50.0808 58.5661 51.1499 59.1375 52.3138 59.369C53.4777 59.6005 54.6841 59.4817 55.7804 59.0276C56.8768 58.5735 57.8139 57.8044 58.4731 56.8177C59.1324 55.8311 59.4843 54.671 59.4843 53.4843C59.4826 51.8936 58.8499 50.3684 57.725 49.2436C56.6002 48.1188 55.0751 47.4861 53.4843 47.4843ZM53.4843 55.4843C53.0888 55.4843 52.7021 55.367 52.3732 55.1473C52.0443 54.9275 51.7879 54.6151 51.6366 54.2497C51.4852 53.8842 51.4456 53.4821 51.5228 53.0941C51.5999 52.7062 51.7904 52.3498 52.0701 52.0701C52.3498 51.7904 52.7062 51.5999 53.0941 51.5228C53.4821 51.4456 53.8842 51.4852 54.2497 51.6366C54.6151 51.7879 54.9275 52.0443 55.1473 52.3732C55.367 52.7021 55.4843 53.0888 55.4843 53.4843C55.484 54.0146 55.2731 54.5231 54.8981 54.8981C54.5232 55.2731 54.0147 55.484 53.4843 55.4843ZM60.4139 29.5859C60.2283 29.4002 60.0078 29.2528 59.7652 29.1523C59.5226 29.0517 59.2625 29 58.9999 29C58.7373 29 58.4772 29.0517 58.2346 29.1523C57.9919 29.2528 57.7715 29.4002 57.5858 29.5859L29.5858 57.5859C29.3982 57.7712 29.2491 57.9918 29.1471 58.2349C29.045 58.478 28.992 58.7389 28.9912 59.0026C28.9904 59.2663 29.0417 59.5275 29.1422 59.7713C29.2428 60.015 29.3905 60.2365 29.577 60.4229C29.7634 60.6094 29.9849 60.7571 30.2287 60.8576C30.4724 60.9581 30.7337 61.0094 30.9973 61.0086C31.261 61.0078 31.5219 60.9548 31.765 60.8527C32.0081 60.7507 32.2287 60.6016 32.4139 60.4139L60.4139 32.4139C60.5997 32.2283 60.747 32.0079 60.8476 31.7652C60.9481 31.5226 60.9998 31.2626 60.9998 30.9999C60.9998 30.7373 60.9481 30.4773 60.8476 30.2347C60.747 29.992 60.5997 29.7716 60.4139 29.5859Z" fill="#FBE6ED"/>
</svg>
