<svg width="90" height="90" viewBox="0 0 90 90" fill="none" xmlns="http://www.w3.org/2000/svg">
<path d="M0 0H45C69.8528 0 90 20.1472 90 45V90H0V0Z" fill="#E3004C"/>
<path d="M64.32 41.4999L46.32 25.4999C45.955 25.1793 45.4858 25.0024 45 25.0024C44.5142 25.0024 44.045 25.1793 43.68 25.4999L25.68 41.4999C25.3741 41.7705 25.1583 42.1283 25.0618 42.5252C24.9653 42.9221 24.9925 43.339 25.14 43.7199C25.285 44.0958 25.5402 44.4191 25.8721 44.6475C26.204 44.8759 26.5971 44.9987 27 44.9999H29V62.9999C29 63.5303 29.2107 64.0391 29.5858 64.4141C29.9609 64.7892 30.4696 64.9999 31 64.9999H59C59.5304 64.9999 60.0391 64.7892 60.4142 64.4141C60.7893 64.0391 61 63.5303 61 62.9999V44.9999H63C63.4029 44.9987 63.796 44.8759 64.1279 44.6475C64.4598 44.4191 64.715 44.0958 64.86 43.7199C65.0074 43.339 65.0347 42.9221 64.9382 42.5252C64.8417 42.1283 64.6259 41.7705 64.32 41.4999ZM47 60.9999H43V54.9999C43 54.4695 43.2107 53.9608 43.5858 53.5857C43.9609 53.2106 44.4696 52.9999 45 52.9999C45.5304 52.9999 46.0391 53.2106 46.4142 53.5857C46.7893 53.9608 47 54.4695 47 54.9999V60.9999ZM57 60.9999H51V54.9999C51 53.4086 50.3679 51.8825 49.2426 50.7573C48.1174 49.6321 46.5913 48.9999 45 48.9999C43.4087 48.9999 41.8826 49.6321 40.7574 50.7573C39.6321 51.8825 39 53.4086 39 54.9999V60.9999H33V44.9999H57V60.9999ZM32.26 40.9999L45 29.6799L57.74 40.9999H32.26Z" fill="#FBE6ED"/>
</svg>
