<svg width="90" height="90" viewBox="0 0 90 90" fill="none" xmlns="http://www.w3.org/2000/svg">
<path d="M0 0H45C69.8528 0 90 20.1472 90 45V90H0V0Z" fill="#E3004C"/>
<path d="M45 46.9999C46.1867 46.9999 47.3468 46.648 48.3334 45.9887C49.3201 45.3294 50.0892 44.3924 50.5433 43.296C50.9974 42.1996 51.1162 40.9932 50.8847 39.8294C50.6532 38.6655 50.0818 37.5964 49.2427 36.7573C48.4036 35.9181 47.3345 35.3467 46.1706 35.1152C45.0067 34.8837 43.8003 35.0025 42.7039 35.4566C41.6076 35.9107 40.6705 36.6798 40.0112 37.6665C39.3519 38.6532 39 39.8132 39 40.9999C39 42.5912 39.6322 44.1173 40.7574 45.2425C41.8826 46.3678 43.4087 46.9999 45 46.9999ZM45 38.9999C45.3956 38.9999 45.7823 39.1172 46.1112 39.337C46.4401 39.5567 46.6964 39.8691 46.8478 40.2345C46.9992 40.6 47.0388 41.0021 46.9616 41.3901C46.8844 41.778 46.6939 42.1344 46.4142 42.4141C46.1345 42.6938 45.7782 42.8843 45.3902 42.9615C45.0022 43.0386 44.6001 42.999 44.2347 42.8477C43.8692 42.6963 43.5568 42.4399 43.3371 42.111C43.1173 41.7821 43 41.3955 43 40.9999C43 40.4695 43.2107 39.9608 43.5858 39.5857C43.9609 39.2106 44.4696 38.9999 45 38.9999ZM64.18 57.3199C63.2034 54.0809 61.4212 51.1427 59 48.7799C60.3477 46.344 61.0366 43.5987 60.9985 40.8151C60.9604 38.0315 60.1968 35.306 58.7829 32.9079C57.369 30.5098 55.354 28.5221 52.9368 27.1412C50.5196 25.7603 47.7839 25.0339 45 25.0339C42.2162 25.0339 39.4805 25.7603 37.0633 27.1412C34.6461 28.5221 32.631 30.5098 31.2171 32.9079C29.8033 35.306 29.0396 38.0315 29.0015 40.8151C28.9634 43.5987 29.6523 46.344 31 48.7799C28.5646 51.1348 26.7742 54.0753 25.8 57.3199C25.5397 58.2097 25.4891 59.1477 25.6522 60.0603C25.8153 60.9729 26.1876 61.8354 26.74 62.5799C27.3028 63.3369 28.0362 63.9506 28.8806 64.371C29.7251 64.7915 30.6567 65.007 31.6 64.9999H58.4C59.3399 65.0038 60.2676 64.7869 61.1083 64.3665C61.949 63.9462 62.6792 63.3342 63.24 62.5799C63.7924 61.8354 64.1648 60.9729 64.3279 60.0603C64.491 59.1477 64.4404 58.2097 64.18 57.3199ZM45 28.9999C47.3734 28.9999 49.6935 29.7037 51.6669 31.0223C53.6403 32.3408 55.1783 34.215 56.0866 36.4077C56.9948 38.6004 57.2325 41.0132 56.7694 43.341C56.3064 45.6688 55.1635 47.807 53.4853 49.4852C51.8071 51.1634 49.6689 52.3063 47.3411 52.7693C45.0133 53.2323 42.6005 52.9947 40.4078 52.0865C38.2151 51.1782 36.341 49.6401 35.0224 47.6667C33.7038 45.6934 33 43.3733 33 40.9999C33 37.8173 34.2643 34.7651 36.5147 32.5146C38.7652 30.2642 41.8174 28.9999 45 28.9999ZM60.04 60.1799C59.8519 60.4375 59.6048 60.6463 59.3195 60.7889C59.0342 60.9316 58.719 61.0039 58.4 60.9999H31.6C31.2811 61.0039 30.9658 60.9316 30.6805 60.7889C30.3952 60.6463 30.1482 60.4375 29.96 60.1799C29.7802 59.9322 29.6596 59.6465 29.6076 59.3448C29.5556 59.0431 29.5735 58.7335 29.66 58.4399C30.3779 56.0224 31.6677 53.8134 33.42 51.9999C34.9142 53.567 36.711 54.8146 38.7014 55.667C40.6919 56.5194 42.8347 56.9589 45 56.9589C47.1653 56.9589 49.3081 56.5194 51.2986 55.667C53.2891 54.8146 55.0858 53.567 56.58 51.9999C58.3324 53.8134 59.6221 56.0224 60.34 58.4399C60.4265 58.7335 60.4444 59.0431 60.3924 59.3448C60.3404 59.6465 60.2199 59.9322 60.04 60.1799Z" fill="#FBE6ED"/>
</svg>
