<svg width="90" height="90" viewBox="0 0 90 90" fill="none" xmlns="http://www.w3.org/2000/svg">
<path d="M0 0H45C69.8528 0 90 20.1472 90 45V90H0V0Z" fill="#E3004C"/>
<path d="M41.92 33L43 31.82V39C43 39.5305 43.2107 40.0392 43.5858 40.4143C43.9609 40.7893 44.4696 41 45 41C45.5304 41 46.0391 40.7893 46.4142 40.4143C46.7893 40.0392 47 39.5305 47 39V31.82L48.08 32.92C48.2615 33.1251 48.4833 33.2907 48.7314 33.4065C48.9796 33.5223 49.2489 33.586 49.5226 33.5935C49.7964 33.601 50.0688 33.5522 50.3229 33.4501C50.577 33.348 50.8075 33.1948 51 33C51.1875 32.8141 51.3362 32.5929 51.4378 32.3492C51.5393 32.1055 51.5916 31.8441 51.5916 31.58C51.5916 31.316 51.5393 31.0546 51.4378 30.8109C51.3362 30.5672 51.1875 30.346 51 30.16L46.42 25.58C46.2298 25.398 46.0055 25.2552 45.76 25.16C45.2731 24.96 44.7269 24.96 44.24 25.16C43.9945 25.2552 43.7702 25.398 43.58 25.58L39 30.08C38.6128 30.4673 38.3952 30.9924 38.3952 31.54C38.3952 32.0876 38.6128 32.6128 39 33C39.3872 33.3873 39.9124 33.6048 40.46 33.6048C41.0076 33.6048 41.5328 33.3873 41.92 33ZM45 45C43.8133 45 42.6533 45.3519 41.6666 46.0112C40.6799 46.6705 39.9108 47.6076 39.4567 48.7039C39.0026 49.8003 38.8838 51.0067 39.1153 52.1706C39.3468 53.3345 39.9182 54.4036 40.7574 55.2427C41.5965 56.0818 42.6656 56.6532 43.8295 56.8847C44.9933 57.1163 46.1997 56.9974 47.2961 56.5433C48.3925 56.0892 49.3295 55.3202 49.9888 54.3335C50.6481 53.3468 51 52.1867 51 51C51 49.4087 50.3679 47.8826 49.2426 46.7574C48.1174 45.6322 46.5913 45 45 45ZM45 53C44.6044 53 44.2178 52.8827 43.8889 52.663C43.56 52.4432 43.3036 52.1309 43.1522 51.7654C43.0009 51.4 42.9613 50.9978 43.0384 50.6099C43.1156 50.2219 43.3061 49.8655 43.5858 49.5858C43.8655 49.3061 44.2219 49.1156 44.6098 49.0385C44.9978 48.9613 45.3999 49.0009 45.7654 49.1523C46.1308 49.3037 46.4432 49.56 46.6629 49.8889C46.8827 50.2178 47 50.6045 47 51C47 51.5305 46.7893 52.0392 46.4142 52.4142C46.0391 52.7893 45.5304 53 45 53ZM31 51C31 51.3956 31.1173 51.7823 31.3371 52.1112C31.5568 52.4401 31.8692 52.6964 32.2346 52.8478C32.6001 52.9992 33.0022 53.0388 33.3902 52.9616C33.7781 52.8844 34.1345 52.694 34.4142 52.4142C34.6939 52.1345 34.8844 51.7782 34.9616 51.3902C35.0387 51.0023 34.9991 50.6001 34.8478 50.2347C34.6964 49.8692 34.44 49.5569 34.1111 49.3371C33.7822 49.1173 33.3956 49 33 49C32.4696 49 31.9609 49.2108 31.5858 49.5858C31.2107 49.9609 31 50.4696 31 51ZM59 51C59 50.6045 58.8827 50.2178 58.6629 49.8889C58.4432 49.56 58.1308 49.3037 57.7654 49.1523C57.3999 49.0009 56.9978 48.9613 56.6098 49.0385C56.2219 49.1156 55.8655 49.3061 55.5858 49.5858C55.3061 49.8655 55.1156 50.2219 55.0384 50.6099C54.9613 50.9978 55.0009 51.4 55.1522 51.7654C55.3036 52.1309 55.56 52.4432 55.8889 52.663C56.2178 52.8827 56.6044 53 57 53C57.5304 53 58.0391 52.7893 58.4142 52.4142C58.7893 52.0392 59 51.5305 59 51ZM61 37H53C52.4696 37 51.9609 37.2108 51.5858 37.5858C51.2107 37.9609 51 38.4696 51 39C51 39.5305 51.2107 40.0392 51.5858 40.4143C51.9609 40.7893 52.4696 41 53 41H61C61.5304 41 62.0391 41.2108 62.4142 41.5858C62.7893 41.9609 63 42.4696 63 43V59C63 59.5305 62.7893 60.0392 62.4142 60.4143C62.0391 60.7893 61.5304 61 61 61H29C28.4696 61 27.9609 60.7893 27.5858 60.4143C27.2107 60.0392 27 59.5305 27 59V43C27 42.4696 27.2107 41.9609 27.5858 41.5858C27.9609 41.2108 28.4696 41 29 41H37C37.5304 41 38.0391 40.7893 38.4142 40.4143C38.7893 40.0392 39 39.5305 39 39C39 38.4696 38.7893 37.9609 38.4142 37.5858C38.0391 37.2108 37.5304 37 37 37H29C27.4087 37 25.8826 37.6322 24.7574 38.7574C23.6321 39.8826 23 41.4087 23 43V59C23 60.5913 23.6321 62.1175 24.7574 63.2427C25.8826 64.3679 27.4087 65 29 65H61C62.5913 65 64.1174 64.3679 65.2426 63.2427C66.3679 62.1175 67 60.5913 67 59V43C67 41.4087 66.3679 39.8826 65.2426 38.7574C64.1174 37.6322 62.5913 37 61 37Z" fill="#FBE6ED"/>
</svg>
