<svg width="24" height="32" viewBox="0 0 24 32" fill="none" xmlns="http://www.w3.org/2000/svg">
<path d="M23.2041 5.43062L21.0295 4.34058L12.6882 0.159477C12.2662 -0.0531591 11.7683 -0.0531591 11.3441 0.159477L3.00509 4.34058L0.830463 5.43062C0.582637 5.55373 0.381696 5.74174 0.236572 5.96557L12.0162 11.8702L23.7957 5.96557C23.6528 5.74174 23.4497 5.55373 23.2041 5.43062Z" fill="#E3004C"/>
<path d="M11.3442 31.8416C11.5563 31.9468 11.7863 32.0005 12.0162 32.0005V11.8699L0.236663 5.96533C0.0848415 6.20259 0 6.48237 0 6.77783V8.10513V19.9747C0 20.5455 0.321505 21.067 0.830554 21.3222C0.830554 21.3222 4.21736 22.5367 6.00812 23.9186C8.96145 26.1976 10 31.0005 11.3442 31.8416Z" fill="#0068B1"/>
<path d="M23.7955 5.96533L12.0159 11.8699V32.0005C12.2458 32.0005 12.4286 31.9158 12.6879 31.8416C13.9998 31.0005 15.0701 26.1959 18.024 23.9163C19.8147 22.5344 23.2016 21.3199 23.2016 21.3199C23.7106 21.0648 24.0321 20.5432 24.0321 19.9725V8.10513V6.77783C24.0343 6.48237 23.9473 6.20259 23.7955 5.96533Z" fill="#E8E9ED"/>
<path d="M18.0241 20.1517C15.8495 21.4096 14.0812 20.6598 14.0812 18.482C14.0812 16.3019 15.8495 13.5063 18.0241 12.2461C19.0779 11.6373 20.067 11.4739 20.8127 11.7895C21.0694 11.8992 21.0694 12.3155 20.8127 12.7206C20.5559 13.1258 20.1406 13.3675 19.8839 13.2578C19.3882 13.0474 18.7274 13.1549 18.0241 13.5622C16.5751 14.4016 15.3962 16.2661 15.3962 17.7187C15.3962 19.1713 16.5751 19.6705 18.0241 18.8334C19.2476 18.1261 20.2768 16.6891 20.5693 15.3842L19.3391 16.096C18.9752 16.3064 18.6827 16.181 18.6827 15.8184C18.6827 15.4536 18.9774 14.9902 19.3391 14.7798L21.3106 13.6383C21.6745 13.4279 21.967 13.5533 21.967 13.9159C21.967 16.096 20.1987 18.8938 18.0241 20.1517Z" fill="#E3004C"/>
<path d="M18.0292 5.09834L13.4768 2.75486C13.0593 2.53998 12.4542 2.48403 12.1193 2.65861L6.03752 5.81011C5.70262 5.98469 5.7763 6.29134 6.19158 6.50621L10.7418 8.84969C11.1593 9.06457 11.7867 9.07352 12.1216 8.89893C12.4565 8.72435 12.4029 8.38189 11.9854 8.16702L8.19429 6.213L9.97149 5.36245L12.2466 6.53531C12.6641 6.75019 13.3227 6.70094 13.6576 6.52636C13.9925 6.35177 13.968 5.95112 13.5505 5.73625L11.2754 4.56339L13.0526 3.71284L16.8459 5.66686C17.2634 5.88173 17.8618 5.94888 18.1967 5.7743C18.5316 5.59971 18.4445 5.31321 18.0292 5.09834Z" fill="white"/>
<path d="M8.82643 13.9706C8.4625 13.7602 8.17002 13.8878 8.17002 14.2526V19.15L3.70691 11.2444C3.65332 11.1481 3.58634 11.0586 3.5149 10.978C3.5149 10.978 3.51267 10.9758 3.51043 10.9758C3.4948 10.9579 3.47918 10.9422 3.46355 10.9243C3.45908 10.9198 3.45462 10.9153 3.44792 10.9086C3.43452 10.8952 3.42336 10.884 3.40996 10.8728C3.40103 10.8638 3.3921 10.8571 3.38317 10.8482C3.37424 10.8392 3.36308 10.8303 3.35415 10.8236C3.34298 10.8146 3.33182 10.8056 3.32066 10.7967C3.31172 10.79 3.30279 10.7833 3.29386 10.7766C3.2827 10.7676 3.2693 10.7586 3.25814 10.7497C3.24698 10.7407 3.23581 10.734 3.22242 10.7273C3.21349 10.7228 3.20456 10.7161 3.19563 10.7116C3.19563 10.7116 3.19339 10.7116 3.19339 10.7094C3.0438 10.6221 2.89422 10.5863 2.77142 10.6199C2.67095 10.6467 2.60173 10.7161 2.56601 10.8124V10.8146C2.56155 10.828 2.55708 10.8437 2.55262 10.8571C2.55038 10.8616 2.55038 10.8661 2.54815 10.8706C2.54592 10.884 2.54369 10.8974 2.54145 10.9108C2.54145 10.9176 2.53922 10.9243 2.53922 10.931C2.53699 10.9444 2.53699 10.9579 2.53699 10.9735C2.53699 10.9802 2.53699 10.987 2.53699 10.9937V17.6257C2.53699 17.9905 2.82947 18.4583 3.19339 18.6687C3.55732 18.8791 3.8498 18.7515 3.8498 18.3867V13.5766L8.22361 21.3278C8.33301 21.5225 8.48483 21.6859 8.64112 21.8001C8.69693 21.8493 8.75721 21.8918 8.81973 21.9277C9.18365 22.1381 9.48283 22.0127 9.48283 21.6479V15.0159C9.48283 14.651 9.19035 14.1832 8.82643 13.9706Z" fill="white"/>
</svg>
