<svg width="28" height="26" viewBox="0 0 28 26" fill="none" xmlns="http://www.w3.org/2000/svg">
<path d="M23.3334 5.66683H19.3334V4.3335C19.3334 3.27263 18.912 2.25521 18.1618 1.50507C17.4117 0.754924 16.3943 0.333496 15.3334 0.333496H12.6667C11.6059 0.333496 10.5885 0.754924 9.83832 1.50507C9.08818 2.25521 8.66675 3.27263 8.66675 4.3335V5.66683H4.66675C3.60588 5.66683 2.58847 6.08826 1.83832 6.8384C1.08818 7.58855 0.666748 8.60596 0.666748 9.66683V21.6668C0.666748 22.7277 1.08818 23.7451 1.83832 24.4953C2.58847 25.2454 3.60588 25.6668 4.66675 25.6668H23.3334C24.3943 25.6668 25.4117 25.2454 26.1618 24.4953C26.912 23.7451 27.3334 22.7277 27.3334 21.6668V9.66683C27.3334 8.60596 26.912 7.58855 26.1618 6.8384C25.4117 6.08826 24.3943 5.66683 23.3334 5.66683ZM11.3334 4.3335C11.3334 3.97987 11.4739 3.64074 11.7239 3.39069C11.974 3.14064 12.3131 3.00016 12.6667 3.00016H15.3334C15.687 3.00016 16.0262 3.14064 16.2762 3.39069C16.5263 3.64074 16.6667 3.97987 16.6667 4.3335V5.66683H11.3334V4.3335ZM24.6667 21.6668C24.6667 22.0205 24.5263 22.3596 24.2762 22.6096C24.0262 22.8597 23.687 23.0002 23.3334 23.0002H4.66675C4.31313 23.0002 3.97399 22.8597 3.72394 22.6096C3.47389 22.3596 3.33341 22.0205 3.33341 21.6668V14.3335C4.63401 14.8494 5.97099 15.2683 7.33341 15.5868V16.3735C7.33341 16.7271 7.47389 17.0663 7.72394 17.3163C7.97399 17.5664 8.31313 17.7068 8.66675 17.7068C9.02037 17.7068 9.35951 17.5664 9.60956 17.3163C9.85961 17.0663 10.0001 16.7271 10.0001 16.3735V16.0935C11.3259 16.274 12.6621 16.3675 14.0001 16.3735C15.3381 16.3675 16.6743 16.274 18.0001 16.0935V16.3735C18.0001 16.7271 18.1406 17.0663 18.3906 17.3163C18.6407 17.5664 18.9798 17.7068 19.3334 17.7068C19.687 17.7068 20.0262 17.5664 20.2762 17.3163C20.5263 17.0663 20.6667 16.7271 20.6667 16.3735V15.5868C22.0292 15.2683 23.3662 14.8494 24.6667 14.3335V21.6668ZM24.6667 11.4135C23.3699 11.9608 22.0326 12.4066 20.6667 12.7468V12.3335C20.6667 11.9799 20.5263 11.6407 20.2762 11.3907C20.0262 11.1406 19.687 11.0002 19.3334 11.0002C18.9798 11.0002 18.6407 11.1406 18.3906 11.3907C18.1406 11.6407 18.0001 11.9799 18.0001 12.3335V13.3202C15.3484 13.7202 12.6517 13.7202 10.0001 13.3202V12.3335C10.0001 11.9799 9.85961 11.6407 9.60956 11.3907C9.35951 11.1406 9.02037 11.0002 8.66675 11.0002C8.31313 11.0002 7.97399 11.1406 7.72394 11.3907C7.47389 11.6407 7.33341 11.9799 7.33341 12.3335V12.7735C5.96758 12.4333 4.63022 11.9875 3.33341 11.4402V9.66683C3.33341 9.31321 3.47389 8.97407 3.72394 8.72402C3.97399 8.47397 4.31313 8.3335 4.66675 8.3335H23.3334C23.687 8.3335 24.0262 8.47397 24.2762 8.72402C24.5263 8.97407 24.6667 9.31321 24.6667 9.66683V11.4135Z" fill="#E93370"/>
</svg>
