<svg width="22" height="22" viewBox="0 0 22 22" fill="none" xmlns="http://www.w3.org/2000/svg">
<path fill-rule="evenodd" clip-rule="evenodd" d="M18.5625 4.875C19.3564 4.875 20 4.23141 20 3.4375C20 2.64359 19.3564 2 18.5625 2C17.7686 2 17.125 2.64359 17.125 3.4375C17.125 4.23141 17.7686 4.875 18.5625 4.875ZM18.5625 6.875C20.461 6.875 22 5.33598 22 3.4375C22 1.53902 20.461 0 18.5625 0C16.664 0 15.125 1.53902 15.125 3.4375C15.125 3.6199 15.1392 3.79898 15.1666 3.97369L5.57312 8.30622C4.98661 7.84061 4.24453 7.5625 3.4375 7.5625C1.53902 7.5625 0 9.10152 0 11C0 12.8985 1.53902 14.4375 3.4375 14.4375C4.38548 14.4375 5.24384 14.0538 5.8657 13.4332L15.2764 17.5503C15.178 17.8703 15.125 18.2102 15.125 18.5625C15.125 20.461 16.664 22 18.5625 22C20.461 22 22 20.461 22 18.5625C22 16.664 20.461 15.125 18.5625 15.125C17.7548 15.125 17.0121 15.4036 16.4253 15.87L6.81098 11.6637C6.85299 11.4489 6.875 11.227 6.875 11C6.875 10.6456 6.82136 10.3037 6.72176 9.98198L16.0406 5.77346C16.6685 6.45095 17.566 6.875 18.5625 6.875ZM3.4375 12.4375C4.23141 12.4375 4.875 11.7939 4.875 11C4.875 10.2061 4.23141 9.5625 3.4375 9.5625C2.64359 9.5625 2 10.2061 2 11C2 11.7939 2.64359 12.4375 3.4375 12.4375ZM20 18.5625C20 19.3564 19.3564 20 18.5625 20C17.7686 20 17.125 19.3564 17.125 18.5625C17.125 17.7686 17.7686 17.125 18.5625 17.125C19.3564 17.125 20 17.7686 20 18.5625Z" fill="#545863"/>
</svg>
