<svg width="22" height="24" viewBox="0 0 22 24" fill="none" xmlns="http://www.w3.org/2000/svg">
<path fill-rule="evenodd" clip-rule="evenodd" d="M3 8H19C19.5523 8 20 8.44772 20 9V16.4237C20 16.976 19.5523 17.4237 19 17.4237H17.4193V19.4237H19C20.6569 19.4237 22 18.0806 22 16.4237V9C22 7.34315 20.6569 6 19 6H3C1.34315 6 0 7.34314 0 9V16.4237C0 18.0806 1.34315 19.4237 3 19.4237H4.58594V17.4237H3C2.44772 17.4237 2 16.976 2 16.4237V9C2 8.44772 2.44771 8 3 8Z" fill="#545863"/>
<path fill-rule="evenodd" clip-rule="evenodd" d="M16 15.5C16 15.2239 15.7761 15 15.5 15H6.5C6.22386 15 6 15.2239 6 15.5L6 21.5C6 21.7761 6.22386 22 6.5 22H15.5C15.7761 22 16 21.7761 16 21.5V15.5ZM6 13C4.89543 13 4 13.8954 4 15V22C4 23.1046 4.89543 24 6 24H16C17.1046 24 18 23.1046 18 22V15C18 13.8954 17.1046 13 16 13H6Z" fill="#545863"/>
<rect x="7" y="16" width="8" height="2" rx="1" fill="#545863"/>
<rect x="7" y="19" width="8" height="2" rx="1" fill="#545863"/>
<path fill-rule="evenodd" clip-rule="evenodd" d="M16 2.5C16 2.22386 15.7761 2 15.5 2H6.5C6.22386 2 6 2.22386 6 2.5V6H16V2.5ZM6 0C4.89543 0 4 0.895431 4 2V8H18V2C18 0.895431 17.1046 0 16 0H6Z" fill="#545863"/>
</svg>
