<svg width="60" height="60" viewBox="0 0 60 60" fill="none" xmlns="http://www.w3.org/2000/svg">
<path d="M56.6667 43.3332H3.33341C2.62617 43.3332 1.94789 43.6141 1.4478 44.1142C0.947699 44.6143 0.666748 45.2926 0.666748 45.9998C0.666748 46.7071 0.947699 47.3854 1.4478 47.8855C1.94789 48.3856 2.62617 48.6665 3.33341 48.6665H56.6667C57.374 48.6665 58.0523 48.3856 58.5524 47.8855C59.0525 47.3854 59.3334 46.7071 59.3334 45.9998C59.3334 45.2926 59.0525 44.6143 58.5524 44.1142C58.0523 43.6141 57.374 43.3332 56.6667 43.3332ZM56.6667 53.9998H3.33341C2.62617 53.9998 1.94789 54.2808 1.4478 54.7809C0.947699 55.281 0.666748 55.9593 0.666748 56.6665C0.666748 57.3737 0.947699 58.052 1.4478 58.5521C1.94789 59.0522 2.62617 59.3332 3.33341 59.3332H56.6667C57.374 59.3332 58.0523 59.0522 58.5524 58.5521C59.0525 58.052 59.3334 57.3737 59.3334 56.6665C59.3334 55.9593 59.0525 55.281 58.5524 54.7809C58.0523 54.2808 57.374 53.9998 56.6667 53.9998ZM14.0001 16.6665C13.4727 16.6665 12.9571 16.8229 12.5186 17.1159C12.08 17.4089 11.7382 17.8254 11.5364 18.3127C11.3346 18.8 11.2818 19.3361 11.3847 19.8534C11.4875 20.3707 11.7415 20.8458 12.1145 21.2188C12.4874 21.5917 12.9626 21.8457 13.4798 21.9486C13.9971 22.0515 14.5333 21.9987 15.0206 21.7968C15.5078 21.595 15.9243 21.2532 16.2173 20.8147C16.5103 20.3762 16.6667 19.8606 16.6667 19.3332C16.6667 18.6259 16.3858 17.9476 15.8857 17.4476C15.3856 16.9475 14.7073 16.6665 14.0001 16.6665ZM51.3334 0.666504H8.66675C6.54502 0.666504 4.51018 1.50936 3.00989 3.00965C1.5096 4.50994 0.666748 6.54477 0.666748 8.6665V29.9998C0.666748 32.1216 1.5096 34.1564 3.00989 35.6567C4.51018 37.157 6.54502 37.9998 8.66675 37.9998H51.3334C53.4551 37.9998 55.49 37.157 56.9903 35.6567C58.4906 34.1564 59.3334 32.1216 59.3334 29.9998V8.6665C59.3334 6.54477 58.4906 4.50994 56.9903 3.00965C55.49 1.50936 53.4551 0.666504 51.3334 0.666504V0.666504ZM54.0001 29.9998C54.0001 30.7071 53.7191 31.3854 53.219 31.8855C52.7189 32.3855 52.0407 32.6665 51.3334 32.6665H8.66675C7.9595 32.6665 7.28123 32.3855 6.78113 31.8855C6.28103 31.3854 6.00008 30.7071 6.00008 29.9998V8.6665C6.00008 7.95926 6.28103 7.28098 6.78113 6.78089C7.28123 6.28079 7.9595 5.99984 8.66675 5.99984H51.3334C52.0407 5.99984 52.7189 6.28079 53.219 6.78089C53.7191 7.28098 54.0001 7.95926 54.0001 8.6665V29.9998ZM30.0001 11.3332C28.4178 11.3332 26.8711 11.8024 25.5555 12.6814C24.2399 13.5605 23.2145 14.8099 22.609 16.2717C22.0035 17.7335 21.8451 19.342 22.1538 20.8939C22.4625 22.4457 23.2244 23.8712 24.3432 24.99C25.462 26.1088 26.8875 26.8708 28.4394 27.1795C29.9912 27.4881 31.5997 27.3297 33.0615 26.7242C34.5234 26.1187 35.7728 25.0933 36.6518 23.7777C37.5309 22.4621 38.0001 20.9154 38.0001 19.3332C38.0001 17.2114 37.1572 15.1766 35.6569 13.6763C34.1566 12.176 32.1218 11.3332 30.0001 11.3332ZM30.0001 21.9998C29.4727 21.9998 28.9571 21.8434 28.5186 21.5504C28.08 21.2574 27.7382 20.8409 27.5364 20.3537C27.3346 19.8664 27.2818 19.3302 27.3847 18.8129C27.4875 18.2956 27.7415 17.8205 28.1145 17.4476C28.4874 17.0746 28.9626 16.8206 29.4798 16.7177C29.9971 16.6148 30.5333 16.6677 31.0206 16.8695C31.5078 17.0713 31.9243 17.4131 32.2173 17.8516C32.5103 18.2902 32.6667 18.8058 32.6667 19.3332C32.6667 20.0404 32.3858 20.7187 31.8857 21.2188C31.3856 21.7189 30.7073 21.9998 30.0001 21.9998ZM46.0001 16.6665C45.4727 16.6665 44.9571 16.8229 44.5186 17.1159C44.08 17.4089 43.7382 17.8254 43.5364 18.3127C43.3346 18.8 43.2818 19.3361 43.3847 19.8534C43.4875 20.3707 43.7415 20.8458 44.1145 21.2188C44.4874 21.5917 44.9626 21.8457 45.4798 21.9486C45.9971 22.0515 46.5333 21.9987 47.0206 21.7968C47.5078 21.595 47.9243 21.2532 48.2173 20.8147C48.5104 20.3762 48.6667 19.8606 48.6667 19.3332C48.6667 18.6259 48.3858 17.9476 47.8857 17.4476C47.3856 16.9475 46.7073 16.6665 46.0001 16.6665Z" fill="#E93370"/>
</svg>
