<svg width="48" height="46" viewBox="0 0 48 46" fill="none" xmlns="http://www.w3.org/2000/svg">
<path d="M30.7998 23.5868C32.2227 22.3552 33.3639 20.8319 34.1461 19.1202C34.9283 17.4086 35.3332 15.5487 35.3331 13.6668C35.3331 10.1306 33.9284 6.73922 31.4279 4.23874C28.9274 1.73825 25.536 0.333496 21.9998 0.333496C18.4636 0.333496 15.0722 1.73825 12.5717 4.23874C10.0712 6.73922 8.66647 10.1306 8.66647 13.6668C8.68293 15.5591 9.10852 17.4253 9.91403 19.1376C10.7195 20.8499 11.8859 22.3677 13.3331 23.5868C9.60018 25.2772 6.43305 28.0069 4.21042 31.4496C1.98779 34.8923 0.80373 38.9023 0.799805 43.0002C0.799805 43.7074 1.08076 44.3857 1.58085 44.8858C2.08095 45.3859 2.75923 45.6668 3.46647 45.6668C4.17372 45.6668 4.85199 45.3859 5.35209 44.8858C5.85219 44.3857 6.13314 43.7074 6.13314 43.0002C6.13314 38.7567 7.81885 34.687 10.8194 31.6865C13.82 28.6859 17.8897 27.0002 22.1331 27.0002C26.3766 27.0002 30.4463 28.6859 33.4468 31.6865C36.4474 34.687 38.1331 38.7567 38.1331 43.0002C38.1331 43.7074 38.4141 44.3857 38.9142 44.8858C39.4143 45.3859 40.0926 45.6668 40.7998 45.6668C41.507 45.6668 42.1853 45.3859 42.6854 44.8858C43.1855 44.3857 43.4665 43.7074 43.4665 43.0002C43.451 38.8877 42.2471 34.8673 39.9999 31.423C37.7526 27.9788 34.5577 25.2575 30.7998 23.5868V23.5868ZM21.9998 21.6668C20.4176 21.6668 18.8708 21.1976 17.5552 20.3186C16.2396 19.4395 15.2143 18.1901 14.6088 16.7283C14.0033 15.2665 13.8448 13.658 14.1535 12.1061C14.4622 10.5543 15.2241 9.1288 16.3429 8.00998C17.4618 6.89116 18.8872 6.12923 20.4391 5.82055C21.9909 5.51187 23.5995 5.67029 25.0613 6.27579C26.5231 6.88129 27.7725 7.90667 28.6516 9.22227C29.5306 10.5379 29.9998 12.0846 29.9998 13.6668C29.9998 15.7886 29.157 17.8234 27.6567 19.3237C26.1564 20.824 24.1215 21.6668 21.9998 21.6668ZM44.6665 8.3335C43.9592 8.3335 43.2809 8.61445 42.7809 9.11455C42.2808 9.61464 41.9998 10.2929 41.9998 11.0002V16.3335C41.9998 17.0407 42.2808 17.719 42.7809 18.2191C43.2809 18.7192 43.9592 19.0002 44.6665 19.0002C45.3737 19.0002 46.052 18.7192 46.5521 18.2191C47.0522 17.719 47.3331 17.0407 47.3331 16.3335V11.0002C47.3331 10.2929 47.0522 9.61464 46.5521 9.11455C46.052 8.61445 45.3737 8.3335 44.6665 8.3335ZM42.6665 22.4402C42.1792 22.9512 41.903 23.6275 41.8931 24.3335C41.8911 24.6844 41.9584 25.0323 42.0911 25.3572C42.2238 25.6821 42.4193 25.9777 42.6665 26.2268C42.9257 26.4624 43.2233 26.6518 43.5465 26.7868C43.8657 26.9279 44.2108 27.0008 44.5598 27.0008C44.9088 27.0008 45.2539 26.9279 45.5731 26.7868C45.9041 26.6671 46.2046 26.476 46.4534 26.2271C46.7023 25.9783 46.8934 25.6778 47.0131 25.3468C47.1624 25.0304 47.2355 24.6833 47.2265 24.3335C47.2296 23.8038 47.0748 23.2852 46.782 22.8439C46.4892 22.4025 46.0716 22.0583 45.5824 21.8552C45.0932 21.6521 44.5547 21.5992 44.0353 21.7034C43.516 21.8076 43.0395 22.0641 42.6665 22.4402Z" fill="#E93370"/>
</svg>
