<svg width="60" height="60" viewBox="0 0 60 60" fill="none" xmlns="http://www.w3.org/2000/svg">
<path d="M12.6667 19.3334H14V20.6667C14 21.374 14.281 22.0523 14.7811 22.5524C15.2812 23.0525 15.9594 23.3334 16.6667 23.3334C17.3739 23.3334 18.0522 23.0525 18.5523 22.5524C19.0524 22.0523 19.3334 21.374 19.3334 20.6667V19.3334H20.6667C21.3739 19.3334 22.0522 19.0525 22.5523 18.5524C23.0524 18.0523 23.3334 17.374 23.3334 16.6667C23.3334 15.9595 23.0524 15.2812 22.5523 14.7811C22.0522 14.281 21.3739 14.0001 20.6667 14.0001H19.3334V12.6667C19.3334 11.9595 19.0524 11.2812 18.5523 10.7811C18.0522 10.281 17.3739 10.0001 16.6667 10.0001C15.9594 10.0001 15.2812 10.281 14.7811 10.7811C14.281 11.2812 14 11.9595 14 12.6667V14.0001H12.6667C11.9594 14.0001 11.2812 14.281 10.7811 14.7811C10.281 15.2812 10 15.9595 10 16.6667C10 17.374 10.281 18.0523 10.7811 18.5524C11.2812 19.0525 11.9594 19.3334 12.6667 19.3334ZM11.0134 48.9867C11.513 49.4834 12.1889 49.7622 12.8934 49.7622C13.5978 49.7622 14.2737 49.4834 14.7734 48.9867L16.6667 47.0934L18.56 48.9867C19.0597 49.4834 19.7355 49.7622 20.44 49.7622C21.1445 49.7622 21.8204 49.4834 22.32 48.9867C22.8167 48.4871 23.0955 47.8112 23.0955 47.1067C23.0955 46.4023 22.8167 45.7264 22.32 45.2267L20.4267 43.3334L22.32 41.4401C22.7569 40.9299 22.9852 40.2737 22.9592 39.6026C22.9333 38.9315 22.6551 38.2948 22.1802 37.8199C21.7053 37.345 21.0686 37.0668 20.3975 37.0408C19.7264 37.0149 19.0702 37.2432 18.56 37.6801L16.6667 39.5734L14.7734 37.6801C14.2632 37.2432 13.607 37.0149 12.9359 37.0408C12.2647 37.0668 11.6281 37.345 11.1532 37.8199C10.6783 38.2948 10.4 38.9315 10.3741 39.6026C10.3482 40.2737 10.5765 40.9299 11.0134 41.4401L12.9067 43.3334L11.0134 45.2267C10.5167 45.7264 10.2379 46.4023 10.2379 47.1067C10.2379 47.8112 10.5167 48.4871 11.0134 48.9867ZM51.3334 0.666748H8.66669C6.54495 0.666748 4.51012 1.5096 3.00983 3.00989C1.50954 4.51018 0.666687 6.54502 0.666687 8.66675V51.3334C0.666687 53.4551 1.50954 55.49 3.00983 56.9903C4.51012 58.4906 6.54495 59.3334 8.66669 59.3334H51.3334C53.4551 59.3334 55.4899 58.4906 56.9902 56.9903C58.4905 55.49 59.3334 53.4551 59.3334 51.3334V8.66675C59.3334 6.54502 58.4905 4.51018 56.9902 3.00989C55.4899 1.5096 53.4551 0.666748 51.3334 0.666748ZM27.3334 54.0001H8.66669C7.95944 54.0001 7.28117 53.7191 6.78107 53.219C6.28097 52.7189 6.00002 52.0407 6.00002 51.3334V32.6667H27.3334V54.0001ZM27.3334 27.3334H6.00002V8.66675C6.00002 7.9595 6.28097 7.28123 6.78107 6.78113C7.28117 6.28103 7.95944 6.00008 8.66669 6.00008H27.3334V27.3334ZM54 51.3334C54 52.0407 53.7191 52.7189 53.219 53.219C52.7189 53.7191 52.0406 54.0001 51.3334 54.0001H32.6667V32.6667H54V51.3334ZM54 27.3334H32.6667V6.00008H51.3334C52.0406 6.00008 52.7189 6.28103 53.219 6.78113C53.7191 7.28123 54 7.9595 54 8.66675V27.3334ZM39.3334 42.0001H47.3334C48.0406 42.0001 48.7189 41.7191 49.219 41.219C49.7191 40.7189 50 40.0407 50 39.3334C50 38.6262 49.7191 37.9479 49.219 37.4478C48.7189 36.9477 48.0406 36.6667 47.3334 36.6667H39.3334C38.6261 36.6667 37.9478 36.9477 37.4477 37.4478C36.9476 37.9479 36.6667 38.6262 36.6667 39.3334C36.6667 40.0407 36.9476 40.7189 37.4477 41.219C37.9478 41.7191 38.6261 42.0001 39.3334 42.0001ZM47.3334 14.0001H39.3334C38.6261 14.0001 37.9478 14.281 37.4477 14.7811C36.9476 15.2812 36.6667 15.9595 36.6667 16.6667C36.6667 17.374 36.9476 18.0523 37.4477 18.5524C37.9478 19.0525 38.6261 19.3334 39.3334 19.3334H47.3334C48.0406 19.3334 48.7189 19.0525 49.219 18.5524C49.7191 18.0523 50 17.374 50 16.6667C50 15.9595 49.7191 15.2812 49.219 14.7811C48.7189 14.281 48.0406 14.0001 47.3334 14.0001ZM39.3334 50.0001H47.3334C48.0406 50.0001 48.7189 49.7191 49.219 49.219C49.7191 48.7189 50 48.0407 50 47.3334C50 46.6262 49.7191 45.9479 49.219 45.4478C48.7189 44.9477 48.0406 44.6667 47.3334 44.6667H39.3334C38.6261 44.6667 37.9478 44.9477 37.4477 45.4478C36.9476 45.9479 36.6667 46.6262 36.6667 47.3334C36.6667 48.0407 36.9476 48.7189 37.4477 49.219C37.9478 49.7191 38.6261 50.0001 39.3334 50.0001Z" fill="#E93370"/>
</svg>
