<svg width="28" height="28" viewBox="0 0 28 28" fill="none" xmlns="http://www.w3.org/2000/svg">
<path d="M23.3333 8.66675H22V4.66675C22 3.60588 21.5785 2.58847 20.8284 1.83832C20.0782 1.08818 19.0608 0.666748 18 0.666748H4.66663C3.60576 0.666748 2.58834 1.08818 1.8382 1.83832C1.08805 2.58847 0.666626 3.60588 0.666626 4.66675V20.6667C0.66794 20.93 0.747143 21.1869 0.894254 21.4052C1.04137 21.6235 1.2498 21.7934 1.49329 21.8934C1.65153 21.9681 1.82506 22.0046 1.99996 22.0001C2.17543 22.0011 2.34938 21.9675 2.51183 21.9011C2.67428 21.8348 2.82204 21.737 2.94663 21.6134L6.69329 17.8534H8.66663V19.7734C8.66663 20.8343 9.08805 21.8517 9.8382 22.6018C10.5883 23.352 11.6058 23.7734 12.6666 23.7734H21.8933L25.0533 26.9467C25.1779 27.0703 25.3256 27.1681 25.4881 27.2344C25.6505 27.3008 25.8245 27.3344 26 27.3334C26.1749 27.3379 26.3484 27.3014 26.5066 27.2267C26.7501 27.1267 26.9586 26.9569 27.1057 26.7386C27.2528 26.5203 27.332 26.2633 27.3333 26.0001V12.6667C27.3333 11.6059 26.9119 10.5885 26.1617 9.83832C25.4116 9.08817 24.3942 8.66675 23.3333 8.66675ZM8.66663 12.6667V15.1867H6.14663C5.97115 15.1857 5.7972 15.2194 5.63475 15.2857C5.4723 15.3521 5.32455 15.4498 5.19996 15.5734L3.33329 17.4534V4.66675C3.33329 4.31313 3.47377 3.97399 3.72382 3.72394C3.97387 3.47389 4.313 3.33341 4.66663 3.33341H18C18.3536 3.33341 18.6927 3.47389 18.9428 3.72394C19.1928 3.97399 19.3333 4.31313 19.3333 4.66675V8.66675H12.6666C11.6058 8.66675 10.5883 9.08817 9.8382 9.83832C9.08805 10.5885 8.66663 11.6059 8.66663 12.6667ZM24.6666 22.7867L23.3333 21.4534C23.2098 21.3274 23.0625 21.2272 22.9 21.1585C22.7375 21.0899 22.563 21.0541 22.3866 21.0534H12.6666C12.313 21.0534 11.9739 20.9129 11.7238 20.6629C11.4738 20.4128 11.3333 20.0737 11.3333 19.7201V12.6667C11.3333 12.3131 11.4738 11.974 11.7238 11.7239C11.9739 11.4739 12.313 11.3334 12.6666 11.3334H23.3333C23.6869 11.3334 24.0261 11.4739 24.2761 11.7239C24.5262 11.974 24.6666 12.3131 24.6666 12.6667V22.7867Z" fill="#E93370"/>
</svg>
