<svg width="54" height="54" viewBox="0 0 54 54" fill="none" xmlns="http://www.w3.org/2000/svg">
<path d="M52.7602 22.3335L28.7602 1.00021C28.2735 0.572688 27.6479 0.336914 27.0002 0.336914C26.3524 0.336914 25.7268 0.572688 25.2402 1.00021L1.24015 22.3335C0.83225 22.6944 0.544602 23.1714 0.415886 23.7006C0.28717 24.2298 0.323556 24.7857 0.520154 25.2935C0.713536 25.7947 1.05377 26.2258 1.49629 26.5303C1.9388 26.8348 2.46298 26.9986 3.00015 27.0002H5.66682V51.0002C5.66682 51.7074 5.94777 52.3857 6.44787 52.8858C6.94797 53.3859 7.62624 53.6669 8.33349 53.6669H45.6668C46.3741 53.6669 47.0523 53.3859 47.5524 52.8858C48.0525 52.3857 48.3335 51.7074 48.3335 51.0002V27.0002H51.0002C51.5373 26.9986 52.0615 26.8348 52.504 26.5303C52.9465 26.2258 53.2868 25.7947 53.4802 25.2935C53.6768 24.7857 53.7131 24.2298 53.5844 23.7006C53.4557 23.1714 53.1681 22.6944 52.7602 22.3335V22.3335ZM29.6668 48.3335H24.3335V40.3335C24.3335 39.6263 24.6144 38.948 25.1145 38.4479C25.6146 37.9478 26.2929 37.6669 27.0002 37.6669C27.7074 37.6669 28.3857 37.9478 28.8858 38.4479C29.3859 38.948 29.6668 39.6263 29.6668 40.3335V48.3335ZM43.0002 48.3335H35.0002V40.3335C35.0002 38.2118 34.1573 36.177 32.657 34.6767C31.1567 33.1764 29.1219 32.3335 27.0002 32.3335C24.8784 32.3335 22.8436 33.1764 21.3433 34.6767C19.843 36.177 19.0002 38.2118 19.0002 40.3335V48.3335H11.0002V27.0002H43.0002V48.3335ZM10.0135 21.6669L27.0002 6.57354L43.9868 21.6669H10.0135Z" fill="#E93370"/>
</svg>
