<svg width="26" height="28" viewBox="0 0 26 28" fill="none" xmlns="http://www.w3.org/2000/svg">
<path d="M12.3334 24.6667H4.33337C3.97975 24.6667 3.64061 24.5263 3.39057 24.2762C3.14052 24.0262 3.00004 23.687 3.00004 23.3334V4.66675C3.00004 4.31313 3.14052 3.97399 3.39057 3.72394C3.64061 3.47389 3.97975 3.33341 4.33337 3.33341H11V7.33342C11 8.39428 11.4215 9.4117 12.1716 10.1618C12.9218 10.912 13.9392 11.3334 15 11.3334H19V18.0001C19 18.3537 19.1405 18.6928 19.3906 18.9429C19.6406 19.1929 19.9798 19.3334 20.3334 19.3334C20.687 19.3334 21.0261 19.1929 21.2762 18.9429C21.5262 18.6928 21.6667 18.3537 21.6667 18.0001V10.0001C21.6667 10.0001 21.6667 10.0001 21.6667 9.92008C21.6528 9.79759 21.626 9.67692 21.5867 9.56008V9.44008C21.5226 9.30299 21.4371 9.17697 21.3334 9.06675L13.3334 1.06675C13.2232 0.963036 13.0971 0.877523 12.96 0.813415C12.9159 0.805694 12.8708 0.805694 12.8267 0.813415C12.6971 0.744085 12.5577 0.694644 12.4134 0.666748H4.33337C3.27251 0.666748 2.25509 1.08818 1.50495 1.83832C0.754802 2.58847 0.333374 3.60588 0.333374 4.66675V23.3334C0.333374 24.3943 0.754802 25.4117 1.50495 26.1618C2.25509 26.912 3.27251 27.3334 4.33337 27.3334H12.3334C12.687 27.3334 13.0261 27.1929 13.2762 26.9429C13.5262 26.6928 13.6667 26.3537 13.6667 26.0001C13.6667 25.6465 13.5262 25.3073 13.2762 25.0573C13.0261 24.8072 12.687 24.6667 12.3334 24.6667ZM13.6667 5.21341L17.12 8.66675H15C14.6464 8.66675 14.3073 8.52627 14.0572 8.27622C13.8072 8.02618 13.6667 7.68704 13.6667 7.33342V5.21341ZM7.00004 16.6667H15C15.3537 16.6667 15.6928 16.5263 15.9429 16.2762C16.1929 16.0262 16.3334 15.687 16.3334 15.3334C16.3334 14.9798 16.1929 14.6407 15.9429 14.3906C15.6928 14.1406 15.3537 14.0001 15 14.0001H7.00004C6.64642 14.0001 6.30728 14.1406 6.05723 14.3906C5.80718 14.6407 5.66671 14.9798 5.66671 15.3334C5.66671 15.687 5.80718 16.0262 6.05723 16.2762C6.30728 16.5263 6.64642 16.6667 7.00004 16.6667ZM12.3334 19.3334H7.00004C6.64642 19.3334 6.30728 19.4739 6.05723 19.7239C5.80718 19.974 5.66671 20.3131 5.66671 20.6667C5.66671 21.0204 5.80718 21.3595 6.05723 21.6096C6.30728 21.8596 6.64642 22.0001 7.00004 22.0001H12.3334C12.687 22.0001 13.0261 21.8596 13.2762 21.6096C13.5262 21.3595 13.6667 21.0204 13.6667 20.6667C13.6667 20.3131 13.5262 19.974 13.2762 19.7239C13.0261 19.4739 12.687 19.3334 12.3334 19.3334ZM7.00004 11.3334H8.33337C8.687 11.3334 9.02613 11.1929 9.27618 10.9429C9.52623 10.6928 9.66671 10.3537 9.66671 10.0001C9.66671 9.64646 9.52623 9.30732 9.27618 9.05727C9.02613 8.80722 8.687 8.66675 8.33337 8.66675H7.00004C6.64642 8.66675 6.30728 8.80722 6.05723 9.05727C5.80718 9.30732 5.66671 9.64646 5.66671 10.0001C5.66671 10.3537 5.80718 10.6928 6.05723 10.9429C6.30728 11.1929 6.64642 11.3334 7.00004 11.3334ZM25.28 19.7201C25.1561 19.5951 25.0086 19.4959 24.8461 19.4282C24.6837 19.3605 24.5094 19.3257 24.3334 19.3257C24.1574 19.3257 23.9831 19.3605 23.8206 19.4282C23.6581 19.4959 23.5107 19.5951 23.3867 19.7201L19 24.1201L17.28 22.3867C17.1557 22.2624 17.0081 22.1638 16.8457 22.0965C16.6833 22.0293 16.5092 21.9946 16.3334 21.9946C16.1576 21.9946 15.9835 22.0293 15.821 22.0965C15.6586 22.1638 15.511 22.2624 15.3867 22.3867C15.2624 22.5111 15.1638 22.6587 15.0965 22.8211C15.0292 22.9835 14.9946 23.1576 14.9946 23.3334C14.9946 23.5092 15.0292 23.6833 15.0965 23.8457C15.1638 24.0082 15.2624 24.1558 15.3867 24.2801L18.0534 26.9467C18.1773 27.0717 18.3248 27.1709 18.4873 27.2386C18.6498 27.3063 18.824 27.3411 19 27.3411C19.1761 27.3411 19.3503 27.3063 19.5128 27.2386C19.6753 27.1709 19.8228 27.0717 19.9467 26.9467L25.28 21.6134C25.405 21.4895 25.5042 21.342 25.5719 21.1795C25.6396 21.017 25.6744 20.8428 25.6744 20.6667C25.6744 20.4907 25.6396 20.3165 25.5719 20.154C25.5042 19.9915 25.405 19.844 25.28 19.7201Z" fill="#E93370"/>
</svg>
