<svg width="30" height="28" viewBox="0 0 30 28" fill="none" xmlns="http://www.w3.org/2000/svg">
<path d="M15 14.0001C14.2089 14.0001 13.4356 14.2347 12.7778 14.6742C12.12 15.1137 11.6073 15.7384 11.3045 16.4693C11.0018 17.2003 10.9226 18.0045 11.0769 18.7804C11.2312 19.5564 11.6122 20.2691 12.1716 20.8285C12.731 21.3879 13.4438 21.7689 14.2197 21.9232C14.9956 22.0776 15.7999 21.9984 16.5308 21.6956C17.2617 21.3929 17.8864 20.8802 18.3259 20.2224C18.7654 19.5646 19 18.7912 19 18.0001C19 16.9392 18.5786 15.9218 17.8285 15.1717C17.0783 14.4215 16.0609 14.0001 15 14.0001ZM15 19.3334C14.7363 19.3334 14.4785 19.2552 14.2593 19.1087C14.04 18.9622 13.8691 18.754 13.7682 18.5103C13.6673 18.2667 13.6409 17.9986 13.6923 17.74C13.7438 17.4813 13.8708 17.2437 14.0572 17.0573C14.2437 16.8708 14.4813 16.7438 14.7399 16.6924C14.9986 16.6409 15.2667 16.6673 15.5103 16.7682C15.7539 16.8692 15.9622 17.0401 16.1087 17.2593C16.2552 17.4786 16.3334 17.7364 16.3334 18.0001C16.3334 18.3537 16.1929 18.6928 15.9428 18.9429C15.6928 19.1929 15.3537 19.3334 15 19.3334ZM14.0534 10.9467C14.1802 11.0681 14.3297 11.1633 14.4934 11.2267C14.653 11.2973 14.8255 11.3337 15 11.3337C15.1745 11.3337 15.3471 11.2973 15.5067 11.2267C15.6704 11.1633 15.8199 11.0681 15.9467 10.9467L19 7.94675C19.2582 7.6886 19.4032 7.33849 19.4032 6.97341C19.4032 6.60834 19.2582 6.25823 19 6.00008C18.7419 5.74194 18.3918 5.59691 18.0267 5.59691C17.6616 5.59691 17.3115 5.74194 17.0534 6.00008L16.3334 6.78675V2.00008C16.3334 1.64646 16.1929 1.30732 15.9428 1.05727C15.6928 0.807224 15.3537 0.666748 15 0.666748C14.6464 0.666748 14.3073 0.807224 14.0572 1.05727C13.8072 1.30732 13.6667 1.64646 13.6667 2.00008V6.78675L12.9467 6.00008C12.6886 5.74194 12.3384 5.59691 11.9734 5.59691C11.6083 5.59691 11.2582 5.74194 11 6.00008C10.7419 6.25823 10.5969 6.60834 10.5969 6.97341C10.5969 7.33849 10.7419 7.6886 11 7.94675L14.0534 10.9467ZM24.3334 18.0001C24.3334 17.7364 24.2552 17.4786 24.1087 17.2593C23.9622 17.0401 23.7539 16.8692 23.5103 16.7682C23.2666 16.6673 22.9986 16.6409 22.7399 16.6924C22.4813 16.7438 22.2437 16.8708 22.0572 17.0573C21.8708 17.2437 21.7438 17.4813 21.6923 17.74C21.6409 17.9986 21.6673 18.2667 21.7682 18.5103C21.8691 18.754 22.04 18.9622 22.2593 19.1087C22.4785 19.2552 22.7363 19.3334 23 19.3334C23.3537 19.3334 23.6928 19.1929 23.9429 18.9429C24.1929 18.6928 24.3334 18.3537 24.3334 18.0001ZM25.6667 8.66675H21.6667C21.3131 8.66675 20.9739 8.80722 20.7239 9.05727C20.4738 9.30732 20.3334 9.64646 20.3334 10.0001C20.3334 10.3537 20.4738 10.6928 20.7239 10.9429C20.9739 11.1929 21.3131 11.3334 21.6667 11.3334H25.6667C26.0203 11.3334 26.3595 11.4739 26.6095 11.7239C26.8596 11.974 27 12.3131 27 12.6667V23.3334C27 23.687 26.8596 24.0262 26.6095 24.2762C26.3595 24.5263 26.0203 24.6667 25.6667 24.6667H4.33337C3.97975 24.6667 3.64061 24.5263 3.39056 24.2762C3.14052 24.0262 3.00004 23.687 3.00004 23.3334V12.6667C3.00004 12.3131 3.14052 11.974 3.39056 11.7239C3.64061 11.4739 3.97975 11.3334 4.33337 11.3334H8.33337C8.687 11.3334 9.02613 11.1929 9.27618 10.9429C9.52623 10.6928 9.66671 10.3537 9.66671 10.0001C9.66671 9.64646 9.52623 9.30732 9.27618 9.05727C9.02613 8.80722 8.687 8.66675 8.33337 8.66675H4.33337C3.27251 8.66675 2.25509 9.08817 1.50495 9.83832C0.754801 10.5885 0.333374 11.6059 0.333374 12.6667V23.3334C0.333374 24.3943 0.754801 25.4117 1.50495 26.1618C2.25509 26.912 3.27251 27.3334 4.33337 27.3334H25.6667C26.7276 27.3334 27.745 26.912 28.4951 26.1618C29.2453 25.4117 29.6667 24.3943 29.6667 23.3334V12.6667C29.6667 11.6059 29.2453 10.5885 28.4951 9.83832C27.745 9.08817 26.7276 8.66675 25.6667 8.66675ZM5.66671 18.0001C5.66671 18.2638 5.74491 18.5216 5.89141 18.7408C6.03792 18.9601 6.24616 19.131 6.4898 19.2319C6.73343 19.3328 7.00152 19.3592 7.26016 19.3078C7.5188 19.2563 7.75638 19.1294 7.94285 18.9429C8.12932 18.7564 8.25631 18.5188 8.30775 18.2602C8.3592 18.0016 8.3328 17.7335 8.23188 17.4898C8.13096 17.2462 7.96007 17.038 7.7408 16.8915C7.52153 16.7449 7.26375 16.6667 7.00004 16.6667C6.64642 16.6667 6.30728 16.8072 6.05723 17.0573C5.80718 17.3073 5.66671 17.6465 5.66671 18.0001Z" fill="#E93370"/>
</svg>
