<svg width="30" height="30" viewBox="0 0 30 30" fill="none" xmlns="http://www.w3.org/2000/svg">
<path d="M29.1466 8.39991L21.6666 0.853242C21.542 0.729666 21.3943 0.6319 21.2318 0.565547C21.0694 0.499194 20.8954 0.46556 20.72 0.466575C20.3702 0.468048 20.035 0.606916 19.7866 0.853242L0.8533 19.7199C0.604965 19.9697 0.465576 20.3077 0.465576 20.6599C0.465576 21.0122 0.604965 21.3501 0.8533 21.5999L8.39997 29.1466C8.52455 29.2702 8.67231 29.3679 8.83476 29.4343C8.99721 29.5006 9.17116 29.5343 9.34663 29.5332C9.69642 29.5318 10.0316 29.3929 10.28 29.1466L14.0533 25.3732L25.3733 14.0532L29.1466 10.2799C29.395 10.0301 29.5344 9.69216 29.5344 9.33991C29.5344 8.98766 29.395 8.64973 29.1466 8.39991ZM24.4266 11.2266L23.48 10.2799C23.2302 10.0316 22.8922 9.89219 22.54 9.89219C22.1877 9.89219 21.8498 10.0316 21.6 10.2799C21.475 10.4039 21.3758 10.5513 21.3081 10.7138C21.2404 10.8763 21.2056 11.0506 21.2056 11.2266C21.2056 11.4026 21.2404 11.5769 21.3081 11.7393C21.3758 11.9018 21.475 12.0493 21.6 12.1732L22.5466 13.1199L20.6533 14.9999L17.8266 12.1732C17.5716 11.9548 17.2435 11.8407 16.9079 11.8536C16.5723 11.8666 16.254 12.0057 16.0165 12.2432C15.7791 12.4806 15.64 12.7989 15.627 13.1345C15.6141 13.4701 15.7282 13.7982 15.9466 14.0532L18.7733 16.8799L16.88 18.7732L15.9466 17.8266C15.6956 17.5755 15.355 17.4345 15 17.4345C14.6449 17.4345 14.3044 17.5755 14.0533 17.8266C13.8022 18.0776 13.6612 18.4182 13.6612 18.7732C13.6612 19.1283 13.8022 19.4688 14.0533 19.7199L15 20.6532L13.12 22.5466L10.28 19.7199C10.0301 19.4716 9.69221 19.3322 9.33997 19.3322C8.98772 19.3322 8.64978 19.4716 8.39997 19.7199C8.15163 19.9697 8.01224 20.3077 8.01224 20.6599C8.01224 21.0122 8.15163 21.3501 8.39997 21.5999L11.2266 24.4266L9.34663 26.3199L3.67997 20.6532L20.6533 3.67991L26.32 9.34658L24.4266 11.2266Z" fill="#E93370"/>
</svg>
