<svg width="28" height="28" viewBox="0 0 28 28" fill="none" xmlns="http://www.w3.org/2000/svg">
<path d="M26 16.6667H24.6666V2.00008C24.6666 1.64646 24.5262 1.30732 24.2761 1.05727C24.0261 0.807224 23.6869 0.666748 23.3333 0.666748H4.66663C4.313 0.666748 3.97387 0.807224 3.72382 1.05727C3.47377 1.30732 3.33329 1.64646 3.33329 2.00008V16.6667H1.99996C1.64634 16.6667 1.3072 16.8072 1.05715 17.0573C0.807102 17.3073 0.666626 17.6465 0.666626 18.0001C0.666626 18.3537 0.807102 18.6928 1.05715 18.9429C1.3072 19.1929 1.64634 19.3334 1.99996 19.3334H12.6666V20.8667L6.59996 24.8667C6.35107 25.0208 6.1598 25.2525 6.05565 25.5261C5.9515 25.7996 5.94027 26.0998 6.02368 26.3804C6.1071 26.661 6.28053 26.9063 6.5172 27.0786C6.75388 27.2508 7.04066 27.3403 7.33329 27.3334C7.59543 27.3364 7.8519 27.2571 8.06663 27.1067L12.6666 24.0667V26.0001C12.6666 26.3537 12.8071 26.6928 13.0572 26.9429C13.3072 27.1929 13.6463 27.3334 14 27.3334C14.3536 27.3334 14.6927 27.1929 14.9428 26.9429C15.1928 26.6928 15.3333 26.3537 15.3333 26.0001V24.0667L19.9333 27.1067C20.148 27.2571 20.4045 27.3364 20.6666 27.3334C20.9515 27.3312 21.2282 27.2378 21.4561 27.067C21.684 26.8961 21.8512 26.6567 21.9332 26.3839C22.0152 26.1111 22.0077 25.8192 21.9117 25.5509C21.8158 25.2827 21.6364 25.0523 21.4 24.8934L15.3333 20.8934V19.3334H26C26.3536 19.3334 26.6927 19.1929 26.9428 18.9429C27.1928 18.6928 27.3333 18.3537 27.3333 18.0001C27.3333 17.6465 27.1928 17.3073 26.9428 17.0573C26.6927 16.8072 26.3536 16.6667 26 16.6667ZM22 16.6667H5.99996V3.33341H22V16.6667ZM9.99996 14.0001C10.2196 13.9989 10.4355 13.9436 10.6286 13.8389C10.8216 13.7342 10.9858 13.5835 11.1066 13.4001L12.88 10.7334L14.3866 12.2534C14.5265 12.3942 14.6961 12.5019 14.8829 12.5688C15.0698 12.6357 15.2692 12.6601 15.4666 12.6401C15.6632 12.6185 15.8525 12.5535 16.0209 12.4497C16.1892 12.3459 16.3324 12.206 16.44 12.0401L19.1066 8.04008C19.2637 7.74732 19.3058 7.40649 19.2247 7.08432C19.1435 6.76216 18.9451 6.48187 18.6682 6.29836C18.3912 6.11485 18.0558 6.04134 17.7275 6.09221C17.3992 6.14309 17.1017 6.31469 16.8933 6.57341L15.12 9.24008L13.6133 7.72008C13.4734 7.57932 13.3038 7.47156 13.117 7.40466C12.9302 7.33777 12.7307 7.31343 12.5333 7.33342C12.3367 7.35498 12.1474 7.42001 11.979 7.52378C11.8107 7.62756 11.6675 7.76748 11.56 7.93341L8.89329 11.9334C8.70032 12.2274 8.63128 12.5857 8.7012 12.9303C8.77112 13.2749 8.97434 13.5779 9.26663 13.7734C9.48135 13.9238 9.73783 14.0031 9.99996 14.0001Z" fill="#E93370"/>
</svg>
