<svg width="54" height="32" viewBox="0 0 54 32" fill="none" xmlns="http://www.w3.org/2000/svg">
<path d="M4.89338 27.44C4.63977 27.1972 4.34072 27.0069 4.01338 26.88C3.36415 26.6133 2.63595 26.6133 1.98672 26.88C1.65938 27.0069 1.36033 27.1972 1.10672 27.44C0.863942 27.6936 0.673635 27.9927 0.546717 28.32C0.342505 28.8056 0.286711 29.3409 0.386376 29.8582C0.48604 30.3755 0.736697 30.8517 1.10672 31.2267C1.36592 31.4622 1.66356 31.6516 1.98672 31.7867C2.30592 31.9277 2.65106 32.0006 3.00005 32.0006C3.34904 32.0006 3.69418 31.9277 4.01338 31.7867C4.33654 31.6516 4.63418 31.4622 4.89338 31.2267C5.2634 30.8517 5.51406 30.3755 5.61373 29.8582C5.71339 29.3409 5.6576 28.8056 5.45338 28.32C5.32647 27.9927 5.13616 27.6936 4.89338 27.44V27.44ZM13.6667 5.33333H51.0001C51.7073 5.33333 52.3856 5.05238 52.8857 4.55228C53.3858 4.05219 53.6667 3.37391 53.6667 2.66667C53.6667 1.95942 53.3858 1.28115 52.8857 0.781049C52.3856 0.280952 51.7073 0 51.0001 0H13.6667C12.9595 0 12.2812 0.280952 11.7811 0.781049C11.281 1.28115 11.0001 1.95942 11.0001 2.66667C11.0001 3.37391 11.281 4.05219 11.7811 4.55228C12.2812 5.05238 12.9595 5.33333 13.6667 5.33333ZM4.89338 14.1067C4.51839 13.7366 4.04219 13.486 3.52489 13.3863C3.00758 13.2867 2.47235 13.3425 1.98672 13.5467C1.66356 13.6817 1.36592 13.8711 1.10672 14.1067C0.863942 14.3603 0.673635 14.6593 0.546717 14.9867C0.405636 15.3059 0.332764 15.651 0.332764 16C0.332764 16.349 0.405636 16.6941 0.546717 17.0133C0.681762 17.3365 0.871168 17.6341 1.10672 17.8933C1.36592 18.1289 1.66356 18.3183 1.98672 18.4533C2.30592 18.5944 2.65106 18.6673 3.00005 18.6673C3.34904 18.6673 3.69418 18.5944 4.01338 18.4533C4.33654 18.3183 4.63418 18.1289 4.89338 17.8933C5.12893 17.6341 5.31834 17.3365 5.45338 17.0133C5.59446 16.6941 5.66734 16.349 5.66734 16C5.66734 15.651 5.59446 15.3059 5.45338 14.9867C5.32647 14.6593 5.13616 14.3603 4.89338 14.1067V14.1067ZM51.0001 13.3333H13.6667C12.9595 13.3333 12.2812 13.6143 11.7811 14.1144C11.281 14.6145 11.0001 15.2928 11.0001 16C11.0001 16.7072 11.281 17.3855 11.7811 17.8856C12.2812 18.3857 12.9595 18.6667 13.6667 18.6667H51.0001C51.7073 18.6667 52.3856 18.3857 52.8857 17.8856C53.3858 17.3855 53.6667 16.7072 53.6667 16C53.6667 15.2928 53.3858 14.6145 52.8857 14.1144C52.3856 13.6143 51.7073 13.3333 51.0001 13.3333ZM4.89338 0.773333C4.63977 0.530558 4.34072 0.340252 4.01338 0.213333C3.52776 0.00912132 2.99252 -0.0466718 2.47521 0.0529925C1.95791 0.152657 1.48171 0.403313 1.10672 0.773333C0.871168 1.03254 0.681762 1.33017 0.546717 1.65333C0.405636 1.97253 0.332764 2.31768 0.332764 2.66667C0.332764 3.01566 0.405636 3.3608 0.546717 3.68C0.681762 4.00316 0.871168 4.3008 1.10672 4.56C1.36592 4.79555 1.66356 4.98496 1.98672 5.12C2.47235 5.32421 3.00758 5.38001 3.52489 5.28034C4.04219 5.18068 4.51839 4.93002 4.89338 4.56C5.12893 4.3008 5.31834 4.00316 5.45338 3.68C5.59446 3.3608 5.66734 3.01566 5.66734 2.66667C5.66734 2.31768 5.59446 1.97253 5.45338 1.65333C5.31834 1.33017 5.12893 1.03254 4.89338 0.773333V0.773333ZM51.0001 26.6667H13.6667C12.9595 26.6667 12.2812 26.9476 11.7811 27.4477C11.281 27.9478 11.0001 28.6261 11.0001 29.3333C11.0001 30.0406 11.281 30.7189 11.7811 31.219C12.2812 31.7191 12.9595 32 13.6667 32H51.0001C51.7073 32 52.3856 31.7191 52.8857 31.219C53.3858 30.7189 53.6667 30.0406 53.6667 29.3333C53.6667 28.6261 53.3858 27.9478 52.8857 27.4477C52.3856 26.9476 51.7073 26.6667 51.0001 26.6667Z" fill="#E93370"/>
</svg>
