<svg width="60" height="60" viewBox="0 0 60 60" fill="none" xmlns="http://www.w3.org/2000/svg">
<path d="M29.9999 0.666504C24.1983 0.666504 18.527 2.38687 13.7031 5.61006C8.87928 8.83325 5.11955 13.4145 2.89938 18.7745C0.679214 24.1344 0.0983157 30.0324 1.23015 35.7225C2.36198 41.4126 5.15571 46.6393 9.25805 50.7416C13.3604 54.844 18.5871 57.6377 24.2772 58.7695C29.9673 59.9014 35.8653 59.3205 41.2252 57.1003C46.5852 54.8801 51.1664 51.1204 54.3896 46.2966C57.6128 41.4727 59.3332 35.8014 59.3332 29.9998C59.3332 22.2202 56.2427 14.7591 50.7417 9.25804C45.2406 3.75697 37.7795 0.666504 29.9999 0.666504V0.666504ZM29.9999 53.9998C25.2531 53.9998 20.6129 52.5923 16.6662 49.9551C12.7194 47.318 9.64325 43.5697 7.82674 39.1842C6.01024 34.7988 5.53496 29.9732 6.461 25.3177C7.38705 20.6621 9.67283 16.3857 13.0293 13.0293C16.3857 9.67281 20.6621 7.38704 25.3177 6.46099C29.9732 5.53494 34.7988 6.01022 39.1843 7.82673C43.5697 9.64323 47.318 12.7194 49.9551 16.6662C52.5923 20.6129 53.9999 25.2531 53.9999 29.9998C53.9999 36.365 51.4713 42.4695 46.9704 46.9704C42.4695 51.4713 36.365 53.9998 29.9999 53.9998V53.9998ZM35.3332 16.6665V13.9998C35.3332 13.2926 35.0522 12.6143 34.5521 12.1142C34.052 11.6141 33.3738 11.3332 32.6665 11.3332C31.9593 11.3332 31.281 11.6141 30.7809 12.1142C30.2808 12.6143 29.9999 13.2926 29.9999 13.9998V16.6665H27.3332V13.9998C27.3332 13.2926 27.0522 12.6143 26.5521 12.1142C26.052 11.6141 25.3738 11.3332 24.6665 11.3332C23.9593 11.3332 23.281 11.6141 22.7809 12.1142C22.2808 12.6143 21.9999 13.2926 21.9999 13.9998V16.6665H19.3332C18.6259 16.6665 17.9477 16.9475 17.4476 17.4476C16.9475 17.9476 16.6665 18.6259 16.6665 19.3332C16.6665 20.0404 16.9475 20.7187 17.4476 21.2188C17.9477 21.7189 18.6259 21.9998 19.3332 21.9998H21.9999V37.9998H19.3332C18.6259 37.9998 17.9477 38.2808 17.4476 38.7809C16.9475 39.281 16.6665 39.9593 16.6665 40.6665C16.6665 41.3737 16.9475 42.052 17.4476 42.5521C17.9477 43.0522 18.6259 43.3332 19.3332 43.3332H21.9999V45.9998C21.9999 46.7071 22.2808 47.3854 22.7809 47.8855C23.281 48.3856 23.9593 48.6665 24.6665 48.6665C25.3738 48.6665 26.052 48.3856 26.5521 47.8855C27.0522 47.3854 27.3332 46.7071 27.3332 45.9998V43.3332H29.9999V45.9998C29.9999 46.7071 30.2808 47.3854 30.7809 47.8855C31.281 48.3856 31.9593 48.6665 32.6665 48.6665C33.3738 48.6665 34.052 48.3856 34.5521 47.8855C35.0522 47.3854 35.3332 46.7071 35.3332 45.9998V43.3332C37.4549 43.3332 39.4897 42.4903 40.99 40.99C42.4903 39.4897 43.3332 37.4549 43.3332 35.3332C43.3287 33.3632 42.5976 31.4642 41.2798 29.9998C42.5976 28.5355 43.3287 26.6365 43.3332 24.6665C43.3332 22.5448 42.4903 20.5099 40.99 19.0096C39.4897 17.5094 37.4549 16.6665 35.3332 16.6665V16.6665ZM35.3332 37.9998H27.3332V32.6665H35.3332C36.0404 32.6665 36.7187 32.9475 37.2188 33.4476C37.7189 33.9476 37.9999 34.6259 37.9999 35.3332C37.9999 36.0404 37.7189 36.7187 37.2188 37.2188C36.7187 37.7189 36.0404 37.9998 35.3332 37.9998ZM35.3332 27.3332H27.3332V21.9998H35.3332C36.0404 21.9998 36.7187 22.2808 37.2188 22.7809C37.7189 23.281 37.9999 23.9593 37.9999 24.6665C37.9999 25.3737 37.7189 26.052 37.2188 26.5521C36.7187 27.0522 36.0404 27.3332 35.3332 27.3332Z" fill="#E93370"/>
</svg>
