<svg width="24" height="24" viewBox="0 0 24 24" fill="none" xmlns="http://www.w3.org/2000/svg">
<rect x="3.5" y="3.5" width="14" height="14" rx="0.5" stroke="white"/>
<path d="M10 14.0001L9.99996 13.5001L10 14.0001ZM3.95957 15.197C4.17946 14.6839 4.66592 13.9827 5.21407 13.4075C5.48567 13.1224 5.7579 12.8838 6.00227 12.7203C6.2617 12.5467 6.4273 12.5001 6.5 12.5001V11.5001C6.12549 11.5001 5.75498 11.6826 5.44618 11.8892C5.12232 12.1059 4.79421 12.3985 4.49011 12.7176C3.88687 13.3507 3.32054 14.1494 3.04043 14.803L3.95957 15.197ZM6.5 12.5001C6.59794 12.5001 6.76846 12.5554 7.03849 12.7314C7.29811 12.9007 7.5756 13.1302 7.88884 13.3869C8.19002 13.6336 8.52369 13.9049 8.8586 14.1126C9.18703 14.3162 9.58018 14.5001 10 14.5001L9.99996 13.5001C9.8608 13.5001 9.66195 13.434 9.38555 13.2627C9.11565 13.0953 8.83171 12.8666 8.52263 12.6133C8.22563 12.37 7.90025 12.0995 7.58457 11.8937C7.27929 11.6947 6.90206 11.5001 6.5 11.5001V12.5001ZM10 14.5001C10.2441 14.5001 10.4691 14.4109 10.6539 14.3094C10.8435 14.2052 11.0316 14.0652 11.2114 13.914C11.5687 13.6136 11.9522 13.2179 12.3128 12.85C12.6844 12.4709 13.0352 12.1178 13.3575 11.8582C13.5176 11.7293 13.6571 11.6348 13.7758 11.5741C13.8973 11.512 13.9685 11.5 14 11.5V10.5C13.752 10.5 13.5199 10.5818 13.3205 10.6837C13.1183 10.7871 12.9196 10.927 12.7304 11.0793C12.3542 11.3822 11.9623 11.7791 11.5987 12.15C11.2241 12.5321 10.8796 12.8865 10.5679 13.1486C10.4132 13.2787 10.2815 13.373 10.1724 13.4329C10.0585 13.4955 10.0059 13.5001 9.99996 13.5001L10 14.5001ZM14 11.5C14.1218 11.5 14.3124 11.5549 14.5805 11.7078C14.8403 11.8559 15.1269 12.0691 15.4299 12.3216C15.7316 12.573 16.0355 12.8514 16.3331 13.1256C16.6262 13.3955 16.9181 13.666 17.1799 13.8841L17.8201 13.1159C17.5819 12.9174 17.3113 12.667 17.0106 12.3901C16.7145 12.1174 16.3934 11.8229 16.0701 11.5534C15.7481 11.2851 15.4097 11.0295 15.0758 10.8391C14.7501 10.6534 14.3782 10.5 14 10.5V11.5Z" fill="white"/>
<circle cx="9.5" cy="7.5" r="2" stroke="white"/>
<path d="M20.5 6C20.5 5.72386 20.2761 5.5 20 5.5C19.7239 5.5 19.5 5.72386 19.5 6H20.5ZM6 19.5C5.72386 19.5 5.5 19.7239 5.5 20C5.5 20.2761 5.72386 20.5 6 20.5V19.5ZM19.5 6V19.8H20.5V6H19.5ZM19.8 19.5H6V20.5H19.8V19.5ZM19.5 19.8C19.5 19.6343 19.6343 19.5 19.8 19.5V20.5C20.1866 20.5 20.5 20.1866 20.5 19.8H19.5Z" fill="white"/>
</svg>
