<svg width="18" height="22" viewBox="0 0 18 22" fill="none" xmlns="http://www.w3.org/2000/svg">
<path d="M15.0009 3.48003C13.4096 1.88873 11.2513 0.994751 9.00091 0.994751C6.75047 0.994751 4.59221 1.88873 3.00091 3.48003C1.40961 5.07133 0.515625 7.2296 0.515625 9.48003C0.515625 11.7305 1.40961 13.8887 3.00091 15.48L8.27091 20.76C8.36387 20.8538 8.47447 20.9282 8.59633 20.9789C8.71819 21.0297 8.84889 21.0558 8.98091 21.0558C9.11292 21.0558 9.24362 21.0297 9.36548 20.9789C9.48734 20.9282 9.59794 20.8538 9.69091 20.76L15.0009 15.43C16.5856 13.8454 17.4758 11.6961 17.4758 9.45503C17.4758 7.21398 16.5856 5.06471 15.0009 3.48003ZM13.5709 14L9.00091 18.59L4.43091 14C3.52805 13.0963 2.91338 11.9453 2.6646 10.6923C2.41582 9.43937 2.54409 8.14078 3.03321 6.96071C3.52233 5.78065 4.35032 4.77208 5.41254 4.06251C6.47475 3.35294 7.72349 2.97421 9.00091 2.97421C10.2783 2.97421 11.5271 3.35294 12.5893 4.06251C13.6515 4.77208 14.4795 5.78065 14.9686 6.96071C15.4577 8.14078 15.586 9.43937 15.3372 10.6923C15.0884 11.9453 14.4738 13.0963 13.5709 14ZM6.00091 6.41003C5.19362 7.2198 4.7403 8.3166 4.7403 9.46003C4.7403 10.6035 5.19362 11.7003 6.00091 12.51C6.60067 13.1108 7.36449 13.5211 8.19656 13.6894C9.02862 13.8578 9.89186 13.7766 10.678 13.4562C11.4641 13.1358 12.1381 12.5903 12.6154 11.8883C13.0927 11.1863 13.352 10.3589 13.3609 9.51003C13.3654 8.94324 13.2562 8.38129 13.0398 7.85742C12.8234 7.33355 12.5041 6.85839 12.1009 6.46003C11.7046 6.05461 11.232 5.73157 10.7103 5.5095C10.1887 5.28743 9.62825 5.17071 9.06131 5.16606C8.49437 5.16141 7.93211 5.26893 7.40688 5.48242C6.88165 5.69591 6.40383 6.01116 6.00091 6.41003ZM10.6909 11.09C10.3119 11.4748 9.81112 11.7159 9.27403 11.7723C8.73695 11.8286 8.19697 11.6967 7.74641 11.399C7.29586 11.1012 6.9627 10.6563 6.80391 10.1401C6.64512 9.62396 6.67056 9.06867 6.87586 8.56919C7.08117 8.06971 7.45361 7.65705 7.92949 7.40177C8.40538 7.14649 8.95516 7.06444 9.48484 7.16965C10.0145 7.27486 10.4912 7.56079 10.8334 7.97856C11.1756 8.39634 11.3621 8.92 11.3609 9.46003C11.3464 10.0773 11.0874 10.6636 10.6409 11.09H10.6909Z" fill="#545863"/>
</svg>
