<svg width="80" height="28" viewBox="0 0 80 28" fill="none" xmlns="http://www.w3.org/2000/svg">
<path d="M28.6667 16C28.6667 9.37258 34.0393 4 40.6667 4C47.2942 4 52.6667 9.37258 52.6667 16C52.6667 22.6274 47.2942 28 40.6667 28C34.0393 28 28.6667 22.6274 28.6667 16Z" fill="#6FD454"/>
<path d="M37.1525 10.0245C37.2982 10.0122 37.4231 10.0478 37.5039 10.1812C37.6851 10.4751 37.8676 10.769 38.0402 11.0702C38.2398 11.418 38.4235 11.7755 38.6194 12.127C38.6696 12.2213 38.7394 12.307 38.7982 12.3976C38.8521 12.4833 38.9035 12.5715 38.9537 12.6572C39.0566 12.8519 39.0517 13.0478 38.8986 13.2033C38.6807 13.4262 38.4406 13.6331 38.2092 13.845C38.0157 14.0225 37.8149 14.1927 37.6263 14.374C37.4794 14.516 37.4414 14.6935 37.5406 14.8809C37.6937 15.1674 37.8455 15.454 38.0133 15.7344C38.6353 16.7715 39.4301 17.6532 40.4342 18.3328C40.8211 18.5961 41.224 18.8373 41.6305 19.0675C42.0138 19.2842 42.1632 19.2475 42.4607 18.9157C42.7375 18.6083 43.0044 18.2961 43.2799 17.9863C43.346 17.9116 43.4256 17.8454 43.5028 17.7818C43.6595 17.6495 43.8309 17.6348 44.0109 17.7254C44.0612 17.7499 44.115 17.772 44.1591 17.8038C44.6367 18.1454 45.1706 18.3867 45.6751 18.6769C45.9457 18.8324 46.2089 18.9989 46.4747 19.1581C46.6179 19.2426 46.6755 19.3663 46.6657 19.5365C46.6387 20.0153 46.5592 20.4855 46.2812 20.8896C46.1649 21.0573 45.9996 21.2043 45.833 21.323C45.3714 21.6463 44.8559 21.8459 44.3073 21.9684C43.8089 22.0798 43.3118 22.0394 42.8342 21.89C41.9121 21.6059 41.0035 21.2802 40.1672 20.7867C39.408 20.3373 38.7174 19.7949 38.0782 19.1887C37.2688 18.4185 36.5463 17.5785 35.9622 16.6222C35.5814 16.0013 35.3096 15.3327 35.0634 14.6507C34.9141 14.2393 34.7671 13.8315 34.701 13.3956C34.6251 12.9021 34.6777 12.427 34.8357 11.9592C34.9777 11.5368 35.1553 11.1327 35.4235 10.7714C35.6341 10.491 35.8973 10.2853 36.2378 10.1935C36.5108 10.1212 36.7863 10.0637 37.0606 10C37.0961 10.0282 37.1243 10.0282 37.1525 10.0245Z" fill="white"/>
<rect x="44.6667" width="12" height="12" rx="6" fill="#E3004C"/>
<path d="M49.5668 6.93451L53.2158 3.24922C53.3752 3.0896 53.5908 3 53.8155 3C54.0402 3 54.2558 3.0896 54.4151 3.24922C54.4949 3.3289 54.5582 3.42369 54.6013 3.52812C54.6445 3.63256 54.6667 3.74458 54.6667 3.85772C54.6667 3.97086 54.6445 4.08288 54.6013 4.18732C54.5582 4.29176 54.4949 4.38655 54.4151 4.46622L50.1622 8.75144C50.0038 8.90978 49.79 8.99904 49.5668 8.99999C49.4549 9.00064 49.3439 8.97902 49.2403 8.93637C49.1367 8.89372 49.0424 8.83088 48.9629 8.75144L46.9641 6.72882C46.875 6.65199 46.8027 6.55744 46.7517 6.45111C46.7006 6.34478 46.6719 6.22897 46.6674 6.11094C46.6629 5.99291 46.6826 5.87521 46.7254 5.76523C46.7681 5.65525 46.833 5.55536 46.9159 5.47184C46.9988 5.38831 47.0979 5.32296 47.2071 5.27987C47.3162 5.23678 47.433 5.21689 47.5502 5.22145C47.6673 5.22601 47.7822 5.25492 47.8878 5.30636C47.9933 5.3578 48.0871 5.43067 48.1634 5.52039L49.5668 6.93451Z" fill="#FBE6ED"/>
</svg>
