<svg width="24" height="24" viewBox="0 0 24 24" fill="none" xmlns="http://www.w3.org/2000/svg">
<path d="M12.0001 24C18.6275 24 24.0001 18.6274 24.0001 12C24.0001 5.37258 18.6275 0 12.0001 0C5.3727 0 0.00012207 5.37258 0.00012207 12C0.00012207 18.6274 5.3727 24 12.0001 24Z" fill="#A1A9B6"/>
<path fill-rule="evenodd" clip-rule="evenodd" d="M12.3956 18.6762H12.3927C11.1984 18.6757 10.025 18.3761 8.98275 17.8076L5.20007 18.7999L6.21238 15.1023C5.58794 14.0202 5.25936 12.7926 5.2599 11.535C5.26146 7.60075 8.46248 4.3999 12.3955 4.3999C14.3044 4.40073 16.096 5.14384 17.4432 6.49261C18.7904 7.84131 19.5319 9.63407 19.5311 11.5407C19.5296 15.474 16.3298 18.6746 12.3956 18.6762ZM9.15801 16.5158L9.37458 16.6444C10.2852 17.1847 11.329 17.4707 12.3932 17.4711H12.3956C15.6645 17.4711 18.325 14.8105 18.3263 11.5402C18.327 9.95551 17.7107 8.46544 16.5909 7.3444C15.4712 6.22335 13.9821 5.60567 12.3979 5.60512C9.12654 5.60512 6.46596 8.26546 6.46466 11.5354C6.4642 12.6561 6.77776 13.7475 7.37144 14.6917L7.51246 14.9161L6.91332 17.1047L9.15801 16.5158ZM15.7463 13.0769C15.8706 13.137 15.9546 13.1776 15.9905 13.2375C16.035 13.3118 16.035 13.6688 15.8865 14.0853C15.7379 14.5018 15.0256 14.8819 14.683 14.9331C14.3759 14.979 13.9871 14.9981 13.56 14.8624C13.3011 14.7803 12.969 14.6706 12.5436 14.4868C10.8722 13.7651 9.74258 12.1451 9.5291 11.8389C9.51414 11.8175 9.50368 11.8025 9.49785 11.7947L9.49641 11.7928C9.40205 11.6669 8.76983 10.8233 8.76983 9.95029C8.76983 9.12902 9.17325 8.69855 9.35894 8.50041C9.37167 8.48683 9.38337 8.47435 9.39385 8.4629C9.55727 8.2844 9.75044 8.23978 9.86929 8.23978C9.98814 8.23978 10.1071 8.24088 10.211 8.2461C10.2238 8.24674 10.2372 8.24666 10.2509 8.24658C10.3548 8.24597 10.4844 8.24521 10.6122 8.55215C10.6613 8.67027 10.7332 8.84538 10.8091 9.03007C10.9625 9.40358 11.1321 9.81629 11.1619 9.87601C11.2065 9.96526 11.2362 10.0693 11.1767 10.1884C11.1678 10.2062 11.1596 10.2231 11.1517 10.2392C11.107 10.3303 11.0742 10.3973 10.9985 10.4858C10.9687 10.5206 10.9379 10.5581 10.9071 10.5956C10.8457 10.6703 10.7844 10.745 10.731 10.7982C10.6417 10.8871 10.5488 10.9835 10.6528 11.162C10.7568 11.3405 11.1147 11.9244 11.6447 12.3971C12.2145 12.9054 12.7097 13.1201 12.9607 13.229C13.0097 13.2503 13.0494 13.2675 13.0785 13.2821C13.2567 13.3714 13.3607 13.3564 13.4648 13.2375C13.5688 13.1185 13.9105 12.7168 14.0293 12.5384C14.1481 12.3599 14.267 12.3897 14.4304 12.4491C14.5939 12.5087 15.4705 12.94 15.6488 13.0292C15.6836 13.0466 15.7161 13.0624 15.7463 13.0769Z" fill="#FDFDFD"/>
</svg>
