<svg width="25" height="24" viewBox="0 0 25 24" fill="none" xmlns="http://www.w3.org/2000/svg">
<path d="M12.3335 24C18.9609 24 24.3335 18.6274 24.3335 12C24.3335 5.37258 18.9609 0 12.3335 0C5.70608 0 0.333496 5.37258 0.333496 12C0.333496 18.6274 5.70608 24 12.3335 24Z" fill="#A1A9B6"/>
<path d="M10.1334 17.5C9.74469 17.5 9.81075 17.3532 9.67667 16.9831L8.53345 13.2206L17.3334 8" fill="#D0D3DC"/>
<path d="M10.1335 17.5C10.4335 17.5 10.5661 17.3628 10.7335 17.2L12.3335 15.6442L10.3377 14.4407" fill="#D0D3DC"/>
<path d="M10.3375 14.441L15.1735 18.0139C15.7253 18.3184 16.1236 18.1607 16.2611 17.5015L18.2296 8.22524C18.4311 7.41722 17.9216 7.05074 17.3936 7.29042L5.83463 11.7475C5.04562 12.064 5.05022 12.5042 5.69081 12.7003L8.65711 13.6262L15.5244 9.29365C15.8486 9.09706 16.1461 9.20275 15.9019 9.41949" fill="white"/>
</svg>
