<svg width="25" height="24" viewBox="0 0 25 24" fill="none" xmlns="http://www.w3.org/2000/svg">
<path d="M12.6667 0C19.2942 0 24.6667 5.37258 24.6667 12C24.6667 18.6274 19.2942 24 12.6667 24C6.03933 24 0.666748 18.6274 0.666748 12C0.666748 5.37258 6.03933 0 12.6667 0Z" fill="#A1A9B6"/>
<path d="M15.8637 10.4792C15.8053 10.005 15.6596 9.63273 15.4008 9.30295C15.0647 8.87832 14.6352 8.62404 13.9994 8.4732C13.585 8.37266 13.4176 8.3842 13.2677 8.5211C13.1281 8.64935 13.1009 8.90647 13.2076 9.07298C13.2826 9.19383 13.3691 9.23712 13.6098 9.28437C13.9304 9.34335 14.1519 9.41989 14.3534 9.53511C14.7812 9.78208 14.9803 10.1686 15.0017 10.7942C15.0116 11.088 15.037 11.1783 15.1396 11.2825C15.3298 11.473 15.6683 11.4359 15.8118 11.208C15.8645 11.1221 15.8725 11.0847 15.8781 10.8852C15.8818 10.7617 15.8765 10.5779 15.8637 10.4792Z" fill="white"/>
<path d="M17.5391 11.0139C17.4547 9.56118 16.8865 8.39242 15.8696 7.57011C15.2966 7.10805 14.6041 6.79033 13.845 6.63582C13.5669 6.58055 13.0549 6.53576 12.9671 6.56138C12.8842 6.58511 12.767 6.67485 12.7147 6.75601C12.6594 6.84402 12.647 7.04053 12.6941 7.15419C12.7702 7.34421 12.9117 7.41133 13.3081 7.44601C13.9192 7.49947 14.5494 7.71415 15.0256 8.03198C15.5693 8.39384 16.0015 8.88879 16.281 9.4704C16.5226 9.97012 16.6712 10.6903 16.6671 11.3352C16.6657 11.5684 16.7017 11.7001 16.7955 11.7964C16.9371 11.9445 17.1435 11.9769 17.3256 11.8785C17.5275 11.7724 17.5747 11.586 17.5391 11.0139Z" fill="white"/>
<path d="M19.3928 16.6082C19.3644 16.5252 19.2981 16.3971 19.2507 16.3235C18.9523 15.8729 17.3489 14.6181 16.5484 14.2078C16.0914 13.973 15.7527 13.8947 15.5016 13.9682C15.2316 14.0441 15.0895 14.1698 14.6372 14.732C14.4548 14.9573 14.2677 15.1684 14.218 15.2016C14.0948 15.287 13.8533 15.3558 13.6827 15.3558C13.2872 15.3534 12.5696 15.0973 12.0178 14.7604C11.5891 14.4996 11.0397 14.0323 10.6181 13.5697C10.1207 13.0266 9.7821 12.5474 9.51445 12.0066C9.16869 11.3117 9.08106 10.8871 9.22551 10.5763C9.26104 10.4981 9.30842 10.4151 9.3297 10.389C9.35103 10.3653 9.57367 10.1826 9.81995 9.98337C10.3031 9.59914 10.3813 9.51138 10.4713 9.24809C10.5849 8.91362 10.5542 8.57207 10.3789 8.22816C10.2439 7.96723 9.89102 7.39798 9.63525 7.03033C9.29657 6.54648 8.45344 5.51232 8.28526 5.37233C7.98212 5.12568 7.59375 5.08296 7.16503 5.24903C6.71272 5.42455 5.86483 6.10766 5.50246 6.58442C5.17563 7.01611 5.05015 7.32207 5.03118 7.7253C5.01462 8.05736 5.04303 8.19493 5.21829 8.61952C6.58956 11.9497 8.63578 14.6086 11.447 16.7197C12.9154 17.8226 14.4382 18.6623 16.0179 19.2363C16.9392 19.5707 17.3395 19.5873 17.8108 19.3122C18.0097 19.1936 18.5023 18.6884 18.777 18.3207C19.2318 17.7088 19.3999 17.4265 19.4473 17.2012C19.4804 17.047 19.4544 16.779 19.3928 16.6082Z" fill="white"/>
<path d="M19.2446 11.3475C19.2142 10.5258 19.0759 9.85177 18.7874 9.1003C18.5026 8.36111 18.2143 7.87875 17.67 7.22634C17.1553 6.61463 16.7555 6.26535 16.1215 5.87656C15.2369 5.33486 14.1604 4.97639 12.954 4.82563C12.5426 4.77294 12.4495 4.7767 12.3233 4.86092C12.0787 5.02047 12.082 5.4184 12.3274 5.57556C12.4086 5.62555 12.4807 5.64376 12.8097 5.68683C13.3149 5.75485 13.6398 5.81895 14.0252 5.92411C15.5367 6.3373 16.6991 7.18188 17.4762 8.43561C18.1265 9.4806 18.3964 10.5257 18.3581 11.8604C18.3448 12.3116 18.3545 12.3911 18.4234 12.4995C18.5555 12.7015 18.9039 12.7415 19.0826 12.5738C19.1938 12.4716 19.2148 12.3949 19.2367 12.0087C19.2472 11.8072 19.2494 11.5098 19.2446 11.3475Z" fill="white"/>
</svg>
