<svg width="48" height="48" viewBox="0 0 48 48" fill="none" xmlns="http://www.w3.org/2000/svg">
<path fill-rule="evenodd" clip-rule="evenodd" d="M24 48C10.7452 48 0 37.2548 0 24C0 10.7452 10.7452 0 24 0C37.2548 0 48 10.7452 48 24C48 37.2548 37.2548 48 24 48ZM25.6146 19.0769C25.4928 19.1277 25.3822 19.2021 25.2892 19.2958L21.0492 23.5358C20.9555 23.6288 20.8811 23.7394 20.8303 23.8612C20.7795 23.9831 20.7534 24.1138 20.7534 24.2458C20.7534 24.3778 20.7795 24.5085 20.8303 24.6304C20.8811 24.7522 20.9555 24.8628 21.0492 24.9558L25.2892 29.1958C25.3826 29.2885 25.4935 29.3618 25.6153 29.4116C25.7371 29.4613 25.8676 29.4866 25.9992 29.4858C26.1308 29.4866 26.2613 29.4613 26.3831 29.4116C26.505 29.3618 26.6158 29.2885 26.7092 29.1958C26.8955 29.0084 27 28.755 27 28.4908C27 28.2266 26.8955 27.9732 26.7092 27.7858L23.1692 24.2458L26.7092 20.7058C26.8955 20.5184 27 20.265 27 20.0008C27 19.7366 26.8955 19.4832 26.7092 19.2958C26.6162 19.2021 26.5056 19.1277 26.3838 19.0769C26.2619 19.0261 26.1312 19 25.9992 19C25.8672 19 25.7365 19.0261 25.6146 19.0769Z" fill="white" fill-opacity="0.7"/>
</svg>
