<svg width="21" height="20" viewBox="0 0 21 20" fill="none" xmlns="http://www.w3.org/2000/svg">
<path d="M20 7.67002C19.9368 7.48711 19.822 7.32645 19.6693 7.20753C19.5167 7.0886 19.3328 7.01652 19.14 7.00002L13.45 6.17002L10.9 1.00002C10.8181 0.830952 10.6902 0.688365 10.5311 0.588597C10.3719 0.488828 10.1878 0.435913 9.99998 0.435913C9.81212 0.435913 9.62806 0.488828 9.46889 0.588597C9.30971 0.688365 9.18186 0.830952 9.09998 1.00002L6.54998 6.16002L0.859977 7.00002C0.6749 7.02633 0.500902 7.10399 0.357728 7.22418C0.214554 7.34438 0.107937 7.5023 0.0499774 7.68002C-0.00307759 7.8537 -0.00783865 8.03854 0.0362052 8.21472C0.080249 8.39089 0.171435 8.55175 0.299977 8.68002L4.42998 12.68L3.42998 18.36C3.39428 18.5475 3.41297 18.7413 3.48385 18.9185C3.55473 19.0957 3.67483 19.2489 3.82998 19.36C3.98119 19.4681 4.15955 19.5319 4.34503 19.5443C4.5305 19.5567 4.71575 19.5171 4.87998 19.43L9.99998 16.76L15.1 19.44C15.2403 19.5192 15.3988 19.5606 15.56 19.56C15.7718 19.5608 15.9784 19.4942 16.15 19.37C16.3051 19.2589 16.4252 19.1057 16.4961 18.9285C16.567 18.7513 16.5857 18.5575 16.55 18.37L15.55 12.69L19.68 8.69002C19.8244 8.5677 19.9311 8.40693 19.9877 8.22637C20.0444 8.04582 20.0486 7.8529 20 7.67002ZM13.85 11.67C13.7327 11.7835 13.645 11.9239 13.5944 12.079C13.5439 12.2341 13.532 12.3993 13.56 12.56L14.28 16.75L10.52 14.75C10.3753 14.673 10.2139 14.6327 10.05 14.6327C9.88606 14.6327 9.72466 14.673 9.57998 14.75L5.81998 16.75L6.53998 12.56C6.56791 12.3993 6.55609 12.2341 6.50554 12.079C6.45499 11.9239 6.36725 11.7835 6.24998 11.67L3.24998 8.67002L7.45998 8.06002C7.62198 8.03749 7.77598 7.97556 7.90848 7.87967C8.04098 7.78379 8.14794 7.65686 8.21998 7.51002L9.99998 3.70002L11.88 7.52002C11.952 7.66686 12.059 7.79379 12.1915 7.88968C12.324 7.98556 12.478 8.04749 12.64 8.07002L16.85 8.68002L13.85 11.67Z" fill="#E3A300"/>
</svg>
